<ttFont>
    <TTGlyph name=".notdef" xMin="24" yMin="0" xMax="576" yMax="660">
      <contour>
        <pt x="24" y="660" on="1"/>
        <pt x="576" y="660" on="1"/>
        <pt x="576" y="0" on="1"/>
        <pt x="24" y="0" on="1"/>
      </contour>
      <contour>
        <pt x="218" y="340" on="1"/>
        <pt x="136" y="508" on="1"/>
        <pt x="136" y="172" on="1"/>
      </contour>
      <contour>
        <pt x="464" y="172" on="1"/>
        <pt x="464" y="508" on="1"/>
        <pt x="382" y="340" on="1"/>
      </contour>
      <contour>
        <pt x="364" y="104" on="1"/>
        <pt x="338" y="160" on="1"/>
        <pt x="302" y="256" on="1"/>
        <pt x="298" y="256" on="1"/>
        <pt x="262" y="160" on="1"/>
        <pt x="236" y="104" on="1"/>
      </contour>
      <contour>
        <pt x="302" y="424" on="1"/>
        <pt x="342" y="520" on="1"/>
        <pt x="360" y="556" on="1"/>
        <pt x="240" y="556" on="1"/>
        <pt x="258" y="520" on="1"/>
        <pt x="298" y="424" on="1"/>
      </contour>
    </TTGlyph>
    <TTGlyph name="A" xMin="0" yMin="0" xMax="600" yMax="650">
      <contour>
        <pt x="355" y="271" on="1"/>
        <pt x="345" y="316" on="1"/>
        <pt x="334" y="363" on="0"/>
        <pt x="310" y="473" on="0"/>
        <pt x="298" y="522" on="1"/>
        <pt x="294" y="522" on="1"/>
        <pt x="283" y="472" on="0"/>
        <pt x="260" y="363" on="0"/>
        <pt x="249" y="316" on="1"/>
        <pt x="239" y="271" on="1"/>
      </contour>
      <contour>
        <pt x="386" y="138" on="1"/>
        <pt x="208" y="138" on="1"/>
        <pt x="176" y="0" on="1"/>
        <pt x="0" y="0" on="1"/>
        <pt x="196" y="650" on="1"/>
        <pt x="404" y="650" on="1"/>
        <pt x="600" y="0" on="1"/>
        <pt x="418" y="0" on="1"/>
      </contour>
    </TTGlyph>
    <TTGlyph name="AE" xMin="-4" yMin="0" xMax="596" yMax="650">
      <contour>
        <pt x="309" y="265" on="1"/>
        <pt x="309" y="522" on="1"/>
        <pt x="306" y="522" on="1"/>
        <pt x="295" y="475" on="0"/>
        <pt x="273" y="387" on="0"/>
        <pt x="264" y="348" on="1"/>
        <pt x="242" y="265" on="1"/>
      </contour>
      <contour>
        <pt x="596" y="144" on="1"/>
        <pt x="596" y="0" on="1"/>
        <pt x="309" y="0" on="1"/>
        <pt x="309" y="132" on="1"/>
        <pt x="207" y="132" on="1"/>
        <pt x="172" y="0" on="1"/>
        <pt x="-4" y="0" on="1"/>
        <pt x="186" y="650" on="1"/>
        <pt x="588" y="650" on="1"/>
        <pt x="588" y="506" on="1"/>
        <pt x="460" y="506" on="1"/>
        <pt x="460" y="406" on="1"/>
        <pt x="567" y="406" on="1"/>
        <pt x="567" y="262" on="1"/>
        <pt x="460" y="262" on="1"/>
        <pt x="460" y="144" on="1"/>
      </contour>
    </TTGlyph>
    <TTGlyph name="Aacute" xMin="0" yMin="0" xMax="600" yMax="824">
      <component glyphName="A" x="0" y="0" flags="0x204"/>
      <component glyphName="uni0301.cap" x="0" y="0" flags="0x4"/>
    </TTGlyph>
    <TTGlyph name="Abreve" xMin="0" yMin="0" xMax="600" yMax="824">
      <component glyphName="A" x="0" y="0" flags="0x204"/>
      <component glyphName="uni0306.cap" x="0" y="0" flags="0x4"/>
    </TTGlyph>
    <TTGlyph name="Acircumflex" xMin="0" yMin="0" xMax="600" yMax="824">
      <component glyphName="A" x="0" y="0" flags="0x204"/>
      <component glyphName="uni0302.cap" x="0" y="0" flags="0x4"/>
    </TTGlyph>
    <TTGlyph name="Adieresis" xMin="0" yMin="0" xMax="600" yMax="850">
      <component glyphName="A" x="0" y="0" flags="0x204"/>
      <component glyphName="uni0308.cap" x="0" y="0" flags="0x4"/>
    </TTGlyph>
    <TTGlyph name="Agrave" xMin="0" yMin="0" xMax="600" yMax="824">
      <component glyphName="A" x="0" y="0" flags="0x204"/>
      <component glyphName="uni0300.cap" x="0" y="0" flags="0x4"/>
    </TTGlyph>
    <TTGlyph name="Amacron" xMin="0" yMin="0" xMax="600" yMax="824">
      <component glyphName="A" x="0" y="0" flags="0x204"/>
      <component glyphName="uni0304.cap" x="0" y="0" flags="0x4"/>
    </TTGlyph>
    <TTGlyph name="Aogonek" xMin="0" yMin="-228" xMax="618" yMax="650">
      <contour>
        <pt x="355" y="271" on="1"/>
        <pt x="345" y="316" on="1"/>
        <pt x="334" y="363" on="0"/>
        <pt x="310" y="473" on="0"/>
        <pt x="298" y="522" on="1"/>
        <pt x="294" y="522" on="1"/>
        <pt x="283" y="472" on="0"/>
        <pt x="260" y="363" on="0"/>
        <pt x="249" y="316" on="1"/>
        <pt x="239" y="271" on="1"/>
      </contour>
      <contour>
        <pt x="618" y="-190" on="1"/>
        <pt x="597" y="-207" on="0"/>
        <pt x="533" y="-228" on="0"/>
        <pt x="504" y="-228" on="1"/>
        <pt x="453" y="-228" on="0"/>
        <pt x="382" y="-177" on="0"/>
        <pt x="382" y="-130" on="1"/>
        <pt x="382" y="-106" on="0"/>
        <pt x="399" y="-64" on="0"/>
        <pt x="425" y="-30" on="0"/>
        <pt x="454" y="-6" on="0"/>
        <pt x="466" y="0" on="1"/>
        <pt x="418" y="0" on="1"/>
        <pt x="386" y="138" on="1"/>
        <pt x="208" y="138" on="1"/>
        <pt x="176" y="0" on="1"/>
        <pt x="0" y="0" on="1"/>
        <pt x="196" y="650" on="1"/>
        <pt x="404" y="650" on="1"/>
        <pt x="600" y="0" on="1"/>
        <pt x="578" y="0" on="0"/>
        <pt x="543" y="-15" on="0"/>
        <pt x="519" y="-39" on="0"/>
        <pt x="506" y="-69" on="0"/>
        <pt x="506" y="-84" on="1"/>
        <pt x="506" y="-101" on="0"/>
        <pt x="527" y="-118" on="0"/>
        <pt x="542" y="-118" on="1"/>
        <pt x="553" y="-118" on="0"/>
        <pt x="573" y="-109" on="0"/>
        <pt x="580" y="-104" on="1"/>
      </contour>
    </TTGlyph>
    <TTGlyph name="Aring" xMin="0" yMin="0" xMax="600" yMax="900">
      <component glyphName="A" x="0" y="0" flags="0x204"/>
      <component glyphName="uni030A.cap" x="0" y="0" flags="0x4"/>
    </TTGlyph>
    <TTGlyph name="Atilde" xMin="0" yMin="0" xMax="600" yMax="846">
      <component glyphName="A" x="0" y="0" flags="0x204"/>
      <component glyphName="uni0303.cap" x="0" y="0" flags="0x4"/>
    </TTGlyph>
    <TTGlyph name="B" xMin="76" yMin="0" xMax="562" yMax="650">
      <contour>
        <pt x="76" y="650" on="1"/>
        <pt x="290" y="650" on="1"/>
        <pt x="341" y="650" on="0"/>
        <pt x="430" y="635" on="0"/>
        <pt x="496" y="599" on="0"/>
        <pt x="534" y="536" on="0"/>
        <pt x="534" y="488" on="1"/>
        <pt x="534" y="467" on="0"/>
        <pt x="521" y="424" on="0"/>
        <pt x="494" y="385" on="0"/>
        <pt x="452" y="355" on="0"/>
        <pt x="424" y="348" on="1"/>
        <pt x="424" y="344" on="1"/>
        <pt x="493" y="330" on="0"/>
        <pt x="562" y="257" on="0"/>
        <pt x="562" y="192" on="1"/>
        <pt x="562" y="142" on="0"/>
        <pt x="523" y="69" on="0"/>
        <pt x="454" y="22" on="0"/>
        <pt x="362" y="0" on="0"/>
        <pt x="310" y="0" on="1"/>
        <pt x="76" y="0" on="1"/>
      </contour>
      <contour>
        <pt x="286" y="394" on="1"/>
        <pt x="328" y="394" on="0"/>
        <pt x="366" y="432" on="0"/>
        <pt x="366" y="462" on="1"/>
        <pt x="366" y="492" on="0"/>
        <pt x="328" y="518" on="0"/>
        <pt x="286" y="518" on="1"/>
        <pt x="248" y="518" on="1"/>
        <pt x="248" y="394" on="1"/>
      </contour>
      <contour>
        <pt x="298" y="132" on="1"/>
        <pt x="349" y="132" on="0"/>
        <pt x="394" y="170" on="0"/>
        <pt x="394" y="206" on="1"/>
        <pt x="394" y="242" on="0"/>
        <pt x="349" y="274" on="0"/>
        <pt x="298" y="274" on="1"/>
        <pt x="248" y="274" on="1"/>
        <pt x="248" y="132" on="1"/>
      </contour>
    </TTGlyph>
    <TTGlyph name="C" xMin="51" yMin="-12" xMax="575" yMax="662">
      <contour>
        <pt x="51" y="320" on="1"/>
        <pt x="51" y="402" on="0"/>
        <pt x="101" y="529" on="0"/>
        <pt x="187" y="616" on="0"/>
        <pt x="303" y="662" on="0"/>
        <pt x="369" y="662" on="1"/>
        <pt x="432" y="662" on="0"/>
        <pt x="532" y="611" on="0"/>
        <pt x="567" y="578" on="1"/>
        <pt x="473" y="472" on="1"/>
        <pt x="450" y="492" on="0"/>
        <pt x="402" y="514" on="0"/>
        <pt x="369" y="514" on="1"/>
        <pt x="339" y="514" on="0"/>
        <pt x="287" y="488" on="0"/>
        <pt x="249" y="440" on="0"/>
        <pt x="227" y="370" on="0"/>
        <pt x="227" y="326" on="1"/>
        <pt x="227" y="234" on="0"/>
        <pt x="311" y="136" on="0"/>
        <pt x="377" y="136" on="1"/>
        <pt x="409" y="136" on="0"/>
        <pt x="460" y="165" on="0"/>
        <pt x="481" y="188" on="1"/>
        <pt x="575" y="84" on="1"/>
        <pt x="533" y="36" on="0"/>
        <pt x="427" y="-12" on="0"/>
        <pt x="367" y="-12" on="1"/>
        <pt x="303" y="-12" on="0"/>
        <pt x="189" y="29" on="0"/>
        <pt x="102" y="112" on="0"/>
        <pt x="51" y="237" on="0"/>
      </contour>
    </TTGlyph>
    <TTGlyph name="Cacute" xMin="51" yMin="-12" xMax="575" yMax="824">
      <component glyphName="C" x="0" y="0" flags="0x204"/>
      <component glyphName="uni0301.cap" x="56" y="0" flags="0x4"/>
    </TTGlyph>
    <TTGlyph name="Ccaron" xMin="51" yMin="-12" xMax="575" yMax="824">
      <component glyphName="C" x="0" y="0" flags="0x204"/>
      <component glyphName="uni030C.cap" x="56" y="0" flags="0x4"/>
    </TTGlyph>
    <TTGlyph name="Ccedilla" xMin="51" yMin="-224" xMax="575" yMax="662">
      <component glyphName="C" x="0" y="0" flags="0x204"/>
      <component glyphName="uni0327.cap" x="48" y="0" flags="0x4"/>
    </TTGlyph>
    <TTGlyph name="Ccircumflex" xMin="51" yMin="-12" xMax="575" yMax="824">
      <component glyphName="C" x="0" y="0" flags="0x204"/>
      <component glyphName="uni0302.cap" x="56" y="0" flags="0x4"/>
    </TTGlyph>
    <TTGlyph name="Cdotaccent" xMin="51" yMin="-12" xMax="575" yMax="868">
      <component glyphName="C" x="0" y="0" flags="0x204"/>
      <component glyphName="uni0307.cap" x="56" y="0" flags="0x4"/>
    </TTGlyph>
    <TTGlyph name="D" xMin="58" yMin="0" xMax="558" yMax="650">
      <contour>
        <pt x="58" y="650" on="1"/>
        <pt x="241" y="650" on="1"/>
        <pt x="311" y="650" on="0"/>
        <pt x="427" y="614" on="0"/>
        <pt x="511" y="536" on="0"/>
        <pt x="558" y="414" on="0"/>
        <pt x="558" y="328" on="1"/>
        <pt x="558" y="242" on="0"/>
        <pt x="512" y="118" on="0"/>
        <pt x="429" y="38" on="0"/>
        <pt x="317" y="0" on="0"/>
        <pt x="251" y="0" on="1"/>
        <pt x="58" y="0" on="1"/>
      </contour>
      <contour>
        <pt x="232" y="138" on="1"/>
        <pt x="263" y="138" on="0"/>
        <pt x="318" y="155" on="0"/>
        <pt x="358" y="197" on="0"/>
        <pt x="382" y="271" on="0"/>
        <pt x="382" y="328" on="1"/>
        <pt x="382" y="385" on="0"/>
        <pt x="358" y="457" on="0"/>
        <pt x="318" y="497" on="0"/>
        <pt x="263" y="512" on="0"/>
        <pt x="232" y="512" on="1"/>
        <pt x="230" y="512" on="1"/>
        <pt x="230" y="138" on="1"/>
      </contour>
    </TTGlyph>
    <TTGlyph name="Dcaron" xMin="58" yMin="0" xMax="558" yMax="824">
      <component glyphName="D" x="0" y="0" flags="0x204"/>
      <component glyphName="uni030C.cap" x="-3" y="0" flags="0x4"/>
    </TTGlyph>
    <TTGlyph name="Dcroat" xMin="-4" yMin="0" xMax="564" yMax="650">
      <component glyphName="Eth" x="0" y="0" flags="0x204"/>
    </TTGlyph>
    <TTGlyph name="E" xMin="86" yMin="0" xMax="536" yMax="650">
      <contour>
        <pt x="86" y="650" on="1"/>
        <pt x="526" y="650" on="1"/>
        <pt x="526" y="506" on="1"/>
        <pt x="258" y="506" on="1"/>
        <pt x="258" y="404" on="1"/>
        <pt x="486" y="404" on="1"/>
        <pt x="486" y="260" on="1"/>
        <pt x="258" y="260" on="1"/>
        <pt x="258" y="144" on="1"/>
        <pt x="536" y="144" on="1"/>
        <pt x="536" y="0" on="1"/>
        <pt x="86" y="0" on="1"/>
      </contour>
    </TTGlyph>
    <TTGlyph name="Eacute" xMin="86" yMin="0" xMax="536" yMax="824">
      <component glyphName="E" x="0" y="0" flags="0x204"/>
      <component glyphName="uni0301.cap" x="18" y="0" flags="0x4"/>
    </TTGlyph>
    <TTGlyph name="Ebreve" xMin="86" yMin="0" xMax="536" yMax="824">
      <component glyphName="E" x="0" y="0" flags="0x204"/>
      <component glyphName="uni0306.cap" x="18" y="0" flags="0x4"/>
    </TTGlyph>
    <TTGlyph name="Ecaron" xMin="86" yMin="0" xMax="536" yMax="824">
      <component glyphName="E" x="0" y="0" flags="0x204"/>
      <component glyphName="uni030C.cap" x="18" y="0" flags="0x4"/>
    </TTGlyph>
    <TTGlyph name="Ecircumflex" xMin="86" yMin="0" xMax="536" yMax="824">
      <component glyphName="E" x="0" y="0" flags="0x204"/>
      <component glyphName="uni0302.cap" x="18" y="0" flags="0x4"/>
    </TTGlyph>
    <TTGlyph name="Edieresis" xMin="86" yMin="0" xMax="536" yMax="850">
      <component glyphName="E" x="0" y="0" flags="0x204"/>
      <component glyphName="uni0308.cap" x="18" y="0" flags="0x4"/>
    </TTGlyph>
    <TTGlyph name="Edotaccent" xMin="86" yMin="0" xMax="536" yMax="868">
      <component glyphName="E" x="0" y="0" flags="0x204"/>
      <component glyphName="uni0307.cap" x="18" y="0" flags="0x4"/>
    </TTGlyph>
    <TTGlyph name="Egrave" xMin="86" yMin="0" xMax="536" yMax="824">
      <component glyphName="E" x="0" y="0" flags="0x204"/>
      <component glyphName="uni0300.cap" x="18" y="0" flags="0x4"/>
    </TTGlyph>
    <TTGlyph name="Emacron" xMin="86" yMin="0" xMax="536" yMax="824">
      <component glyphName="E" x="0" y="0" flags="0x204"/>
      <component glyphName="uni0304.cap" x="18" y="0" flags="0x4"/>
    </TTGlyph>
    <TTGlyph name="Eogonek" xMin="86" yMin="-228" xMax="558" yMax="650">
      <contour>
        <pt x="86" y="650" on="1"/>
        <pt x="526" y="650" on="1"/>
        <pt x="526" y="506" on="1"/>
        <pt x="258" y="506" on="1"/>
        <pt x="258" y="404" on="1"/>
        <pt x="486" y="404" on="1"/>
        <pt x="486" y="260" on="1"/>
        <pt x="258" y="260" on="1"/>
        <pt x="258" y="144" on="1"/>
        <pt x="536" y="144" on="1"/>
        <pt x="536" y="0" on="1"/>
        <pt x="530" y="0" on="1"/>
        <pt x="513" y="0" on="0"/>
        <pt x="482" y="-15" on="0"/>
        <pt x="459" y="-39" on="0"/>
        <pt x="446" y="-69" on="0"/>
        <pt x="446" y="-84" on="1"/>
        <pt x="446" y="-102" on="0"/>
        <pt x="471" y="-118" on="0"/>
        <pt x="486" y="-118" on="1"/>
        <pt x="495" y="-118" on="0"/>
        <pt x="513" y="-109" on="0"/>
        <pt x="520" y="-104" on="1"/>
        <pt x="558" y="-190" on="1"/>
        <pt x="537" y="-207" on="0"/>
        <pt x="473" y="-228" on="0"/>
        <pt x="444" y="-228" on="1"/>
        <pt x="393" y="-228" on="0"/>
        <pt x="322" y="-177" on="0"/>
        <pt x="322" y="-130" on="1"/>
        <pt x="322" y="-106" on="0"/>
        <pt x="338" y="-65" on="0"/>
        <pt x="362" y="-32" on="0"/>
        <pt x="390" y="-8" on="0"/>
        <pt x="402" y="0" on="1"/>
        <pt x="86" y="0" on="1"/>
      </contour>
    </TTGlyph>
    <TTGlyph name="Eth" xMin="-4" yMin="0" xMax="564" yMax="650">
      <contour>
        <pt x="64" y="294" on="1"/>
        <pt x="-4" y="294" on="1"/>
        <pt x="-4" y="368" on="1"/>
        <pt x="64" y="374" on="1"/>
        <pt x="64" y="650" on="1"/>
        <pt x="248" y="650" on="1"/>
        <pt x="317" y="650" on="0"/>
        <pt x="433" y="614" on="0"/>
        <pt x="517" y="536" on="0"/>
        <pt x="564" y="414" on="0"/>
        <pt x="564" y="328" on="1"/>
        <pt x="564" y="242" on="0"/>
        <pt x="517" y="118" on="0"/>
        <pt x="435" y="38" on="0"/>
        <pt x="323" y="0" on="0"/>
        <pt x="258" y="0" on="1"/>
        <pt x="64" y="0" on="1"/>
      </contour>
      <contour>
        <pt x="238" y="138" on="1"/>
        <pt x="269" y="138" on="0"/>
        <pt x="323" y="155" on="0"/>
        <pt x="364" y="197" on="0"/>
        <pt x="388" y="271" on="0"/>
        <pt x="388" y="328" on="1"/>
        <pt x="388" y="385" on="0"/>
        <pt x="364" y="457" on="0"/>
        <pt x="323" y="497" on="0"/>
        <pt x="269" y="512" on="0"/>
        <pt x="238" y="512" on="1"/>
        <pt x="236" y="512" on="1"/>
        <pt x="236" y="374" on="1"/>
        <pt x="330" y="374" on="1"/>
        <pt x="330" y="294" on="1"/>
        <pt x="236" y="294" on="1"/>
        <pt x="236" y="138" on="1"/>
      </contour>
    </TTGlyph>
    <TTGlyph name="Euro" xMin="40" yMin="-12" xMax="590" yMax="646">
      <contour>
        <pt x="590" y="80" on="1"/>
        <pt x="548" y="35" on="0"/>
        <pt x="444" y="-12" on="0"/>
        <pt x="384" y="-12" on="1"/>
        <pt x="333" y="-12" on="0"/>
        <pt x="242" y="16" on="0"/>
        <pt x="169" y="71" on="0"/>
        <pt x="116" y="153" on="0"/>
        <pt x="103" y="208" on="1"/>
        <pt x="40" y="208" on="1"/>
        <pt x="40" y="286" on="1"/>
        <pt x="92" y="290" on="1"/>
        <pt x="92" y="312" on="1"/>
        <pt x="92" y="318" on="0"/>
        <pt x="92" y="330" on="0"/>
        <pt x="93" y="336" on="1"/>
        <pt x="40" y="336" on="1"/>
        <pt x="40" y="414" on="1"/>
        <pt x="104" y="419" on="1"/>
        <pt x="117" y="474" on="0"/>
        <pt x="171" y="558" on="0"/>
        <pt x="246" y="616" on="0"/>
        <pt x="340" y="646" on="0"/>
        <pt x="394" y="646" on="1"/>
        <pt x="445" y="646" on="0"/>
        <pt x="543" y="607" on="0"/>
        <pt x="582" y="568" on="1"/>
        <pt x="488" y="476" on="1"/>
        <pt x="465" y="493" on="0"/>
        <pt x="418" y="514" on="0"/>
        <pt x="388" y="514" on="1"/>
        <pt x="305" y="514" on="0"/>
        <pt x="277" y="420" on="1"/>
        <pt x="512" y="420" on="1"/>
        <pt x="512" y="336" on="1"/>
        <pt x="264" y="336" on="1"/>
        <pt x="264" y="318" on="1"/>
        <pt x="264" y="311" on="0"/>
        <pt x="264" y="298" on="0"/>
        <pt x="265" y="292" on="1"/>
        <pt x="472" y="292" on="1"/>
        <pt x="472" y="208" on="1"/>
        <pt x="280" y="208" on="1"/>
        <pt x="312" y="120" on="0"/>
        <pt x="394" y="120" on="1"/>
        <pt x="426" y="120" on="0"/>
        <pt x="475" y="145" on="0"/>
        <pt x="496" y="168" on="1"/>
      </contour>
    </TTGlyph>
    <TTGlyph name="F" xMin="98" yMin="0" xMax="539" yMax="650">
      <contour>
        <pt x="98" y="650" on="1"/>
        <pt x="539" y="650" on="1"/>
        <pt x="539" y="506" on="1"/>
        <pt x="270" y="506" on="1"/>
        <pt x="270" y="382" on="1"/>
        <pt x="500" y="382" on="1"/>
        <pt x="500" y="238" on="1"/>
        <pt x="270" y="238" on="1"/>
        <pt x="270" y="0" on="1"/>
        <pt x="98" y="0" on="1"/>
      </contour>
    </TTGlyph>
    <TTGlyph name="G" xMin="40" yMin="-12" xMax="552" yMax="662">
      <contour>
        <pt x="40" y="320" on="1"/>
        <pt x="40" y="402" on="0"/>
        <pt x="88" y="530" on="0"/>
        <pt x="171" y="617" on="0"/>
        <pt x="283" y="662" on="0"/>
        <pt x="346" y="662" on="1"/>
        <pt x="412" y="662" on="0"/>
        <pt x="508" y="611" on="0"/>
        <pt x="540" y="578" on="1"/>
        <pt x="446" y="472" on="1"/>
        <pt x="426" y="492" on="0"/>
        <pt x="381" y="514" on="0"/>
        <pt x="346" y="514" on="1"/>
        <pt x="319" y="514" on="0"/>
        <pt x="272" y="488" on="0"/>
        <pt x="237" y="440" on="0"/>
        <pt x="217" y="370" on="0"/>
        <pt x="217" y="326" on="1"/>
        <pt x="217" y="234" on="0"/>
        <pt x="285" y="136" on="0"/>
        <pt x="355" y="136" on="1"/>
        <pt x="367" y="136" on="0"/>
        <pt x="391" y="142" on="0"/>
        <pt x="399" y="148" on="1"/>
        <pt x="399" y="238" on="1"/>
        <pt x="318" y="238" on="1"/>
        <pt x="318" y="378" on="1"/>
        <pt x="552" y="378" on="1"/>
        <pt x="552" y="68" on="1"/>
        <pt x="535" y="53" on="0"/>
        <pt x="490" y="24" on="0"/>
        <pt x="436" y="2" on="0"/>
        <pt x="376" y="-12" on="0"/>
        <pt x="345" y="-12" on="1"/>
        <pt x="282" y="-12" on="0"/>
        <pt x="171" y="29" on="0"/>
        <pt x="88" y="112" on="0"/>
        <pt x="40" y="237" on="0"/>
      </contour>
    </TTGlyph>
    <TTGlyph name="Gbreve" xMin="40" yMin="-12" xMax="552" yMax="824">
      <component glyphName="G" x="0" y="0" flags="0x204"/>
      <component glyphName="uni0306.cap" x="30" y="0" flags="0x4"/>
    </TTGlyph>
    <TTGlyph name="Gcaron" xMin="40" yMin="-12" xMax="552" yMax="824">
      <component glyphName="G" x="0" y="0" flags="0x204"/>
      <component glyphName="uni030C.cap" x="30" y="0" flags="0x4"/>
    </TTGlyph>
    <TTGlyph name="Gcircumflex" xMin="40" yMin="-12" xMax="552" yMax="824">
      <component glyphName="G" x="0" y="0" flags="0x204"/>
      <component glyphName="uni0302.cap" x="30" y="0" flags="0x4"/>
    </TTGlyph>
    <TTGlyph name="Gdotaccent" xMin="40" yMin="-12" xMax="552" yMax="868">
      <component glyphName="G" x="0" y="0" flags="0x204"/>
      <component glyphName="uni0307.cap" x="30" y="0" flags="0x4"/>
    </TTGlyph>
    <TTGlyph name="H" xMin="58" yMin="0" xMax="542" yMax="650">
      <contour>
        <pt x="58" y="650" on="1"/>
        <pt x="230" y="650" on="1"/>
        <pt x="230" y="408" on="1"/>
        <pt x="370" y="408" on="1"/>
        <pt x="370" y="650" on="1"/>
        <pt x="542" y="650" on="1"/>
        <pt x="542" y="0" on="1"/>
        <pt x="370" y="0" on="1"/>
        <pt x="370" y="258" on="1"/>
        <pt x="230" y="258" on="1"/>
        <pt x="230" y="0" on="1"/>
        <pt x="58" y="0" on="1"/>
      </contour>
    </TTGlyph>
    <TTGlyph name="Hbar" xMin="0" yMin="0" xMax="600" yMax="650">
      <contour>
        <pt x="370" y="484" on="1"/>
        <pt x="230" y="484" on="1"/>
        <pt x="230" y="408" on="1"/>
        <pt x="370" y="408" on="1"/>
      </contour>
      <contour>
        <pt x="600" y="484" on="1"/>
        <pt x="542" y="484" on="1"/>
        <pt x="542" y="0" on="1"/>
        <pt x="370" y="0" on="1"/>
        <pt x="370" y="258" on="1"/>
        <pt x="230" y="258" on="1"/>
        <pt x="230" y="0" on="1"/>
        <pt x="58" y="0" on="1"/>
        <pt x="58" y="484" on="1"/>
        <pt x="0" y="484" on="1"/>
        <pt x="0" y="558" on="1"/>
        <pt x="58" y="563" on="1"/>
        <pt x="58" y="650" on="1"/>
        <pt x="230" y="650" on="1"/>
        <pt x="230" y="564" on="1"/>
        <pt x="370" y="564" on="1"/>
        <pt x="370" y="650" on="1"/>
        <pt x="542" y="650" on="1"/>
        <pt x="542" y="564" on="1"/>
        <pt x="600" y="564" on="1"/>
      </contour>
    </TTGlyph>
    <TTGlyph name="Hcircumflex" xMin="58" yMin="0" xMax="542" yMax="824">
      <component glyphName="H" x="0" y="0" flags="0x204"/>
      <component glyphName="uni0302.cap" x="0" y="0" flags="0x4"/>
    </TTGlyph>
    <TTGlyph name="I" xMin="66" yMin="0" xMax="534" yMax="650">
      <contour>
        <pt x="66" y="144" on="1"/>
        <pt x="214" y="144" on="1"/>
        <pt x="214" y="506" on="1"/>
        <pt x="66" y="506" on="1"/>
        <pt x="66" y="650" on="1"/>
        <pt x="534" y="650" on="1"/>
        <pt x="534" y="506" on="1"/>
        <pt x="386" y="506" on="1"/>
        <pt x="386" y="144" on="1"/>
        <pt x="534" y="144" on="1"/>
        <pt x="534" y="0" on="1"/>
        <pt x="66" y="0" on="1"/>
      </contour>
    </TTGlyph>
    <TTGlyph name="Iacute" xMin="66" yMin="0" xMax="534" yMax="824">
      <component glyphName="I" x="0" y="0" flags="0x204"/>
      <component glyphName="uni0301.cap" x="0" y="0" flags="0x4"/>
    </TTGlyph>
    <TTGlyph name="Icircumflex" xMin="66" yMin="0" xMax="534" yMax="824">
      <component glyphName="I" x="0" y="0" flags="0x204"/>
      <component glyphName="uni0302.cap" x="0" y="0" flags="0x4"/>
    </TTGlyph>
    <TTGlyph name="Idieresis" xMin="66" yMin="0" xMax="534" yMax="850">
      <component glyphName="I" x="0" y="0" flags="0x204"/>
      <component glyphName="uni0308.cap" x="0" y="0" flags="0x4"/>
    </TTGlyph>
    <TTGlyph name="Idotaccent" xMin="66" yMin="0" xMax="534" yMax="868">
      <component glyphName="I" x="0" y="0" flags="0x204"/>
      <component glyphName="uni0307.cap" x="0" y="0" flags="0x4"/>
    </TTGlyph>
    <TTGlyph name="Igrave" xMin="66" yMin="0" xMax="534" yMax="824">
      <component glyphName="I" x="0" y="0" flags="0x204"/>
      <component glyphName="uni0300.cap" x="0" y="0" flags="0x4"/>
    </TTGlyph>
    <TTGlyph name="Imacron" xMin="66" yMin="0" xMax="534" yMax="824">
      <component glyphName="I" x="0" y="0" flags="0x204"/>
      <component glyphName="uni0304.cap" x="0" y="0" flags="0x4"/>
    </TTGlyph>
    <TTGlyph name="Iogonek" xMin="66" yMin="-228" xMax="534" yMax="650">
      <contour>
        <pt x="66" y="144" on="1"/>
        <pt x="214" y="144" on="1"/>
        <pt x="214" y="506" on="1"/>
        <pt x="66" y="506" on="1"/>
        <pt x="66" y="650" on="1"/>
        <pt x="534" y="650" on="1"/>
        <pt x="534" y="506" on="1"/>
        <pt x="386" y="506" on="1"/>
        <pt x="386" y="144" on="1"/>
        <pt x="534" y="144" on="1"/>
        <pt x="534" y="0" on="1"/>
        <pt x="386" y="0" on="1"/>
        <pt x="342" y="-14" on="0"/>
        <pt x="308" y="-60" on="0"/>
        <pt x="308" y="-84" on="1"/>
        <pt x="308" y="-102" on="0"/>
        <pt x="333" y="-118" on="0"/>
        <pt x="347" y="-118" on="1"/>
        <pt x="357" y="-118" on="0"/>
        <pt x="376" y="-109" on="0"/>
        <pt x="382" y="-104" on="1"/>
        <pt x="420" y="-190" on="1"/>
        <pt x="399" y="-207" on="0"/>
        <pt x="335" y="-228" on="0"/>
        <pt x="306" y="-228" on="1"/>
        <pt x="255" y="-228" on="0"/>
        <pt x="184" y="-177" on="0"/>
        <pt x="184" y="-130" on="1"/>
        <pt x="184" y="-105" on="0"/>
        <pt x="200" y="-64" on="0"/>
        <pt x="224" y="-31" on="0"/>
        <pt x="250" y="-7" on="0"/>
        <pt x="261" y="0" on="1"/>
        <pt x="66" y="0" on="1"/>
      </contour>
    </TTGlyph>
    <TTGlyph name="Itilde" xMin="66" yMin="0" xMax="534" yMax="846">
      <component glyphName="I" x="0" y="0" flags="0x204"/>
      <component glyphName="uni0303.cap" x="0" y="0" flags="0x4"/>
    </TTGlyph>
    <TTGlyph name="J" xMin="51" yMin="-12" xMax="525" yMax="650">
      <contour>
        <pt x="148" y="202" on="1"/>
        <pt x="176" y="170" on="0"/>
        <pt x="236" y="136" on="0"/>
        <pt x="266" y="136" on="1"/>
        <pt x="287" y="136" on="0"/>
        <pt x="319" y="145" on="0"/>
        <pt x="342" y="169" on="0"/>
        <pt x="353" y="209" on="0"/>
        <pt x="353" y="240" on="1"/>
        <pt x="353" y="506" on="1"/>
        <pt x="106" y="506" on="1"/>
        <pt x="106" y="650" on="1"/>
        <pt x="525" y="650" on="1"/>
        <pt x="525" y="226" on="1"/>
        <pt x="525" y="177" on="0"/>
        <pt x="499" y="91" on="0"/>
        <pt x="439" y="26" on="0"/>
        <pt x="342" y="-12" on="0"/>
        <pt x="272" y="-12" on="1"/>
        <pt x="245" y="-12" on="0"/>
        <pt x="186" y="-1" on="0"/>
        <pt x="128" y="24" on="0"/>
        <pt x="74" y="65" on="0"/>
        <pt x="51" y="95" on="1"/>
      </contour>
    </TTGlyph>
    <TTGlyph name="Jcircumflex" xMin="51" yMin="-12" xMax="525" yMax="824">
      <component glyphName="J" x="0" y="0" flags="0x204"/>
      <component glyphName="uni0302.cap" x="22" y="0" flags="0x4"/>
    </TTGlyph>
    <TTGlyph name="K" xMin="57" yMin="0" xMax="599" yMax="650">
      <contour>
        <pt x="57" y="650" on="1"/>
        <pt x="230" y="650" on="1"/>
        <pt x="230" y="408" on="1"/>
        <pt x="234" y="408" on="1"/>
        <pt x="394" y="650" on="1"/>
        <pt x="583" y="650" on="1"/>
        <pt x="392" y="386" on="1"/>
        <pt x="599" y="0" on="1"/>
        <pt x="410" y="0" on="1"/>
        <pt x="292" y="250" on="1"/>
        <pt x="230" y="162" on="1"/>
        <pt x="230" y="0" on="1"/>
        <pt x="57" y="0" on="1"/>
      </contour>
    </TTGlyph>
    <TTGlyph name="L" xMin="96" yMin="0" xMax="545" yMax="650">
      <contour>
        <pt x="96" y="650" on="1"/>
        <pt x="268" y="650" on="1"/>
        <pt x="268" y="144" on="1"/>
        <pt x="545" y="144" on="1"/>
        <pt x="545" y="0" on="1"/>
        <pt x="96" y="0" on="1"/>
      </contour>
    </TTGlyph>
    <TTGlyph name="Lacute" xMin="96" yMin="0" xMax="545" yMax="824">
      <component glyphName="L" x="0" y="0" flags="0x204"/>
      <component glyphName="uni0301.cap" x="-102" y="0" flags="0x4"/>
    </TTGlyph>
    <TTGlyph name="Lcaron" xMin="96" yMin="0" xMax="545" yMax="735">
      <component glyphName="L" x="0" y="0" flags="0x204"/>
      <component glyphName="uni030C.a" x="130" y="-39" flags="0x4"/>
    </TTGlyph>
    <TTGlyph name="Ldot" xMin="96" yMin="0" xMax="572" yMax="650">
      <component glyphName="L" x="0" y="0" flags="0x204"/>
      <component glyphName="uni0307" x="162" y="-305" flags="0x4"/>
    </TTGlyph>
    <TTGlyph name="Lslash" xMin="25" yMin="0" xMax="545" yMax="650">
      <contour>
        <pt x="545" y="144" on="1"/>
        <pt x="545" y="0" on="1"/>
        <pt x="96" y="0" on="1"/>
        <pt x="96" y="187" on="1"/>
        <pt x="25" y="146" on="1"/>
        <pt x="25" y="278" on="1"/>
        <pt x="96" y="319" on="1"/>
        <pt x="96" y="650" on="1"/>
        <pt x="268" y="650" on="1"/>
        <pt x="268" y="403" on="1"/>
        <pt x="467" y="514" on="1"/>
        <pt x="467" y="382" on="1"/>
        <pt x="268" y="271" on="1"/>
        <pt x="268" y="144" on="1"/>
      </contour>
    </TTGlyph>
    <TTGlyph name="M" xMin="58" yMin="0" xMax="542" yMax="650">
      <contour>
        <pt x="58" y="650" on="1"/>
        <pt x="227" y="650" on="1"/>
        <pt x="282" y="438" on="1"/>
        <pt x="300" y="354" on="1"/>
        <pt x="303" y="354" on="1"/>
        <pt x="321" y="438" on="1"/>
        <pt x="373" y="650" on="1"/>
        <pt x="542" y="650" on="1"/>
        <pt x="542" y="0" on="1"/>
        <pt x="404" y="0" on="1"/>
        <pt x="404" y="153" on="1"/>
        <pt x="404" y="182" on="0"/>
        <pt x="409" y="271" on="0"/>
        <pt x="415" y="366" on="0"/>
        <pt x="423" y="454" on="0"/>
        <pt x="426" y="483" on="1"/>
        <pt x="423" y="483" on="1"/>
        <pt x="369" y="290" on="1"/>
        <pt x="335" y="173" on="1"/>
        <pt x="261" y="173" on="1"/>
        <pt x="227" y="290" on="1"/>
        <pt x="176" y="483" on="1"/>
        <pt x="172" y="483" on="1"/>
        <pt x="175" y="454" on="0"/>
        <pt x="183" y="366" on="0"/>
        <pt x="189" y="271" on="0"/>
        <pt x="194" y="182" on="0"/>
        <pt x="194" y="153" on="1"/>
        <pt x="194" y="0" on="1"/>
        <pt x="58" y="0" on="1"/>
      </contour>
    </TTGlyph>
    <TTGlyph name="N" xMin="60" yMin="0" xMax="540" yMax="650">
      <contour>
        <pt x="60" y="650" on="1"/>
        <pt x="234" y="650" on="1"/>
        <pt x="343" y="360" on="1"/>
        <pt x="396" y="214" on="1"/>
        <pt x="400" y="214" on="1"/>
        <pt x="397" y="240" on="0"/>
        <pt x="389" y="302" on="0"/>
        <pt x="381" y="367" on="0"/>
        <pt x="376" y="432" on="0"/>
        <pt x="376" y="462" on="1"/>
        <pt x="376" y="650" on="1"/>
        <pt x="540" y="650" on="1"/>
        <pt x="540" y="0" on="1"/>
        <pt x="366" y="0" on="1"/>
        <pt x="257" y="291" on="1"/>
        <pt x="204" y="436" on="1"/>
        <pt x="200" y="436" on="1"/>
        <pt x="206" y="380" on="0"/>
        <pt x="224" y="248" on="0"/>
        <pt x="224" y="188" on="1"/>
        <pt x="224" y="0" on="1"/>
        <pt x="60" y="0" on="1"/>
      </contour>
    </TTGlyph>
    <TTGlyph name="Nacute" xMin="60" yMin="0" xMax="540" yMax="824">
      <component glyphName="N" x="0" y="0" flags="0x204"/>
      <component glyphName="uni0301.cap" x="6" y="0" flags="0x4"/>
    </TTGlyph>
    <TTGlyph name="Ncaron" xMin="60" yMin="0" xMax="540" yMax="824">
      <component glyphName="N" x="0" y="0" flags="0x204"/>
      <component glyphName="uni030C.cap" x="6" y="0" flags="0x4"/>
    </TTGlyph>
    <TTGlyph name="Ntilde" xMin="60" yMin="0" xMax="540" yMax="846">
      <component glyphName="N" x="0" y="0" flags="0x204"/>
      <component glyphName="uni0303.cap" x="6" y="0" flags="0x4"/>
    </TTGlyph>
    <TTGlyph name="O" xMin="34" yMin="-12" xMax="566" yMax="662">
      <contour>
        <pt x="300" y="-12" on="1"/>
        <pt x="241" y="-12" on="0"/>
        <pt x="143" y="34" on="0"/>
        <pt x="73" y="121" on="0"/>
        <pt x="34" y="248" on="0"/>
        <pt x="34" y="328" on="1"/>
        <pt x="34" y="408" on="0"/>
        <pt x="73" y="533" on="0"/>
        <pt x="143" y="618" on="0"/>
        <pt x="241" y="662" on="0"/>
        <pt x="300" y="662" on="1"/>
        <pt x="359" y="662" on="0"/>
        <pt x="457" y="618" on="0"/>
        <pt x="527" y="532" on="0"/>
        <pt x="566" y="408" on="0"/>
        <pt x="566" y="328" on="1"/>
        <pt x="566" y="248" on="0"/>
        <pt x="527" y="121" on="0"/>
        <pt x="457" y="34" on="0"/>
        <pt x="359" y="-12" on="0"/>
      </contour>
      <contour>
        <pt x="300" y="136" on="1"/>
        <pt x="342" y="136" on="0"/>
        <pt x="390" y="239" on="0"/>
        <pt x="390" y="328" on="1"/>
        <pt x="390" y="417" on="0"/>
        <pt x="342" y="514" on="0"/>
        <pt x="300" y="514" on="1"/>
        <pt x="258" y="514" on="0"/>
        <pt x="210" y="417" on="0"/>
        <pt x="210" y="328" on="1"/>
        <pt x="210" y="239" on="0"/>
        <pt x="258" y="136" on="0"/>
      </contour>
    </TTGlyph>
    <TTGlyph name="OE" xMin="14" yMin="0" xMax="596" yMax="650">
      <contour>
        <pt x="14" y="328" on="1"/>
        <pt x="14" y="414" on="0"/>
        <pt x="58" y="536" on="0"/>
        <pt x="133" y="614" on="0"/>
        <pt x="235" y="650" on="0"/>
        <pt x="294" y="650" on="1"/>
        <pt x="586" y="650" on="1"/>
        <pt x="586" y="506" on="1"/>
        <pt x="440" y="506" on="1"/>
        <pt x="440" y="404" on="1"/>
        <pt x="550" y="404" on="1"/>
        <pt x="550" y="260" on="1"/>
        <pt x="440" y="260" on="1"/>
        <pt x="440" y="144" on="1"/>
        <pt x="596" y="144" on="1"/>
        <pt x="596" y="0" on="1"/>
        <pt x="284" y="0" on="1"/>
        <pt x="227" y="0" on="0"/>
        <pt x="129" y="38" on="0"/>
        <pt x="56" y="118" on="0"/>
        <pt x="14" y="242" on="0"/>
      </contour>
      <contour>
        <pt x="190" y="328" on="1"/>
        <pt x="190" y="270" on="0"/>
        <pt x="203" y="196" on="0"/>
        <pt x="226" y="154" on="0"/>
        <pt x="256" y="138" on="0"/>
        <pt x="274" y="138" on="1"/>
        <pt x="288" y="138" on="1"/>
        <pt x="288" y="512" on="1"/>
        <pt x="274" y="512" on="1"/>
        <pt x="256" y="512" on="0"/>
        <pt x="226" y="498" on="0"/>
        <pt x="203" y="458" on="0"/>
        <pt x="190" y="386" on="0"/>
      </contour>
    </TTGlyph>
    <TTGlyph name="Oacute" xMin="34" yMin="-12" xMax="566" yMax="824">
      <component glyphName="O" x="0" y="0" flags="0x204"/>
      <component glyphName="uni0301.cap" x="0" y="0" flags="0x4"/>
    </TTGlyph>
    <TTGlyph name="Ocircumflex" xMin="34" yMin="-12" xMax="566" yMax="824">
      <component glyphName="O" x="0" y="0" flags="0x204"/>
      <component glyphName="uni0302.cap" x="0" y="0" flags="0x4"/>
    </TTGlyph>
    <TTGlyph name="Odieresis" xMin="34" yMin="-12" xMax="566" yMax="850">
      <component glyphName="O" x="0" y="0" flags="0x204"/>
      <component glyphName="uni0308.cap" x="0" y="0" flags="0x4"/>
    </TTGlyph>
    <TTGlyph name="Ograve" xMin="34" yMin="-12" xMax="566" yMax="824">
      <component glyphName="O" x="0" y="0" flags="0x204"/>
      <component glyphName="uni0300.cap" x="0" y="0" flags="0x4"/>
    </TTGlyph>
    <TTGlyph name="Ohorn" xMin="34" yMin="-12" xMax="608" yMax="788">
      <contour>
        <pt x="300" y="136" on="1"/>
        <pt x="342" y="136" on="0"/>
        <pt x="390" y="239" on="0"/>
        <pt x="390" y="328" on="1"/>
        <pt x="390" y="417" on="0"/>
        <pt x="342" y="514" on="0"/>
        <pt x="300" y="514" on="1"/>
        <pt x="258" y="514" on="0"/>
        <pt x="210" y="417" on="0"/>
        <pt x="210" y="328" on="1"/>
        <pt x="210" y="239" on="0"/>
        <pt x="258" y="136" on="0"/>
      </contour>
      <contour>
        <pt x="576" y="788" on="1"/>
        <pt x="588" y="774" on="0"/>
        <pt x="608" y="729" on="0"/>
        <pt x="608" y="702" on="1"/>
        <pt x="608" y="648" on="0"/>
        <pt x="544" y="586" on="0"/>
        <pt x="494" y="573" on="1"/>
        <pt x="529" y="530" on="0"/>
        <pt x="566" y="407" on="0"/>
        <pt x="566" y="328" on="1"/>
        <pt x="566" y="248" on="0"/>
        <pt x="527" y="121" on="0"/>
        <pt x="457" y="34" on="0"/>
        <pt x="359" y="-12" on="0"/>
        <pt x="300" y="-12" on="1"/>
        <pt x="241" y="-12" on="0"/>
        <pt x="143" y="34" on="0"/>
        <pt x="73" y="121" on="0"/>
        <pt x="34" y="248" on="0"/>
        <pt x="34" y="328" on="1"/>
        <pt x="34" y="408" on="0"/>
        <pt x="73" y="533" on="0"/>
        <pt x="143" y="618" on="0"/>
        <pt x="241" y="662" on="0"/>
        <pt x="300" y="662" on="1"/>
        <pt x="370" y="662" on="0"/>
        <pt x="424" y="632" on="1"/>
        <pt x="447" y="637" on="0"/>
        <pt x="476" y="661" on="0"/>
        <pt x="476" y="690" on="1"/>
        <pt x="476" y="705" on="0"/>
        <pt x="465" y="730" on="0"/>
        <pt x="460" y="738" on="1"/>
      </contour>
    </TTGlyph>
    <TTGlyph name="Ohungarumlaut" xMin="34" yMin="-12" xMax="566" yMax="824">
      <component glyphName="O" x="0" y="0" flags="0x204"/>
      <component glyphName="uni030B.cap" x="0" y="0" flags="0x4"/>
    </TTGlyph>
    <TTGlyph name="Omacron" xMin="34" yMin="-12" xMax="566" yMax="824">
      <component glyphName="O" x="0" y="0" flags="0x204"/>
      <component glyphName="uni0304.cap" x="0" y="0" flags="0x4"/>
    </TTGlyph>
    <TTGlyph name="Oslash" xMin="24" yMin="-46" xMax="588" yMax="696">
      <contour>
        <pt x="254" y="157" on="1"/>
        <pt x="273" y="136" on="0"/>
        <pt x="300" y="136" on="1"/>
        <pt x="342" y="136" on="0"/>
        <pt x="390" y="239" on="0"/>
        <pt x="390" y="328" on="1"/>
        <pt x="390" y="352" on="1"/>
      </contour>
      <contour>
        <pt x="353" y="487" on="1"/>
        <pt x="332" y="514" on="0"/>
        <pt x="300" y="514" on="1"/>
        <pt x="258" y="514" on="0"/>
        <pt x="210" y="417" on="0"/>
        <pt x="210" y="328" on="1"/>
        <pt x="210" y="316" on="0"/>
        <pt x="211" y="294" on="0"/>
        <pt x="212" y="283" on="1"/>
      </contour>
      <contour>
        <pt x="518" y="537" on="1"/>
        <pt x="541" y="496" on="0"/>
        <pt x="566" y="392" on="0"/>
        <pt x="566" y="328" on="1"/>
        <pt x="566" y="248" on="0"/>
        <pt x="527" y="121" on="0"/>
        <pt x="457" y="34" on="0"/>
        <pt x="359" y="-12" on="0"/>
        <pt x="300" y="-12" on="1"/>
        <pt x="223" y="-12" on="0"/>
        <pt x="164" y="26" on="1"/>
        <pt x="114" y="-46" on="1"/>
        <pt x="24" y="12" on="1"/>
        <pt x="88" y="105" on="1"/>
        <pt x="62" y="147" on="0"/>
        <pt x="34" y="259" on="0"/>
        <pt x="34" y="328" on="1"/>
        <pt x="34" y="408" on="0"/>
        <pt x="73" y="533" on="0"/>
        <pt x="143" y="618" on="0"/>
        <pt x="241" y="662" on="0"/>
        <pt x="300" y="662" on="1"/>
        <pt x="382" y="662" on="0"/>
        <pt x="445" y="619" on="1"/>
        <pt x="498" y="696" on="1"/>
        <pt x="588" y="638" on="1"/>
      </contour>
    </TTGlyph>
    <TTGlyph name="Otilde" xMin="34" yMin="-12" xMax="566" yMax="846">
      <component glyphName="O" x="0" y="0" flags="0x204"/>
      <component glyphName="uni0303.cap" x="0" y="0" flags="0x4"/>
    </TTGlyph>
    <TTGlyph name="P" xMin="63" yMin="0" xMax="575" yMax="650">
      <contour>
        <pt x="63" y="650" on="1"/>
        <pt x="315" y="650" on="1"/>
        <pt x="367" y="650" on="0"/>
        <pt x="462" y="629" on="0"/>
        <pt x="533" y="578" on="0"/>
        <pt x="575" y="495" on="0"/>
        <pt x="575" y="434" on="1"/>
        <pt x="575" y="374" on="0"/>
        <pt x="532" y="288" on="0"/>
        <pt x="460" y="233" on="0"/>
        <pt x="366" y="206" on="0"/>
        <pt x="315" y="206" on="1"/>
        <pt x="235" y="206" on="1"/>
        <pt x="235" y="0" on="1"/>
        <pt x="63" y="0" on="1"/>
      </contour>
      <contour>
        <pt x="307" y="342" on="1"/>
        <pt x="358" y="342" on="0"/>
        <pt x="407" y="390" on="0"/>
        <pt x="407" y="434" on="1"/>
        <pt x="407" y="478" on="0"/>
        <pt x="355" y="514" on="0"/>
        <pt x="307" y="514" on="1"/>
        <pt x="235" y="514" on="1"/>
        <pt x="235" y="342" on="1"/>
      </contour>
    </TTGlyph>
    <TTGlyph name="Q" xMin="31" yMin="-184" xMax="590" yMax="662">
      <contour>
        <pt x="296" y="514" on="1"/>
        <pt x="254" y="514" on="0"/>
        <pt x="207" y="417" on="0"/>
        <pt x="207" y="328" on="1"/>
        <pt x="207" y="239" on="0"/>
        <pt x="254" y="136" on="0"/>
        <pt x="296" y="136" on="1"/>
        <pt x="338" y="136" on="0"/>
        <pt x="385" y="239" on="0"/>
        <pt x="385" y="328" on="1"/>
        <pt x="385" y="417" on="0"/>
        <pt x="338" y="514" on="0"/>
      </contour>
      <contour>
        <pt x="590" y="-160" on="1"/>
        <pt x="573" y="-171" on="0"/>
        <pt x="521" y="-184" on="0"/>
        <pt x="486" y="-184" on="1"/>
        <pt x="386" y="-184" on="0"/>
        <pt x="248" y="-82" on="0"/>
        <pt x="216" y="0" on="1"/>
        <pt x="131" y="27" on="0"/>
        <pt x="31" y="195" on="0"/>
        <pt x="31" y="328" on="1"/>
        <pt x="31" y="408" on="0"/>
        <pt x="69" y="533" on="0"/>
        <pt x="139" y="618" on="0"/>
        <pt x="237" y="662" on="0"/>
        <pt x="296" y="662" on="1"/>
        <pt x="355" y="662" on="0"/>
        <pt x="453" y="618" on="0"/>
        <pt x="523" y="532" on="0"/>
        <pt x="561" y="408" on="0"/>
        <pt x="561" y="328" on="1"/>
        <pt x="561" y="203" on="0"/>
        <pt x="472" y="39" on="0"/>
        <pt x="395" y="7" on="1"/>
        <pt x="404" y="-10" on="0"/>
        <pt x="429" y="-31" on="0"/>
        <pt x="459" y="-43" on="0"/>
        <pt x="491" y="-48" on="0"/>
        <pt x="506" y="-48" on="1"/>
        <pt x="521" y="-48" on="0"/>
        <pt x="549" y="-39" on="0"/>
        <pt x="560" y="-34" on="1"/>
      </contour>
    </TTGlyph>
    <TTGlyph name="R" xMin="58" yMin="0" xMax="596" yMax="650">
      <contour>
        <pt x="230" y="354" on="1"/>
        <pt x="288" y="354" on="1"/>
        <pt x="392" y="354" on="0"/>
        <pt x="392" y="440" on="1"/>
        <pt x="392" y="482" on="0"/>
        <pt x="339" y="514" on="0"/>
        <pt x="288" y="514" on="1"/>
        <pt x="230" y="514" on="1"/>
      </contour>
      <contour>
        <pt x="404" y="0" on="1"/>
        <pt x="292" y="218" on="1"/>
        <pt x="230" y="218" on="1"/>
        <pt x="230" y="0" on="1"/>
        <pt x="58" y="0" on="1"/>
        <pt x="58" y="650" on="1"/>
        <pt x="300" y="650" on="1"/>
        <pt x="352" y="650" on="0"/>
        <pt x="447" y="630" on="0"/>
        <pt x="518" y="582" on="0"/>
        <pt x="560" y="501" on="0"/>
        <pt x="560" y="440" on="1"/>
        <pt x="560" y="370" on="0"/>
        <pt x="503" y="278" on="0"/>
        <pt x="455" y="252" on="1"/>
        <pt x="596" y="0" on="1"/>
      </contour>
    </TTGlyph>
    <TTGlyph name="Racute" xMin="58" yMin="0" xMax="596" yMax="824">
      <component glyphName="R" x="0" y="0" flags="0x204"/>
      <component glyphName="uni0301.cap" x="2" y="0" flags="0x4"/>
    </TTGlyph>
    <TTGlyph name="Rcaron" xMin="58" yMin="0" xMax="596" yMax="824">
      <component glyphName="R" x="0" y="0" flags="0x204"/>
      <component glyphName="uni030C.cap" x="2" y="0" flags="0x4"/>
    </TTGlyph>
    <TTGlyph name="S" xMin="44" yMin="-12" xMax="556" yMax="662">
      <contour>
        <pt x="142" y="199" on="1"/>
        <pt x="179" y="171" on="0"/>
        <pt x="262" y="136" on="0"/>
        <pt x="300" y="136" on="1"/>
        <pt x="345" y="136" on="0"/>
        <pt x="380" y="160" on="0"/>
        <pt x="380" y="182" on="1"/>
        <pt x="380" y="194" on="0"/>
        <pt x="368" y="210" on="0"/>
        <pt x="344" y="224" on="0"/>
        <pt x="309" y="237" on="0"/>
        <pt x="286" y="245" on="1"/>
        <pt x="205" y="279" on="1"/>
        <pt x="177" y="289" on="0"/>
        <pt x="127" y="322" on="0"/>
        <pt x="90" y="367" on="0"/>
        <pt x="68" y="425" on="0"/>
        <pt x="68" y="460" on="1"/>
        <pt x="68" y="502" on="0"/>
        <pt x="104" y="575" on="0"/>
        <pt x="169" y="630" on="0"/>
        <pt x="260" y="662" on="0"/>
        <pt x="316" y="662" on="1"/>
        <pt x="374" y="662" on="0"/>
        <pt x="490" y="620" on="0"/>
        <pt x="538" y="575" on="1"/>
        <pt x="452" y="467" on="1"/>
        <pt x="417" y="490" on="0"/>
        <pt x="355" y="514" on="0"/>
        <pt x="316" y="514" on="1"/>
        <pt x="242" y="514" on="0"/>
        <pt x="242" y="470" on="1"/>
        <pt x="242" y="447" on="0"/>
        <pt x="295" y="423" on="0"/>
        <pt x="344" y="405" on="1"/>
        <pt x="419" y="374" on="1"/>
        <pt x="485" y="350" on="0"/>
        <pt x="556" y="264" on="0"/>
        <pt x="556" y="196" on="1"/>
        <pt x="556" y="155" on="0"/>
        <pt x="522" y="79" on="0"/>
        <pt x="456" y="22" on="0"/>
        <pt x="359" y="-12" on="0"/>
        <pt x="296" y="-12" on="1"/>
        <pt x="232" y="-12" on="0"/>
        <pt x="99" y="33" on="0"/>
        <pt x="44" y="81" on="1"/>
      </contour>
    </TTGlyph>
    <TTGlyph name="Sacute" xMin="44" yMin="-12" xMax="556" yMax="824">
      <component glyphName="S" x="0" y="0" flags="0x204"/>
      <component glyphName="uni0301.cap" x="6" y="0" flags="0x4"/>
    </TTGlyph>
    <TTGlyph name="Scaron" xMin="44" yMin="-12" xMax="556" yMax="824">
      <component glyphName="S" x="0" y="0" flags="0x204"/>
      <component glyphName="uni030C.cap" x="6" y="0" flags="0x4"/>
    </TTGlyph>
    <TTGlyph name="Scircumflex" xMin="44" yMin="-12" xMax="556" yMax="824">
      <component glyphName="S" x="0" y="0" flags="0x204"/>
      <component glyphName="uni0302.cap" x="6" y="0" flags="0x4"/>
    </TTGlyph>
    <TTGlyph name="T" xMin="27" yMin="0" xMax="573" yMax="650">
      <contour>
        <pt x="214" y="506" on="1"/>
        <pt x="27" y="506" on="1"/>
        <pt x="27" y="650" on="1"/>
        <pt x="573" y="650" on="1"/>
        <pt x="573" y="506" on="1"/>
        <pt x="386" y="506" on="1"/>
        <pt x="386" y="0" on="1"/>
        <pt x="214" y="0" on="1"/>
      </contour>
    </TTGlyph>
    <TTGlyph name="Tcaron" xMin="27" yMin="0" xMax="573" yMax="824">
      <component glyphName="T" x="0" y="0" flags="0x204"/>
      <component glyphName="uni030C.cap" x="0" y="0" flags="0x4"/>
    </TTGlyph>
    <TTGlyph name="Thorn" xMin="62" yMin="0" xMax="574" yMax="650">
      <contour>
        <pt x="62" y="650" on="1"/>
        <pt x="234" y="650" on="1"/>
        <pt x="234" y="556" on="1"/>
        <pt x="314" y="556" on="1"/>
        <pt x="366" y="556" on="0"/>
        <pt x="461" y="535" on="0"/>
        <pt x="532" y="484" on="0"/>
        <pt x="574" y="401" on="0"/>
        <pt x="574" y="340" on="1"/>
        <pt x="574" y="280" on="0"/>
        <pt x="531" y="194" on="0"/>
        <pt x="459" y="139" on="0"/>
        <pt x="365" y="112" on="0"/>
        <pt x="314" y="112" on="1"/>
        <pt x="234" y="112" on="1"/>
        <pt x="234" y="0" on="1"/>
        <pt x="62" y="0" on="1"/>
      </contour>
      <contour>
        <pt x="306" y="248" on="1"/>
        <pt x="357" y="248" on="0"/>
        <pt x="406" y="296" on="0"/>
        <pt x="406" y="340" on="1"/>
        <pt x="406" y="384" on="0"/>
        <pt x="354" y="420" on="0"/>
        <pt x="306" y="420" on="1"/>
        <pt x="234" y="420" on="1"/>
        <pt x="234" y="248" on="1"/>
      </contour>
    </TTGlyph>
    <TTGlyph name="U" xMin="58" yMin="-12" xMax="542" yMax="650">
      <contour>
        <pt x="58" y="650" on="1"/>
        <pt x="230" y="650" on="1"/>
        <pt x="230" y="232" on="1"/>
        <pt x="230" y="190" on="0"/>
        <pt x="261" y="136" on="0"/>
        <pt x="302" y="136" on="1"/>
        <pt x="344" y="136" on="0"/>
        <pt x="376" y="190" on="0"/>
        <pt x="376" y="232" on="1"/>
        <pt x="376" y="650" on="1"/>
        <pt x="542" y="650" on="1"/>
        <pt x="542" y="252" on="1"/>
        <pt x="542" y="191" on="0"/>
        <pt x="515" y="94" on="0"/>
        <pt x="457" y="25" on="0"/>
        <pt x="366" y="-12" on="0"/>
        <pt x="302" y="-12" on="1"/>
        <pt x="238" y="-12" on="0"/>
        <pt x="146" y="25" on="0"/>
        <pt x="86" y="94" on="0"/>
        <pt x="58" y="191" on="0"/>
        <pt x="58" y="252" on="1"/>
      </contour>
    </TTGlyph>
    <TTGlyph name="Uacute" xMin="58" yMin="-12" xMax="542" yMax="824">
      <component glyphName="U" x="0" y="0" flags="0x204"/>
      <component glyphName="uni0301.cap" x="0" y="0" flags="0x4"/>
    </TTGlyph>
    <TTGlyph name="Ubreve" xMin="58" yMin="-12" xMax="542" yMax="824">
      <component glyphName="U" x="0" y="0" flags="0x204"/>
      <component glyphName="uni0306.cap" x="0" y="0" flags="0x4"/>
    </TTGlyph>
    <TTGlyph name="Ucircumflex" xMin="58" yMin="-12" xMax="542" yMax="824">
      <component glyphName="U" x="0" y="0" flags="0x204"/>
      <component glyphName="uni0302.cap" x="0" y="0" flags="0x4"/>
    </TTGlyph>
    <TTGlyph name="Udieresis" xMin="58" yMin="-12" xMax="542" yMax="850">
      <component glyphName="U" x="0" y="0" flags="0x204"/>
      <component glyphName="uni0308.cap" x="0" y="0" flags="0x4"/>
    </TTGlyph>
    <TTGlyph name="Ugrave" xMin="58" yMin="-12" xMax="542" yMax="824">
      <component glyphName="U" x="0" y="0" flags="0x204"/>
      <component glyphName="uni0300.cap" x="0" y="0" flags="0x4"/>
    </TTGlyph>
    <TTGlyph name="Uhorn" xMin="58" yMin="-12" xMax="672" yMax="808">
      <contour>
        <pt x="640" y="808" on="1"/>
        <pt x="652" y="794" on="0"/>
        <pt x="672" y="749" on="0"/>
        <pt x="672" y="722" on="1"/>
        <pt x="672" y="693" on="0"/>
        <pt x="652" y="648" on="0"/>
        <pt x="617" y="615" on="0"/>
        <pt x="570" y="594" on="0"/>
        <pt x="542" y="589" on="1"/>
        <pt x="542" y="252" on="1"/>
        <pt x="542" y="191" on="0"/>
        <pt x="515" y="94" on="0"/>
        <pt x="457" y="25" on="0"/>
        <pt x="366" y="-12" on="0"/>
        <pt x="302" y="-12" on="1"/>
        <pt x="238" y="-12" on="0"/>
        <pt x="146" y="25" on="0"/>
        <pt x="86" y="94" on="0"/>
        <pt x="58" y="191" on="0"/>
        <pt x="58" y="252" on="1"/>
        <pt x="58" y="650" on="1"/>
        <pt x="230" y="650" on="1"/>
        <pt x="230" y="232" on="1"/>
        <pt x="230" y="190" on="0"/>
        <pt x="261" y="136" on="0"/>
        <pt x="302" y="136" on="1"/>
        <pt x="344" y="136" on="0"/>
        <pt x="376" y="190" on="0"/>
        <pt x="376" y="232" on="1"/>
        <pt x="376" y="650" on="1"/>
        <pt x="460" y="650" on="1"/>
        <pt x="473" y="650" on="0"/>
        <pt x="501" y="654" on="0"/>
        <pt x="525" y="666" on="0"/>
        <pt x="540" y="690" on="0"/>
        <pt x="540" y="710" on="1"/>
        <pt x="540" y="725" on="0"/>
        <pt x="529" y="750" on="0"/>
        <pt x="524" y="758" on="1"/>
      </contour>
    </TTGlyph>
    <TTGlyph name="Uhungarumlaut" xMin="58" yMin="-12" xMax="546" yMax="824">
      <component glyphName="U" x="0" y="0" flags="0x204"/>
      <component glyphName="uni030B.cap" x="0" y="0" flags="0x4"/>
    </TTGlyph>
    <TTGlyph name="Umacron" xMin="58" yMin="-12" xMax="542" yMax="824">
      <component glyphName="U" x="0" y="0" flags="0x204"/>
      <component glyphName="uni0304.cap" x="0" y="0" flags="0x4"/>
    </TTGlyph>
    <TTGlyph name="Uogonek" xMin="58" yMin="-228" xMax="542" yMax="650">
      <contour>
        <pt x="58" y="650" on="1"/>
        <pt x="230" y="650" on="1"/>
        <pt x="230" y="232" on="1"/>
        <pt x="230" y="190" on="0"/>
        <pt x="261" y="136" on="0"/>
        <pt x="302" y="136" on="1"/>
        <pt x="344" y="136" on="0"/>
        <pt x="376" y="190" on="0"/>
        <pt x="376" y="232" on="1"/>
        <pt x="376" y="650" on="1"/>
        <pt x="542" y="650" on="1"/>
        <pt x="542" y="252" on="1"/>
        <pt x="542" y="162" on="0"/>
        <pt x="482" y="41" on="0"/>
        <pt x="418" y="10" on="1"/>
        <pt x="388" y="-5" on="0"/>
        <pt x="352" y="-30" on="0"/>
        <pt x="332" y="-53" on="0"/>
        <pt x="326" y="-74" on="0"/>
        <pt x="326" y="-84" on="1"/>
        <pt x="326" y="-102" on="0"/>
        <pt x="351" y="-118" on="0"/>
        <pt x="366" y="-118" on="1"/>
        <pt x="375" y="-118" on="0"/>
        <pt x="393" y="-109" on="0"/>
        <pt x="400" y="-104" on="1"/>
        <pt x="438" y="-190" on="1"/>
        <pt x="417" y="-207" on="0"/>
        <pt x="353" y="-228" on="0"/>
        <pt x="324" y="-228" on="1"/>
        <pt x="273" y="-228" on="0"/>
        <pt x="202" y="-177" on="0"/>
        <pt x="202" y="-130" on="1"/>
        <pt x="202" y="-106" on="0"/>
        <pt x="218" y="-66" on="0"/>
        <pt x="239" y="-36" on="0"/>
        <pt x="261" y="-15" on="0"/>
        <pt x="266" y="-10" on="1"/>
        <pt x="160" y="-1" on="0"/>
        <pt x="58" y="136" on="0"/>
        <pt x="58" y="252" on="1"/>
      </contour>
    </TTGlyph>
    <TTGlyph name="Uring" xMin="58" yMin="-12" xMax="542" yMax="900">
      <component glyphName="U" x="0" y="0" flags="0x204"/>
      <component glyphName="uni030A.cap" x="0" y="0" flags="0x4"/>
    </TTGlyph>
    <TTGlyph name="Utilde" xMin="58" yMin="-12" xMax="542" yMax="846">
      <component glyphName="U" x="0" y="0" flags="0x204"/>
      <component glyphName="uni0303.cap" x="0" y="0" flags="0x4"/>
    </TTGlyph>
    <TTGlyph name="V" xMin="4" yMin="0" xMax="596" yMax="650">
      <contour>
        <pt x="4" y="650" on="1"/>
        <pt x="186" y="650" on="1"/>
        <pt x="254" y="366" on="1"/>
        <pt x="268" y="314" on="0"/>
        <pt x="288" y="213" on="0"/>
        <pt x="302" y="160" on="1"/>
        <pt x="306" y="160" on="1"/>
        <pt x="320" y="213" on="0"/>
        <pt x="341" y="314" on="0"/>
        <pt x="354" y="366" on="1"/>
        <pt x="420" y="650" on="1"/>
        <pt x="596" y="650" on="1"/>
        <pt x="404" y="0" on="1"/>
        <pt x="196" y="0" on="1"/>
      </contour>
    </TTGlyph>
    <TTGlyph name="W" xMin="2" yMin="0" xMax="599" yMax="650">
      <contour>
        <pt x="2" y="650" on="1"/>
        <pt x="178" y="650" on="1"/>
        <pt x="186" y="328" on="1"/>
        <pt x="186" y="160" on="1"/>
        <pt x="190" y="160" on="1"/>
        <pt x="196" y="202" on="0"/>
        <pt x="214" y="286" on="0"/>
        <pt x="222" y="328" on="1"/>
        <pt x="258" y="486" on="1"/>
        <pt x="358" y="486" on="1"/>
        <pt x="391" y="328" on="1"/>
        <pt x="398" y="288" on="0"/>
        <pt x="416" y="204" on="0"/>
        <pt x="423" y="160" on="1"/>
        <pt x="427" y="160" on="1"/>
        <pt x="427" y="328" on="1"/>
        <pt x="435" y="650" on="1"/>
        <pt x="599" y="650" on="1"/>
        <pt x="524" y="0" on="1"/>
        <pt x="346" y="0" on="1"/>
        <pt x="317" y="178" on="1"/>
        <pt x="312" y="210" on="0"/>
        <pt x="303" y="276" on="0"/>
        <pt x="302" y="305" on="1"/>
        <pt x="299" y="305" on="1"/>
        <pt x="297" y="276" on="0"/>
        <pt x="289" y="210" on="0"/>
        <pt x="284" y="178" on="1"/>
        <pt x="257" y="0" on="1"/>
        <pt x="83" y="0" on="1"/>
      </contour>
    </TTGlyph>
    <TTGlyph name="Wacute" xMin="2" yMin="0" xMax="599" yMax="824">
      <component glyphName="W" x="0" y="0" flags="0x204"/>
      <component glyphName="uni0301.cap" x="0" y="0" flags="0x4"/>
    </TTGlyph>
    <TTGlyph name="Wcircumflex" xMin="2" yMin="0" xMax="599" yMax="824">
      <component glyphName="W" x="0" y="0" flags="0x204"/>
      <component glyphName="uni0302.cap" x="0" y="0" flags="0x4"/>
    </TTGlyph>
    <TTGlyph name="Wdieresis" xMin="2" yMin="0" xMax="599" yMax="850">
      <component glyphName="W" x="0" y="0" flags="0x204"/>
      <component glyphName="uni0308.cap" x="0" y="0" flags="0x4"/>
    </TTGlyph>
    <TTGlyph name="Wgrave" xMin="2" yMin="0" xMax="599" yMax="824">
      <component glyphName="W" x="0" y="0" flags="0x204"/>
      <component glyphName="uni0300.cap" x="0" y="0" flags="0x4"/>
    </TTGlyph>
    <TTGlyph name="X" xMin="4" yMin="0" xMax="596" yMax="650">
      <contour>
        <pt x="192" y="334" on="1"/>
        <pt x="15" y="650" on="1"/>
        <pt x="207" y="650" on="1"/>
        <pt x="259" y="544" on="1"/>
        <pt x="270" y="521" on="0"/>
        <pt x="294" y="468" on="0"/>
        <pt x="308" y="436" on="1"/>
        <pt x="312" y="436" on="1"/>
        <pt x="323" y="468" on="0"/>
        <pt x="345" y="521" on="0"/>
        <pt x="355" y="544" on="1"/>
        <pt x="401" y="650" on="1"/>
        <pt x="585" y="650" on="1"/>
        <pt x="408" y="326" on="1"/>
        <pt x="596" y="0" on="1"/>
        <pt x="404" y="0" on="1"/>
        <pt x="344" y="116" on="1"/>
        <pt x="330" y="142" on="0"/>
        <pt x="307" y="194" on="0"/>
        <pt x="294" y="224" on="1"/>
        <pt x="290" y="224" on="1"/>
        <pt x="279" y="194" on="0"/>
        <pt x="256" y="142" on="0"/>
        <pt x="244" y="116" on="1"/>
        <pt x="188" y="0" on="1"/>
        <pt x="4" y="0" on="1"/>
      </contour>
    </TTGlyph>
    <TTGlyph name="Y" xMin="8" yMin="0" xMax="592" yMax="650">
      <contour>
        <pt x="214" y="215" on="1"/>
        <pt x="8" y="650" on="1"/>
        <pt x="192" y="650" on="1"/>
        <pt x="246" y="508" on="1"/>
        <pt x="259" y="470" on="0"/>
        <pt x="285" y="399" on="0"/>
        <pt x="299" y="360" on="1"/>
        <pt x="303" y="360" on="1"/>
        <pt x="317" y="399" on="0"/>
        <pt x="344" y="470" on="0"/>
        <pt x="358" y="508" on="1"/>
        <pt x="412" y="650" on="1"/>
        <pt x="592" y="650" on="1"/>
        <pt x="386" y="215" on="1"/>
        <pt x="386" y="0" on="1"/>
        <pt x="214" y="0" on="1"/>
      </contour>
    </TTGlyph>
    <TTGlyph name="Yacute" xMin="8" yMin="0" xMax="592" yMax="824">
      <component glyphName="Y" x="0" y="0" flags="0x204"/>
      <component glyphName="uni0301.cap" x="0" y="0" flags="0x4"/>
    </TTGlyph>
    <TTGlyph name="Ycircumflex" xMin="8" yMin="0" xMax="592" yMax="824">
      <component glyphName="Y" x="0" y="0" flags="0x204"/>
      <component glyphName="uni0302.cap" x="0" y="0" flags="0x4"/>
    </TTGlyph>
    <TTGlyph name="Ydieresis" xMin="8" yMin="0" xMax="592" yMax="850">
      <component glyphName="Y" x="0" y="0" flags="0x204"/>
      <component glyphName="uni0308.cap" x="0" y="0" flags="0x4"/>
    </TTGlyph>
    <TTGlyph name="Ygrave" xMin="8" yMin="0" xMax="592" yMax="824">
      <component glyphName="Y" x="0" y="0" flags="0x204"/>
      <component glyphName="uni0300.cap" x="0" y="0" flags="0x4"/>
    </TTGlyph>
    <TTGlyph name="Z" xMin="53" yMin="0" xMax="550" yMax="650">
      <contour>
        <pt x="53" y="104" on="1"/>
        <pt x="335" y="506" on="1"/>
        <pt x="80" y="506" on="1"/>
        <pt x="80" y="650" on="1"/>
        <pt x="547" y="650" on="1"/>
        <pt x="547" y="546" on="1"/>
        <pt x="265" y="144" on="1"/>
        <pt x="550" y="144" on="1"/>
        <pt x="550" y="0" on="1"/>
        <pt x="53" y="0" on="1"/>
      </contour>
    </TTGlyph>
    <TTGlyph name="Zacute" xMin="53" yMin="0" xMax="550" yMax="824">
      <component glyphName="Z" x="0" y="0" flags="0x204"/>
      <component glyphName="uni0301.cap" x="14" y="0" flags="0x4"/>
    </TTGlyph>
    <TTGlyph name="Zcaron" xMin="53" yMin="0" xMax="550" yMax="824">
      <component glyphName="Z" x="0" y="0" flags="0x204"/>
      <component glyphName="uni030C.cap" x="14" y="0" flags="0x4"/>
    </TTGlyph>
    <TTGlyph name="Zdotaccent" xMin="53" yMin="0" xMax="550" yMax="868">
      <component glyphName="Z" x="0" y="0" flags="0x204"/>
      <component glyphName="uni0307.cap" x="14" y="0" flags="0x4"/>
    </TTGlyph>
    <TTGlyph name="a" xMin="54" yMin="-12" xMax="542" yMax="512">
      <contour>
        <pt x="54" y="142" on="1"/>
        <pt x="54" y="184" on="0"/>
        <pt x="89" y="248" on="0"/>
        <pt x="164" y="293" on="0"/>
        <pt x="284" y="319" on="0"/>
        <pt x="370" y="324" on="1"/>
        <pt x="365" y="351" on="0"/>
        <pt x="316" y="376" on="0"/>
        <pt x="274" y="376" on="1"/>
        <pt x="242" y="376" on="0"/>
        <pt x="175" y="355" on="0"/>
        <pt x="130" y="334" on="1"/>
        <pt x="70" y="446" on="1"/>
        <pt x="127" y="478" on="0"/>
        <pt x="245" y="512" on="0"/>
        <pt x="308" y="512" on="1"/>
        <pt x="361" y="512" on="0"/>
        <pt x="448" y="485" on="0"/>
        <pt x="509" y="428" on="0"/>
        <pt x="542" y="339" on="0"/>
        <pt x="542" y="278" on="1"/>
        <pt x="542" y="0" on="1"/>
        <pt x="402" y="0" on="1"/>
        <pt x="390" y="52" on="1"/>
        <pt x="386" y="52" on="1"/>
        <pt x="349" y="25" on="0"/>
        <pt x="263" y="-12" on="0"/>
        <pt x="216" y="-12" on="1"/>
        <pt x="177" y="-12" on="0"/>
        <pt x="117" y="13" on="0"/>
        <pt x="75" y="55" on="0"/>
        <pt x="54" y="111" on="0"/>
      </contour>
      <contour>
        <pt x="218" y="156" on="1"/>
        <pt x="218" y="120" on="0"/>
        <pt x="272" y="120" on="1"/>
        <pt x="302" y="120" on="0"/>
        <pt x="350" y="143" on="0"/>
        <pt x="370" y="158" on="1"/>
        <pt x="370" y="222" on="1"/>
        <pt x="324" y="220" on="0"/>
        <pt x="265" y="209" on="0"/>
        <pt x="231" y="191" on="0"/>
        <pt x="218" y="169" on="0"/>
      </contour>
    </TTGlyph>
    <TTGlyph name="a.a" xMin="42" yMin="-12" xMax="536" yMax="512">
      <component glyphName="uni0251" x="0" y="0" flags="0x204"/>
    </TTGlyph>
    <TTGlyph name="a.supa" xMin="125" yMin="252" xMax="458" yMax="599">
      <contour>
        <pt x="247" y="427" on="1"/>
        <pt x="247" y="383" on="0"/>
        <pt x="275" y="348" on="0"/>
        <pt x="296" y="348" on="1"/>
        <pt x="309" y="348" on="0"/>
        <pt x="331" y="356" on="0"/>
        <pt x="339" y="370" on="1"/>
        <pt x="339" y="488" on="1"/>
        <pt x="330" y="496" on="0"/>
        <pt x="304" y="503" on="0"/>
        <pt x="293" y="503" on="1"/>
        <pt x="276" y="503" on="0"/>
        <pt x="247" y="470" on="0"/>
      </contour>
      <contour>
        <pt x="125" y="425" on="1"/>
        <pt x="125" y="466" on="0"/>
        <pt x="149" y="530" on="0"/>
        <pt x="188" y="575" on="0"/>
        <pt x="239" y="599" on="0"/>
        <pt x="267" y="599" on="1"/>
        <pt x="290" y="599" on="0"/>
        <pt x="334" y="580" on="0"/>
        <pt x="353" y="558" on="1"/>
        <pt x="356" y="558" on="1"/>
        <pt x="366" y="591" on="1"/>
        <pt x="458" y="591" on="1"/>
        <pt x="458" y="260" on="1"/>
        <pt x="361" y="260" on="1"/>
        <pt x="353" y="290" on="1"/>
        <pt x="350" y="290" on="1"/>
        <pt x="333" y="273" on="0"/>
        <pt x="286" y="252" on="0"/>
        <pt x="264" y="252" on="1"/>
        <pt x="201" y="252" on="0"/>
        <pt x="125" y="344" on="0"/>
      </contour>
    </TTGlyph>
    <TTGlyph name="a.sups" xMin="149" yMin="252" xMax="457" yMax="599">
      <contour>
        <pt x="149" y="354" on="1"/>
        <pt x="149" y="406" on="0"/>
        <pt x="237" y="465" on="0"/>
        <pt x="338" y="475" on="1"/>
        <pt x="336" y="492" on="0"/>
        <pt x="309" y="506" on="0"/>
        <pt x="288" y="506" on="1"/>
        <pt x="253" y="506" on="0"/>
        <pt x="201" y="478" on="1"/>
        <pt x="159" y="555" on="1"/>
        <pt x="195" y="576" on="0"/>
        <pt x="273" y="599" on="0"/>
        <pt x="312" y="599" on="1"/>
        <pt x="377" y="599" on="0"/>
        <pt x="457" y="525" on="0"/>
        <pt x="457" y="443" on="1"/>
        <pt x="457" y="260" on="1"/>
        <pt x="360" y="260" on="1"/>
        <pt x="352" y="291" on="1"/>
        <pt x="349" y="291" on="1"/>
        <pt x="329" y="274" on="0"/>
        <pt x="280" y="252" on="0"/>
        <pt x="254" y="252" on="1"/>
        <pt x="230" y="252" on="0"/>
        <pt x="191" y="269" on="0"/>
        <pt x="164" y="297" on="0"/>
        <pt x="149" y="334" on="0"/>
      </contour>
      <contour>
        <pt x="263" y="364" on="1"/>
        <pt x="263" y="342" on="0"/>
        <pt x="293" y="342" on="1"/>
        <pt x="307" y="342" on="0"/>
        <pt x="330" y="354" on="0"/>
        <pt x="338" y="363" on="1"/>
        <pt x="338" y="405" on="1"/>
        <pt x="295" y="399" on="0"/>
        <pt x="263" y="377" on="0"/>
      </contour>
    </TTGlyph>
    <TTGlyph name="aacute" xMin="54" yMin="-12" xMax="542" yMax="748">
      <component glyphName="a" x="0" y="0" flags="0x204"/>
      <component glyphName="uni0301" x="6" y="0" flags="0x4"/>
    </TTGlyph>
    <TTGlyph name="aacute.a" xMin="42" yMin="-12" xMax="536" yMax="748">
      <component glyphName="uni0251" x="0" y="0" flags="0x204"/>
      <component glyphName="uni0301" x="16" y="0" flags="0x4"/>
    </TTGlyph>
    <TTGlyph name="abreve" xMin="54" yMin="-12" xMax="542" yMax="738">
      <component glyphName="a" x="0" y="0" flags="0x204"/>
      <component glyphName="uni0306" x="6" y="0" flags="0x4"/>
    </TTGlyph>
    <TTGlyph name="abreve.a" xMin="42" yMin="-12" xMax="536" yMax="738">
      <component glyphName="uni0251" x="0" y="0" flags="0x204"/>
      <component glyphName="uni0306" x="16" y="0" flags="0x4"/>
    </TTGlyph>
    <TTGlyph name="acircumflex" xMin="54" yMin="-12" xMax="542" yMax="748">
      <component glyphName="a" x="0" y="0" flags="0x204"/>
      <component glyphName="uni0302" x="6" y="0" flags="0x4"/>
    </TTGlyph>
    <TTGlyph name="acircumflex.a" xMin="42" yMin="-12" xMax="536" yMax="748">
      <component glyphName="uni0251" x="0" y="0" flags="0x204"/>
      <component glyphName="uni0302" x="16" y="0" flags="0x4"/>
    </TTGlyph>
    <TTGlyph name="acute" xMin="212" yMin="574" xMax="474" yMax="748">
      <component glyphName="uni0301" x="0" y="0" flags="0x204"/>
    </TTGlyph>
    <TTGlyph name="adieresis" xMin="54" yMin="-12" xMax="542" yMax="740">
      <component glyphName="a" x="0" y="0" flags="0x204"/>
      <component glyphName="uni0308" x="6" y="0" flags="0x4"/>
    </TTGlyph>
    <TTGlyph name="adieresis.a" xMin="42" yMin="-12" xMax="536" yMax="740">
      <component glyphName="uni0251" x="0" y="0" flags="0x204"/>
      <component glyphName="uni0308" x="16" y="0" flags="0x4"/>
    </TTGlyph>
    <TTGlyph name="ae" xMin="16" yMin="-12" xMax="591" yMax="512">
      <contour>
        <pt x="16" y="142" on="1"/>
        <pt x="16" y="220" on="0"/>
        <pt x="122" y="302" on="0"/>
        <pt x="232" y="325" on="1"/>
        <pt x="228" y="351" on="0"/>
        <pt x="207" y="376" on="0"/>
        <pt x="186" y="376" on="1"/>
        <pt x="168" y="376" on="0"/>
        <pt x="115" y="360" on="0"/>
        <pt x="88" y="344" on="1"/>
        <pt x="28" y="456" on="1"/>
        <pt x="73" y="483" on="0"/>
        <pt x="154" y="512" on="0"/>
        <pt x="196" y="512" on="1"/>
        <pt x="238" y="512" on="0"/>
        <pt x="292" y="478" on="0"/>
        <pt x="310" y="448" on="1"/>
        <pt x="336" y="481" on="0"/>
        <pt x="391" y="512" on="0"/>
        <pt x="433" y="512" on="1"/>
        <pt x="472" y="512" on="0"/>
        <pt x="531" y="473" on="0"/>
        <pt x="571" y="406" on="0"/>
        <pt x="591" y="316" on="0"/>
        <pt x="591" y="266" on="1"/>
        <pt x="591" y="243" on="0"/>
        <pt x="586" y="207" on="0"/>
        <pt x="584" y="198" on="1"/>
        <pt x="368" y="198" on="1"/>
        <pt x="379" y="156" on="0"/>
        <pt x="421" y="122" on="0"/>
        <pt x="448" y="122" on="1"/>
        <pt x="465" y="122" on="0"/>
        <pt x="498" y="132" on="0"/>
        <pt x="518" y="146" on="1"/>
        <pt x="576" y="36" on="1"/>
        <pt x="546" y="12" on="0"/>
        <pt x="471" y="-12" on="0"/>
        <pt x="442" y="-12" on="1"/>
        <pt x="388" y="-12" on="0"/>
        <pt x="316" y="27" on="0"/>
        <pt x="290" y="60" on="1"/>
        <pt x="251" y="21" on="0"/>
        <pt x="189" y="-12" on="0"/>
        <pt x="156" y="-12" on="1"/>
        <pt x="121" y="-12" on="0"/>
        <pt x="69" y="13" on="0"/>
        <pt x="34" y="55" on="0"/>
        <pt x="16" y="111" on="0"/>
      </contour>
      <contour>
        <pt x="456" y="302" on="1"/>
        <pt x="456" y="335" on="0"/>
        <pt x="440" y="382" on="0"/>
        <pt x="417" y="382" on="1"/>
        <pt x="400" y="382" on="0"/>
        <pt x="371" y="346" on="0"/>
        <pt x="366" y="302" on="1"/>
      </contour>
      <contour>
        <pt x="169" y="156" on="1"/>
        <pt x="169" y="120" on="0"/>
        <pt x="204" y="120" on="1"/>
        <pt x="215" y="120" on="0"/>
        <pt x="236" y="131" on="0"/>
        <pt x="245" y="140" on="1"/>
        <pt x="240" y="154" on="0"/>
        <pt x="234" y="188" on="0"/>
        <pt x="232" y="203" on="1"/>
        <pt x="230" y="222" on="1"/>
        <pt x="198" y="213" on="0"/>
        <pt x="169" y="178" on="0"/>
      </contour>
    </TTGlyph>
    <TTGlyph name="agrave" xMin="54" yMin="-12" xMax="542" yMax="748">
      <component glyphName="a" x="0" y="0" flags="0x204"/>
      <component glyphName="uni0300" x="6" y="0" flags="0x4"/>
    </TTGlyph>
    <TTGlyph name="agrave.a" xMin="42" yMin="-12" xMax="536" yMax="748">
      <component glyphName="uni0251" x="0" y="0" flags="0x204"/>
      <component glyphName="uni0300" x="16" y="0" flags="0x4"/>
    </TTGlyph>
    <TTGlyph name="amacron" xMin="54" yMin="-12" xMax="542" yMax="696">
      <component glyphName="a" x="0" y="0" flags="0x204"/>
      <component glyphName="uni0304" x="6" y="0" flags="0x4"/>
    </TTGlyph>
    <TTGlyph name="amacron.a" xMin="42" yMin="-12" xMax="536" yMax="696">
      <component glyphName="uni0251" x="0" y="0" flags="0x204"/>
      <component glyphName="uni0304" x="16" y="0" flags="0x4"/>
    </TTGlyph>
    <TTGlyph name="ampersand" xMin="16" yMin="-12" xMax="592" yMax="662">
      <contour>
        <pt x="178" y="186" on="1"/>
        <pt x="178" y="156" on="0"/>
        <pt x="217" y="118" on="0"/>
        <pt x="252" y="118" on="1"/>
        <pt x="272" y="118" on="0"/>
        <pt x="295" y="131" on="1"/>
        <pt x="267" y="155" on="0"/>
        <pt x="215" y="208" on="0"/>
        <pt x="192" y="236" on="1"/>
        <pt x="178" y="213" on="0"/>
      </contour>
      <contour>
        <pt x="213" y="486" on="1"/>
        <pt x="213" y="459" on="0"/>
        <pt x="227" y="426" on="1"/>
        <pt x="250" y="443" on="0"/>
        <pt x="278" y="482" on="0"/>
        <pt x="278" y="508" on="1"/>
        <pt x="278" y="529" on="0"/>
        <pt x="263" y="550" on="0"/>
        <pt x="244" y="550" on="1"/>
        <pt x="231" y="550" on="0"/>
        <pt x="213" y="518" on="0"/>
      </contour>
      <contour>
        <pt x="592" y="374" on="1"/>
        <pt x="578" y="317" on="0"/>
        <pt x="536" y="211" on="0"/>
        <pt x="507" y="161" on="1"/>
        <pt x="553" y="133" on="0"/>
        <pt x="590" y="126" on="1"/>
        <pt x="550" y="-12" on="1"/>
        <pt x="478" y="5" on="0"/>
        <pt x="411" y="47" on="1"/>
        <pt x="374" y="19" on="0"/>
        <pt x="284" y="-12" on="0"/>
        <pt x="230" y="-12" on="1"/>
        <pt x="176" y="-12" on="0"/>
        <pt x="96" y="19" on="0"/>
        <pt x="42" y="71" on="0"/>
        <pt x="16" y="139" on="0"/>
        <pt x="16" y="176" on="1"/>
        <pt x="16" y="208" on="0"/>
        <pt x="32" y="260" on="0"/>
        <pt x="59" y="302" on="0"/>
        <pt x="94" y="336" on="0"/>
        <pt x="114" y="351" on="1"/>
        <pt x="94" y="388" on="0"/>
        <pt x="72" y="457" on="0"/>
        <pt x="72" y="486" on="1"/>
        <pt x="72" y="521" on="0"/>
        <pt x="95" y="585" on="0"/>
        <pt x="139" y="633" on="0"/>
        <pt x="201" y="662" on="0"/>
        <pt x="240" y="662" on="1"/>
        <pt x="318" y="662" on="0"/>
        <pt x="408" y="579" on="0"/>
        <pt x="408" y="508" on="1"/>
        <pt x="408" y="477" on="0"/>
        <pt x="388" y="427" on="0"/>
        <pt x="355" y="384" on="0"/>
        <pt x="314" y="347" on="0"/>
        <pt x="292" y="330" on="1"/>
        <pt x="313" y="306" on="0"/>
        <pt x="363" y="260" on="0"/>
        <pt x="390" y="239" on="1"/>
        <pt x="405" y="268" on="0"/>
        <pt x="428" y="335" on="0"/>
        <pt x="436" y="374" on="1"/>
      </contour>
    </TTGlyph>
    <TTGlyph name="aogonek" xMin="54" yMin="-212" xMax="562" yMax="512">
      <contour>
        <pt x="54" y="142" on="1"/>
        <pt x="54" y="184" on="0"/>
        <pt x="89" y="248" on="0"/>
        <pt x="164" y="293" on="0"/>
        <pt x="284" y="319" on="0"/>
        <pt x="370" y="324" on="1"/>
        <pt x="365" y="351" on="0"/>
        <pt x="316" y="376" on="0"/>
        <pt x="274" y="376" on="1"/>
        <pt x="242" y="376" on="0"/>
        <pt x="175" y="355" on="0"/>
        <pt x="130" y="334" on="1"/>
        <pt x="70" y="446" on="1"/>
        <pt x="127" y="478" on="0"/>
        <pt x="245" y="512" on="0"/>
        <pt x="308" y="512" on="1"/>
        <pt x="361" y="512" on="0"/>
        <pt x="448" y="485" on="0"/>
        <pt x="509" y="428" on="0"/>
        <pt x="542" y="339" on="0"/>
        <pt x="542" y="278" on="1"/>
        <pt x="542" y="0" on="1"/>
        <pt x="491" y="-12" on="0"/>
        <pt x="454" y="-57" on="0"/>
        <pt x="454" y="-78" on="1"/>
        <pt x="454" y="-96" on="0"/>
        <pt x="479" y="-112" on="0"/>
        <pt x="494" y="-112" on="1"/>
        <pt x="503" y="-112" on="0"/>
        <pt x="522" y="-105" on="0"/>
        <pt x="528" y="-100" on="1"/>
        <pt x="562" y="-176" on="1"/>
        <pt x="541" y="-193" on="0"/>
        <pt x="478" y="-212" on="0"/>
        <pt x="452" y="-212" on="1"/>
        <pt x="405" y="-212" on="0"/>
        <pt x="340" y="-165" on="0"/>
        <pt x="340" y="-118" on="1"/>
        <pt x="340" y="-96" on="0"/>
        <pt x="354" y="-58" on="0"/>
        <pt x="375" y="-29" on="0"/>
        <pt x="396" y="-9" on="0"/>
        <pt x="404" y="-4" on="1"/>
        <pt x="390" y="52" on="1"/>
        <pt x="386" y="52" on="1"/>
        <pt x="349" y="25" on="0"/>
        <pt x="263" y="-12" on="0"/>
        <pt x="216" y="-12" on="1"/>
        <pt x="177" y="-12" on="0"/>
        <pt x="117" y="13" on="0"/>
        <pt x="75" y="55" on="0"/>
        <pt x="54" y="111" on="0"/>
      </contour>
      <contour>
        <pt x="218" y="156" on="1"/>
        <pt x="218" y="120" on="0"/>
        <pt x="272" y="120" on="1"/>
        <pt x="302" y="120" on="0"/>
        <pt x="350" y="143" on="0"/>
        <pt x="370" y="158" on="1"/>
        <pt x="370" y="222" on="1"/>
        <pt x="324" y="220" on="0"/>
        <pt x="265" y="209" on="0"/>
        <pt x="231" y="191" on="0"/>
        <pt x="218" y="169" on="0"/>
      </contour>
    </TTGlyph>
    <TTGlyph name="aogonek.a" xMin="42" yMin="-212" xMax="556" yMax="512">
      <contour>
        <pt x="218" y="252" on="1"/>
        <pt x="218" y="184" on="0"/>
        <pt x="259" y="128" on="0"/>
        <pt x="296" y="128" on="1"/>
        <pt x="317" y="128" on="0"/>
        <pt x="350" y="143" on="0"/>
        <pt x="364" y="164" on="1"/>
        <pt x="364" y="348" on="1"/>
        <pt x="349" y="362" on="0"/>
        <pt x="316" y="372" on="0"/>
        <pt x="298" y="372" on="1"/>
        <pt x="266" y="372" on="0"/>
        <pt x="218" y="318" on="0"/>
      </contour>
      <contour>
        <pt x="42" y="250" on="1"/>
        <pt x="42" y="311" on="0"/>
        <pt x="77" y="409" on="0"/>
        <pt x="136" y="476" on="0"/>
        <pt x="213" y="512" on="0"/>
        <pt x="254" y="512" on="1"/>
        <pt x="290" y="512" on="0"/>
        <pt x="355" y="483" on="0"/>
        <pt x="384" y="450" on="1"/>
        <pt x="388" y="450" on="1"/>
        <pt x="402" y="500" on="1"/>
        <pt x="536" y="500" on="1"/>
        <pt x="536" y="0" on="1"/>
        <pt x="485" y="-12" on="0"/>
        <pt x="448" y="-57" on="0"/>
        <pt x="448" y="-78" on="1"/>
        <pt x="448" y="-95" on="0"/>
        <pt x="472" y="-112" on="0"/>
        <pt x="488" y="-112" on="1"/>
        <pt x="497" y="-112" on="0"/>
        <pt x="516" y="-105" on="0"/>
        <pt x="522" y="-100" on="1"/>
        <pt x="556" y="-176" on="1"/>
        <pt x="535" y="-193" on="0"/>
        <pt x="472" y="-212" on="0"/>
        <pt x="446" y="-212" on="1"/>
        <pt x="399" y="-212" on="0"/>
        <pt x="334" y="-165" on="0"/>
        <pt x="334" y="-118" on="1"/>
        <pt x="334" y="-96" on="0"/>
        <pt x="348" y="-58" on="0"/>
        <pt x="369" y="-29" on="0"/>
        <pt x="390" y="-9" on="0"/>
        <pt x="398" y="-4" on="1"/>
        <pt x="384" y="46" on="1"/>
        <pt x="380" y="46" on="1"/>
        <pt x="354" y="20" on="0"/>
        <pt x="283" y="-12" on="0"/>
        <pt x="250" y="-12" on="1"/>
        <pt x="203" y="-12" on="0"/>
        <pt x="127" y="24" on="0"/>
        <pt x="72" y="92" on="0"/>
        <pt x="42" y="189" on="0"/>
      </contour>
    </TTGlyph>
    <TTGlyph name="approxequal" xMin="42" yMin="107" xMax="558" yMax="554">
      <component glyphName="asciitilde" x="0" y="120" flags="0x204"/>
      <component glyphName="asciitilde" x="0" y="-119" flags="0x4"/>
    </TTGlyph>
    <TTGlyph name="aring" xMin="54" yMin="-12" xMax="542" yMax="762">
      <component glyphName="a" x="0" y="0" flags="0x204"/>
      <component glyphName="uni030A" x="6" y="0" flags="0x4"/>
    </TTGlyph>
    <TTGlyph name="aring.a" xMin="42" yMin="-12" xMax="536" yMax="762">
      <component glyphName="uni0251" x="0" y="0" flags="0x204"/>
      <component glyphName="uni030A" x="16" y="0" flags="0x4"/>
    </TTGlyph>
    <TTGlyph name="arrowdown" xMin="30" yMin="-26" xMax="570" yMax="530">
      <contour>
        <pt x="298" y="-26" on="1"/>
        <pt x="30" y="254" on="1"/>
        <pt x="122" y="334" on="1"/>
        <pt x="232" y="204" on="1"/>
        <pt x="232" y="530" on="1"/>
        <pt x="368" y="530" on="1"/>
        <pt x="368" y="204" on="1"/>
        <pt x="478" y="334" on="1"/>
        <pt x="570" y="254" on="1"/>
        <pt x="302" y="-26" on="1"/>
      </contour>
    </TTGlyph>
    <TTGlyph name="arrowup" xMin="30" yMin="-26" xMax="570" yMax="530">
      <contour>
        <pt x="302" y="530" on="1"/>
        <pt x="570" y="250" on="1"/>
        <pt x="478" y="170" on="1"/>
        <pt x="368" y="300" on="1"/>
        <pt x="368" y="-26" on="1"/>
        <pt x="232" y="-26" on="1"/>
        <pt x="232" y="300" on="1"/>
        <pt x="122" y="170" on="1"/>
        <pt x="30" y="250" on="1"/>
        <pt x="298" y="530" on="1"/>
      </contour>
    </TTGlyph>
    <TTGlyph name="asciicircum" xMin="76" yMin="270" xMax="524" yMax="670">
      <contour>
        <pt x="232" y="670" on="1"/>
        <pt x="368" y="670" on="1"/>
        <pt x="524" y="270" on="1"/>
        <pt x="384" y="270" on="1"/>
        <pt x="346" y="380" on="1"/>
        <pt x="302" y="516" on="1"/>
        <pt x="298" y="516" on="1"/>
        <pt x="254" y="380" on="1"/>
        <pt x="216" y="270" on="1"/>
        <pt x="76" y="270" on="1"/>
      </contour>
    </TTGlyph>
    <TTGlyph name="asciitilde" xMin="42" yMin="226" xMax="558" yMax="434">
      <contour>
        <pt x="42" y="274" on="1"/>
        <pt x="77" y="355" on="0"/>
        <pt x="166" y="426" on="0"/>
        <pt x="216" y="426" on="1"/>
        <pt x="247" y="426" on="0"/>
        <pt x="293" y="403" on="0"/>
        <pt x="331" y="376" on="0"/>
        <pt x="366" y="354" on="0"/>
        <pt x="386" y="354" on="1"/>
        <pt x="406" y="354" on="0"/>
        <pt x="442" y="396" on="0"/>
        <pt x="456" y="434" on="1"/>
        <pt x="558" y="386" on="1"/>
        <pt x="523" y="305" on="0"/>
        <pt x="434" y="234" on="0"/>
        <pt x="384" y="234" on="1"/>
        <pt x="352" y="234" on="0"/>
        <pt x="307" y="256" on="0"/>
        <pt x="269" y="283" on="0"/>
        <pt x="234" y="306" on="0"/>
        <pt x="214" y="306" on="1"/>
        <pt x="194" y="306" on="0"/>
        <pt x="158" y="264" on="0"/>
        <pt x="144" y="226" on="1"/>
      </contour>
    </TTGlyph>
    <TTGlyph name="asterisk" xMin="56" yMin="83" xMax="544" yMax="570">
      <contour>
        <pt x="113" y="133" on="1"/>
        <pt x="206" y="286" on="1"/>
        <pt x="56" y="353" on="1"/>
        <pt x="82" y="435" on="1"/>
        <pt x="242" y="396" on="1"/>
        <pt x="256" y="570" on="1"/>
        <pt x="344" y="570" on="1"/>
        <pt x="358" y="396" on="1"/>
        <pt x="518" y="435" on="1"/>
        <pt x="544" y="353" on="1"/>
        <pt x="394" y="286" on="1"/>
        <pt x="487" y="133" on="1"/>
        <pt x="414" y="83" on="1"/>
        <pt x="300" y="219" on="1"/>
        <pt x="186" y="83" on="1"/>
      </contour>
    </TTGlyph>
    <TTGlyph name="asterisk.a" xMin="76" yMin="265" xMax="524" yMax="712">
      <contour>
        <pt x="127" y="315" on="1"/>
        <pt x="206" y="452" on="1"/>
        <pt x="76" y="507" on="1"/>
        <pt x="102" y="589" on="1"/>
        <pt x="242" y="562" on="1"/>
        <pt x="256" y="712" on="1"/>
        <pt x="344" y="712" on="1"/>
        <pt x="358" y="562" on="1"/>
        <pt x="498" y="589" on="1"/>
        <pt x="524" y="507" on="1"/>
        <pt x="394" y="452" on="1"/>
        <pt x="473" y="315" on="1"/>
        <pt x="400" y="265" on="1"/>
        <pt x="300" y="385" on="1"/>
        <pt x="200" y="265" on="1"/>
      </contour>
    </TTGlyph>
    <TTGlyph name="at" xMin="24" yMin="-148" xMax="552" yMax="648">
      <contour>
        <pt x="552" y="100" on="1"/>
        <pt x="462" y="100" on="1"/>
        <pt x="450" y="148" on="1"/>
        <pt x="446" y="148" on="1"/>
        <pt x="428" y="121" on="0"/>
        <pt x="373" y="88" on="0"/>
        <pt x="331" y="88" on="1"/>
        <pt x="303" y="88" on="0"/>
        <pt x="257" y="111" on="0"/>
        <pt x="223" y="151" on="0"/>
        <pt x="204" y="203" on="0"/>
        <pt x="204" y="232" on="1"/>
        <pt x="204" y="273" on="0"/>
        <pt x="239" y="332" on="0"/>
        <pt x="303" y="372" on="0"/>
        <pt x="393" y="397" on="0"/>
        <pt x="448" y="404" on="1"/>
        <pt x="448" y="420" on="1"/>
        <pt x="448" y="445" on="0"/>
        <pt x="432" y="490" on="0"/>
        <pt x="401" y="525" on="0"/>
        <pt x="354" y="546" on="0"/>
        <pt x="323" y="546" on="1"/>
        <pt x="292" y="546" on="0"/>
        <pt x="227" y="515" on="0"/>
        <pt x="174" y="446" on="0"/>
        <pt x="140" y="332" on="0"/>
        <pt x="140" y="250" on="1"/>
        <pt x="140" y="173" on="0"/>
        <pt x="175" y="61" on="0"/>
        <pt x="233" y="-11" on="0"/>
        <pt x="307" y="-46" on="0"/>
        <pt x="345" y="-46" on="1"/>
        <pt x="367" y="-46" on="0"/>
        <pt x="402" y="-41" on="0"/>
        <pt x="432" y="-32" on="0"/>
        <pt x="460" y="-18" on="0"/>
        <pt x="474" y="-10" on="1"/>
        <pt x="522" y="-94" on="1"/>
        <pt x="478" y="-118" on="0"/>
        <pt x="393" y="-148" on="0"/>
        <pt x="338" y="-148" on="1"/>
        <pt x="278" y="-148" on="0"/>
        <pt x="164" y="-100" on="0"/>
        <pt x="77" y="-1" on="0"/>
        <pt x="24" y="150" on="0"/>
        <pt x="24" y="254" on="1"/>
        <pt x="24" y="358" on="0"/>
        <pt x="73" y="507" on="0"/>
        <pt x="156" y="603" on="0"/>
        <pt x="266" y="648" on="0"/>
        <pt x="327" y="648" on="1"/>
        <pt x="386" y="648" on="0"/>
        <pt x="471" y="610" on="0"/>
        <pt x="526" y="543" on="0"/>
        <pt x="552" y="452" on="0"/>
        <pt x="552" y="400" on="1"/>
      </contour>
      <contour>
        <pt x="328" y="236" on="1"/>
        <pt x="328" y="219" on="0"/>
        <pt x="350" y="198" on="0"/>
        <pt x="370" y="198" on="1"/>
        <pt x="390" y="198" on="0"/>
        <pt x="417" y="213" on="0"/>
        <pt x="430" y="224" on="1"/>
        <pt x="430" y="302" on="1"/>
        <pt x="372" y="293" on="0"/>
        <pt x="328" y="265" on="0"/>
      </contour>
    </TTGlyph>
    <TTGlyph name="at.case" xMin="24" yMin="-28" xMax="552" yMax="662">
      <contour>
        <pt x="552" y="160" on="1"/>
        <pt x="462" y="160" on="1"/>
        <pt x="450" y="208" on="1"/>
        <pt x="446" y="208" on="1"/>
        <pt x="428" y="181" on="0"/>
        <pt x="373" y="148" on="0"/>
        <pt x="331" y="148" on="1"/>
        <pt x="303" y="148" on="0"/>
        <pt x="257" y="171" on="0"/>
        <pt x="223" y="211" on="0"/>
        <pt x="204" y="263" on="0"/>
        <pt x="204" y="292" on="1"/>
        <pt x="204" y="333" on="0"/>
        <pt x="239" y="392" on="0"/>
        <pt x="303" y="432" on="0"/>
        <pt x="393" y="457" on="0"/>
        <pt x="448" y="464" on="1"/>
        <pt x="448" y="470" on="1"/>
        <pt x="448" y="506" on="0"/>
        <pt x="388" y="560" on="0"/>
        <pt x="331" y="560" on="1"/>
        <pt x="300" y="560" on="0"/>
        <pt x="232" y="536" on="0"/>
        <pt x="176" y="478" on="0"/>
        <pt x="140" y="382" on="0"/>
        <pt x="140" y="310" on="1"/>
        <pt x="140" y="248" on="0"/>
        <pt x="175" y="159" on="0"/>
        <pt x="233" y="102" on="0"/>
        <pt x="307" y="74" on="0"/>
        <pt x="345" y="74" on="1"/>
        <pt x="367" y="74" on="0"/>
        <pt x="402" y="79" on="0"/>
        <pt x="432" y="88" on="0"/>
        <pt x="460" y="102" on="0"/>
        <pt x="474" y="110" on="1"/>
        <pt x="522" y="26" on="1"/>
        <pt x="478" y="2" on="0"/>
        <pt x="393" y="-28" on="0"/>
        <pt x="338" y="-28" on="1"/>
        <pt x="278" y="-28" on="0"/>
        <pt x="164" y="13" on="0"/>
        <pt x="77" y="97" on="0"/>
        <pt x="24" y="226" on="0"/>
        <pt x="24" y="314" on="1"/>
        <pt x="24" y="408" on="0"/>
        <pt x="75" y="540" on="0"/>
        <pt x="161" y="624" on="0"/>
        <pt x="273" y="662" on="0"/>
        <pt x="335" y="662" on="1"/>
        <pt x="391" y="662" on="0"/>
        <pt x="473" y="627" on="0"/>
        <pt x="526" y="567" on="0"/>
        <pt x="552" y="486" on="0"/>
        <pt x="552" y="440" on="1"/>
      </contour>
      <contour>
        <pt x="328" y="296" on="1"/>
        <pt x="328" y="279" on="0"/>
        <pt x="350" y="258" on="0"/>
        <pt x="370" y="258" on="1"/>
        <pt x="390" y="258" on="0"/>
        <pt x="417" y="273" on="0"/>
        <pt x="430" y="284" on="1"/>
        <pt x="430" y="362" on="1"/>
        <pt x="372" y="353" on="0"/>
        <pt x="328" y="325" on="0"/>
      </contour>
    </TTGlyph>
    <TTGlyph name="atilde" xMin="54" yMin="-12" xMax="542" yMax="730">
      <component glyphName="a" x="0" y="0" flags="0x204"/>
      <component glyphName="uni0303" x="6" y="0" flags="0x4"/>
    </TTGlyph>
    <TTGlyph name="atilde.a" xMin="42" yMin="-12" xMax="536" yMax="730">
      <component glyphName="uni0251" x="0" y="0" flags="0x204"/>
      <component glyphName="uni0303" x="16" y="0" flags="0x4"/>
    </TTGlyph>
    <TTGlyph name="b" xMin="64" yMin="-12" xMax="558" yMax="696">
      <contour>
        <pt x="64" y="696" on="1"/>
        <pt x="236" y="696" on="1"/>
        <pt x="236" y="534" on="1"/>
        <pt x="232" y="462" on="1"/>
        <pt x="259" y="486" on="0"/>
        <pt x="325" y="512" on="0"/>
        <pt x="359" y="512" on="1"/>
        <pt x="404" y="512" on="0"/>
        <pt x="478" y="476" on="0"/>
        <pt x="530" y="410" on="0"/>
        <pt x="558" y="316" on="0"/>
        <pt x="558" y="259" on="1"/>
        <pt x="558" y="194" on="0"/>
        <pt x="522" y="93" on="0"/>
        <pt x="463" y="24" on="0"/>
        <pt x="386" y="-12" on="0"/>
        <pt x="345" y="-12" on="1"/>
        <pt x="311" y="-12" on="0"/>
        <pt x="245" y="21" on="0"/>
        <pt x="216" y="54" on="1"/>
        <pt x="212" y="54" on="1"/>
        <pt x="198" y="0" on="1"/>
        <pt x="64" y="0" on="1"/>
      </contour>
      <contour>
        <pt x="236" y="152" on="1"/>
        <pt x="252" y="138" on="0"/>
        <pt x="287" y="128" on="0"/>
        <pt x="304" y="128" on="1"/>
        <pt x="320" y="128" on="0"/>
        <pt x="348" y="141" on="0"/>
        <pt x="369" y="171" on="0"/>
        <pt x="382" y="220" on="0"/>
        <pt x="382" y="256" on="1"/>
        <pt x="382" y="318" on="0"/>
        <pt x="345" y="372" on="0"/>
        <pt x="308" y="372" on="1"/>
        <pt x="288" y="372" on="0"/>
        <pt x="254" y="356" on="0"/>
        <pt x="236" y="336" on="1"/>
      </contour>
    </TTGlyph>
    <TTGlyph name="b.sups" xMin="147" yMin="252" xMax="480" yMax="719">
      <contour>
        <pt x="147" y="719" on="1"/>
        <pt x="266" y="719" on="1"/>
        <pt x="266" y="613" on="1"/>
        <pt x="264" y="566" on="1"/>
        <pt x="281" y="582" on="0"/>
        <pt x="325" y="599" on="0"/>
        <pt x="347" y="599" on="1"/>
        <pt x="408" y="599" on="0"/>
        <pt x="480" y="507" on="0"/>
        <pt x="480" y="431" on="1"/>
        <pt x="480" y="388" on="0"/>
        <pt x="456" y="322" on="0"/>
        <pt x="417" y="276" on="0"/>
        <pt x="365" y="252" on="0"/>
        <pt x="338" y="252" on="1"/>
        <pt x="291" y="252" on="0"/>
        <pt x="252" y="296" on="1"/>
        <pt x="250" y="296" on="1"/>
        <pt x="240" y="260" on="1"/>
        <pt x="147" y="260" on="1"/>
      </contour>
      <contour>
        <pt x="266" y="362" on="1"/>
        <pt x="276" y="354" on="0"/>
        <pt x="298" y="348" on="0"/>
        <pt x="309" y="348" on="1"/>
        <pt x="329" y="348" on="0"/>
        <pt x="358" y="382" on="0"/>
        <pt x="358" y="429" on="1"/>
        <pt x="358" y="469" on="0"/>
        <pt x="335" y="503" on="0"/>
        <pt x="312" y="503" on="1"/>
        <pt x="287" y="503" on="0"/>
        <pt x="266" y="481" on="1"/>
      </contour>
    </TTGlyph>
    <TTGlyph name="backslash" xMin="64" yMin="-160" xMax="536" yMax="710">
      <contour>
        <pt x="64" y="710" on="1"/>
        <pt x="206" y="710" on="1"/>
        <pt x="536" y="-160" on="1"/>
        <pt x="394" y="-160" on="1"/>
      </contour>
    </TTGlyph>
    <TTGlyph name="bar" xMin="224" yMin="-250" xMax="376" yMax="750">
      <contour>
        <pt x="224" y="750" on="1"/>
        <pt x="376" y="750" on="1"/>
        <pt x="376" y="-250" on="1"/>
        <pt x="224" y="-250" on="1"/>
      </contour>
    </TTGlyph>
    <TTGlyph name="braceleft" xMin="100" yMin="-152" xMax="494" yMax="708">
      <contour>
        <pt x="224" y="-6" on="1"/>
        <pt x="224" y="20" on="0"/>
        <pt x="227" y="60" on="0"/>
        <pt x="231" y="96" on="0"/>
        <pt x="234" y="133" on="0"/>
        <pt x="234" y="156" on="1"/>
        <pt x="234" y="169" on="0"/>
        <pt x="221" y="194" on="0"/>
        <pt x="191" y="214" on="0"/>
        <pt x="139" y="227" on="0"/>
        <pt x="100" y="228" on="1"/>
        <pt x="100" y="328" on="1"/>
        <pt x="139" y="329" on="0"/>
        <pt x="191" y="342" on="0"/>
        <pt x="221" y="362" on="0"/>
        <pt x="234" y="387" on="0"/>
        <pt x="234" y="400" on="1"/>
        <pt x="234" y="423" on="0"/>
        <pt x="231" y="460" on="0"/>
        <pt x="227" y="496" on="0"/>
        <pt x="224" y="536" on="0"/>
        <pt x="224" y="562" on="1"/>
        <pt x="224" y="603" on="0"/>
        <pt x="246" y="659" on="0"/>
        <pt x="292" y="693" on="0"/>
        <pt x="362" y="708" on="0"/>
        <pt x="411" y="708" on="1"/>
        <pt x="494" y="708" on="1"/>
        <pt x="494" y="618" on="1"/>
        <pt x="457" y="618" on="1"/>
        <pt x="428" y="618" on="0"/>
        <pt x="392" y="613" on="0"/>
        <pt x="372" y="600" on="0"/>
        <pt x="364" y="575" on="0"/>
        <pt x="364" y="556" on="1"/>
        <pt x="364" y="518" on="0"/>
        <pt x="368" y="444" on="0"/>
        <pt x="368" y="400" on="1"/>
        <pt x="368" y="340" on="0"/>
        <pt x="319" y="289" on="0"/>
        <pt x="264" y="280" on="1"/>
        <pt x="264" y="276" on="1"/>
        <pt x="319" y="267" on="0"/>
        <pt x="368" y="216" on="0"/>
        <pt x="368" y="156" on="1"/>
        <pt x="368" y="112" on="0"/>
        <pt x="364" y="38" on="0"/>
        <pt x="364" y="0" on="1"/>
        <pt x="364" y="-20" on="0"/>
        <pt x="372" y="-44" on="0"/>
        <pt x="392" y="-57" on="0"/>
        <pt x="428" y="-62" on="0"/>
        <pt x="457" y="-62" on="1"/>
        <pt x="494" y="-62" on="1"/>
        <pt x="494" y="-152" on="1"/>
        <pt x="411" y="-152" on="1"/>
        <pt x="362" y="-152" on="0"/>
        <pt x="292" y="-137" on="0"/>
        <pt x="246" y="-103" on="0"/>
        <pt x="224" y="-47" on="0"/>
      </contour>
    </TTGlyph>
    <TTGlyph name="braceright" xMin="107" yMin="-152" xMax="501" yMax="708">
      <contour>
        <pt x="144" y="-62" on="1"/>
        <pt x="172" y="-62" on="0"/>
        <pt x="208" y="-57" on="0"/>
        <pt x="228" y="-44" on="0"/>
        <pt x="236" y="-20" on="0"/>
        <pt x="236" y="0" on="1"/>
        <pt x="236" y="38" on="0"/>
        <pt x="233" y="112" on="0"/>
        <pt x="233" y="156" on="1"/>
        <pt x="233" y="216" on="0"/>
        <pt x="282" y="267" on="0"/>
        <pt x="337" y="276" on="1"/>
        <pt x="337" y="280" on="1"/>
        <pt x="282" y="289" on="0"/>
        <pt x="233" y="340" on="0"/>
        <pt x="233" y="400" on="1"/>
        <pt x="233" y="444" on="0"/>
        <pt x="236" y="518" on="0"/>
        <pt x="236" y="556" on="1"/>
        <pt x="236" y="575" on="0"/>
        <pt x="228" y="600" on="0"/>
        <pt x="208" y="613" on="0"/>
        <pt x="172" y="618" on="0"/>
        <pt x="144" y="618" on="1"/>
        <pt x="107" y="618" on="1"/>
        <pt x="107" y="708" on="1"/>
        <pt x="190" y="708" on="1"/>
        <pt x="287" y="708" on="0"/>
        <pt x="377" y="644" on="0"/>
        <pt x="377" y="562" on="1"/>
        <pt x="377" y="536" on="0"/>
        <pt x="374" y="496" on="0"/>
        <pt x="369" y="460" on="0"/>
        <pt x="366" y="423" on="0"/>
        <pt x="366" y="400" on="1"/>
        <pt x="366" y="387" on="0"/>
        <pt x="379" y="362" on="0"/>
        <pt x="410" y="342" on="0"/>
        <pt x="462" y="329" on="0"/>
        <pt x="501" y="328" on="1"/>
        <pt x="501" y="228" on="1"/>
        <pt x="462" y="227" on="0"/>
        <pt x="410" y="214" on="0"/>
        <pt x="379" y="194" on="0"/>
        <pt x="366" y="169" on="0"/>
        <pt x="366" y="156" on="1"/>
        <pt x="366" y="133" on="0"/>
        <pt x="369" y="96" on="0"/>
        <pt x="374" y="60" on="0"/>
        <pt x="377" y="20" on="0"/>
        <pt x="377" y="-6" on="1"/>
        <pt x="377" y="-47" on="0"/>
        <pt x="355" y="-103" on="0"/>
        <pt x="309" y="-137" on="0"/>
        <pt x="239" y="-152" on="0"/>
        <pt x="190" y="-152" on="1"/>
        <pt x="107" y="-152" on="1"/>
        <pt x="107" y="-62" on="1"/>
      </contour>
    </TTGlyph>
    <TTGlyph name="bracketleft" xMin="191" yMin="-152" xMax="494" yMax="708">
      <contour>
        <pt x="191" y="708" on="1"/>
        <pt x="494" y="708" on="1"/>
        <pt x="494" y="618" on="1"/>
        <pt x="321" y="618" on="1"/>
        <pt x="321" y="-62" on="1"/>
        <pt x="494" y="-62" on="1"/>
        <pt x="494" y="-152" on="1"/>
        <pt x="191" y="-152" on="1"/>
      </contour>
    </TTGlyph>
    <TTGlyph name="bracketright" xMin="107" yMin="-152" xMax="410" yMax="708">
      <contour>
        <pt x="279" y="-62" on="1"/>
        <pt x="279" y="618" on="1"/>
        <pt x="107" y="618" on="1"/>
        <pt x="107" y="708" on="1"/>
        <pt x="410" y="708" on="1"/>
        <pt x="410" y="-152" on="1"/>
        <pt x="107" y="-152" on="1"/>
        <pt x="107" y="-62" on="1"/>
      </contour>
    </TTGlyph>
    <TTGlyph name="breve" xMin="146" yMin="574" xMax="454" yMax="738">
      <component glyphName="uni0306" x="0" y="0" flags="0x204"/>
    </TTGlyph>
    <TTGlyph name="brokenbar" xMin="224" yMin="-250" xMax="376" yMax="750">
      <contour>
        <pt x="224" y="750" on="1"/>
        <pt x="376" y="750" on="1"/>
        <pt x="376" y="320" on="1"/>
        <pt x="224" y="320" on="1"/>
      </contour>
      <contour>
        <pt x="376" y="200" on="1"/>
        <pt x="376" y="-250" on="1"/>
        <pt x="224" y="-250" on="1"/>
        <pt x="224" y="200" on="1"/>
      </contour>
    </TTGlyph>
    <TTGlyph name="bullet" xMin="130" yMin="96" xMax="470" yMax="428">
      <contour>
        <pt x="300" y="96" on="1"/>
        <pt x="263" y="96" on="0"/>
        <pt x="201" y="121" on="0"/>
        <pt x="156" y="166" on="0"/>
        <pt x="130" y="227" on="0"/>
        <pt x="130" y="262" on="1"/>
        <pt x="130" y="297" on="0"/>
        <pt x="156" y="358" on="0"/>
        <pt x="201" y="403" on="0"/>
        <pt x="263" y="428" on="0"/>
        <pt x="300" y="428" on="1"/>
        <pt x="337" y="428" on="0"/>
        <pt x="399" y="403" on="0"/>
        <pt x="444" y="358" on="0"/>
        <pt x="470" y="297" on="0"/>
        <pt x="470" y="262" on="1"/>
        <pt x="470" y="227" on="0"/>
        <pt x="444" y="166" on="0"/>
        <pt x="399" y="121" on="0"/>
        <pt x="337" y="96" on="0"/>
      </contour>
    </TTGlyph>
    <TTGlyph name="c" xMin="62" yMin="-12" xMax="551" yMax="512">
      <contour>
        <pt x="62" y="250" on="1"/>
        <pt x="62" y="312" on="0"/>
        <pt x="110" y="410" on="0"/>
        <pt x="191" y="477" on="0"/>
        <pt x="297" y="512" on="0"/>
        <pt x="355" y="512" on="1"/>
        <pt x="414" y="512" on="0"/>
        <pt x="512" y="476" on="0"/>
        <pt x="544" y="446" on="1"/>
        <pt x="466" y="340" on="1"/>
        <pt x="438" y="359" on="0"/>
        <pt x="389" y="374" on="0"/>
        <pt x="365" y="374" on="1"/>
        <pt x="308" y="374" on="0"/>
        <pt x="238" y="307" on="0"/>
        <pt x="238" y="250" on="1"/>
        <pt x="238" y="193" on="0"/>
        <pt x="306" y="126" on="0"/>
        <pt x="359" y="126" on="1"/>
        <pt x="396" y="126" on="0"/>
        <pt x="457" y="152" on="0"/>
        <pt x="483" y="168" on="1"/>
        <pt x="551" y="60" on="1"/>
        <pt x="504" y="22" on="0"/>
        <pt x="392" y="-12" on="0"/>
        <pt x="342" y="-12" on="1"/>
        <pt x="283" y="-12" on="0"/>
        <pt x="180" y="23" on="0"/>
        <pt x="105" y="90" on="0"/>
        <pt x="62" y="188" on="0"/>
      </contour>
    </TTGlyph>
    <TTGlyph name="c.sups" xMin="166" yMin="252" xMax="468" yMax="599">
      <contour>
        <pt x="166" y="425" on="1"/>
        <pt x="166" y="466" on="0"/>
        <pt x="198" y="531" on="0"/>
        <pt x="251" y="576" on="0"/>
        <pt x="320" y="599" on="0"/>
        <pt x="358" y="599" on="1"/>
        <pt x="391" y="599" on="0"/>
        <pt x="445" y="579" on="0"/>
        <pt x="463" y="562" on="1"/>
        <pt x="409" y="489" on="1"/>
        <pt x="397" y="498" on="0"/>
        <pt x="376" y="504" on="0"/>
        <pt x="365" y="504" on="1"/>
        <pt x="329" y="504" on="0"/>
        <pt x="288" y="462" on="0"/>
        <pt x="288" y="425" on="1"/>
        <pt x="288" y="389" on="0"/>
        <pt x="329" y="346" on="0"/>
        <pt x="361" y="346" on="1"/>
        <pt x="379" y="346" on="0"/>
        <pt x="408" y="359" on="0"/>
        <pt x="421" y="367" on="1"/>
        <pt x="468" y="293" on="1"/>
        <pt x="441" y="271" on="0"/>
        <pt x="376" y="252" on="0"/>
        <pt x="347" y="252" on="1"/>
        <pt x="309" y="252" on="0"/>
        <pt x="243" y="275" on="0"/>
        <pt x="194" y="320" on="0"/>
        <pt x="166" y="384" on="0"/>
      </contour>
    </TTGlyph>
    <TTGlyph name="cacute" xMin="62" yMin="-12" xMax="551" yMax="748">
      <component glyphName="c" x="0" y="0" flags="0x204"/>
      <component glyphName="uni0301" x="40" y="0" flags="0x4"/>
    </TTGlyph>
    <TTGlyph name="caron" xMin="126" yMin="574" xMax="474" yMax="748">
      <component glyphName="uni030C" x="0" y="0" flags="0x204"/>
    </TTGlyph>
    <TTGlyph name="ccaron" xMin="62" yMin="-12" xMax="551" yMax="748">
      <component glyphName="c" x="0" y="0" flags="0x204"/>
      <component glyphName="uni030C" x="40" y="0" flags="0x4"/>
    </TTGlyph>
    <TTGlyph name="ccedilla" xMin="62" yMin="-224" xMax="551" yMax="512">
      <component glyphName="c" x="0" y="0" flags="0x204"/>
      <component glyphName="uni0327" x="40" y="0" flags="0x4"/>
    </TTGlyph>
    <TTGlyph name="ccircumflex" xMin="62" yMin="-12" xMax="551" yMax="748">
      <component glyphName="c" x="0" y="0" flags="0x204"/>
      <component glyphName="uni0302" x="40" y="0" flags="0x4"/>
    </TTGlyph>
    <TTGlyph name="cdotaccent" xMin="62" yMin="-12" xMax="551" yMax="764">
      <component glyphName="c" x="0" y="0" flags="0x204"/>
      <component glyphName="uni0307" x="40" y="0" flags="0x4"/>
    </TTGlyph>
    <TTGlyph name="cedilla" xMin="190" yMin="-224" xMax="392" yMax="4">
      <component glyphName="uni0327" x="0" y="0" flags="0x204"/>
    </TTGlyph>
    <TTGlyph name="cent" xMin="90" yMin="-44" xMax="530" yMax="656">
      <contour>
        <pt x="310" y="413" on="1"/>
        <pt x="282" y="398" on="0"/>
        <pt x="256" y="343" on="0"/>
        <pt x="256" y="306" on="1"/>
        <pt x="256" y="230" on="0"/>
        <pt x="310" y="199" on="1"/>
      </contour>
      <contour>
        <pt x="530" y="106" on="1"/>
        <pt x="501" y="81" on="0"/>
        <pt x="434" y="52" on="0"/>
        <pt x="402" y="47" on="1"/>
        <pt x="402" y="-44" on="1"/>
        <pt x="310" y="-44" on="1"/>
        <pt x="310" y="47" on="1"/>
        <pt x="209" y="61" on="0"/>
        <pt x="90" y="194" on="0"/>
        <pt x="90" y="306" on="1"/>
        <pt x="90" y="359" on="0"/>
        <pt x="123" y="446" on="0"/>
        <pt x="181" y="511" on="0"/>
        <pt x="262" y="553" on="0"/>
        <pt x="310" y="562" on="1"/>
        <pt x="310" y="656" on="1"/>
        <pt x="402" y="656" on="1"/>
        <pt x="402" y="567" on="1"/>
        <pt x="440" y="563" on="0"/>
        <pt x="502" y="534" on="0"/>
        <pt x="524" y="512" on="1"/>
        <pt x="446" y="406" on="1"/>
        <pt x="423" y="424" on="0"/>
        <pt x="402" y="429" on="1"/>
        <pt x="402" y="184" on="1"/>
        <pt x="419" y="188" on="0"/>
        <pt x="449" y="204" on="0"/>
        <pt x="462" y="214" on="1"/>
      </contour>
    </TTGlyph>
    <TTGlyph name="circumflex" xMin="126" yMin="574" xMax="474" yMax="748">
      <component glyphName="uni0302" x="0" y="0" flags="0x204"/>
    </TTGlyph>
    <TTGlyph name="colon" xMin="170" yMin="-12" xMax="430" yMax="558">
      <component glyphName="period" x="0" y="310" flags="0x204"/>
      <component glyphName="period" x="0" y="0" flags="0x4"/>
    </TTGlyph>
    <TTGlyph name="colonmonetary" xMin="72" yMin="-110" xMax="570" yMax="744">
      <contour>
        <pt x="313" y="136" on="1"/>
        <pt x="327" y="128" on="0"/>
        <pt x="346" y="123" on="1"/>
        <pt x="392" y="512" on="1"/>
        <pt x="387" y="513" on="0"/>
        <pt x="375" y="514" on="0"/>
        <pt x="368" y="514" on="1"/>
        <pt x="358" y="514" on="1"/>
      </contour>
      <contour>
        <pt x="302" y="493" on="1"/>
        <pt x="244" y="447" on="0"/>
        <pt x="244" y="318" on="1"/>
        <pt x="244" y="243" on="0"/>
        <pt x="266" y="193" on="1"/>
      </contour>
      <contour>
        <pt x="570" y="80" on="1"/>
        <pt x="493" y="-3" on="0"/>
        <pt x="384" y="-11" on="1"/>
        <pt x="372" y="-110" on="1"/>
        <pt x="318" y="-110" on="1"/>
        <pt x="330" y="-10" on="1"/>
        <pt x="322" y="-9" on="0"/>
        <pt x="304" y="-8" on="0"/>
        <pt x="296" y="-6" on="1"/>
        <pt x="284" y="-110" on="1"/>
        <pt x="230" y="-110" on="1"/>
        <pt x="244" y="10" on="1"/>
        <pt x="166" y="42" on="0"/>
        <pt x="72" y="192" on="0"/>
        <pt x="72" y="312" on="1"/>
        <pt x="72" y="382" on="0"/>
        <pt x="107" y="496" on="0"/>
        <pt x="172" y="580" on="0"/>
        <pt x="263" y="632" on="0"/>
        <pt x="320" y="641" on="1"/>
        <pt x="332" y="744" on="1"/>
        <pt x="386" y="744" on="1"/>
        <pt x="374" y="646" on="1"/>
        <pt x="380" y="646" on="1"/>
        <pt x="387" y="646" on="0"/>
        <pt x="401" y="645" on="0"/>
        <pt x="408" y="644" on="1"/>
        <pt x="420" y="744" on="1"/>
        <pt x="474" y="744" on="1"/>
        <pt x="461" y="632" on="1"/>
        <pt x="488" y="622" on="0"/>
        <pt x="539" y="591" on="0"/>
        <pt x="562" y="568" on="1"/>
        <pt x="468" y="476" on="1"/>
        <pt x="462" y="481" on="0"/>
        <pt x="450" y="488" on="0"/>
        <pt x="444" y="492" on="1"/>
        <pt x="400" y="122" on="1"/>
        <pt x="423" y="127" on="0"/>
        <pt x="459" y="150" on="0"/>
        <pt x="476" y="168" on="1"/>
      </contour>
    </TTGlyph>
    <TTGlyph name="comma" xMin="177" yMin="-218" xMax="442" yMax="238">
      <contour>
        <pt x="177" y="-120" on="1"/>
        <pt x="244" y="-98" on="0"/>
        <pt x="309" y="-30" on="0"/>
        <pt x="308" y="12" on="1"/>
        <pt x="300" y="12" on="1"/>
        <pt x="277" y="12" on="0"/>
        <pt x="233" y="27" on="0"/>
        <pt x="200" y="56" on="0"/>
        <pt x="180" y="98" on="0"/>
        <pt x="180" y="125" on="1"/>
        <pt x="180" y="176" on="0"/>
        <pt x="252" y="238" on="0"/>
        <pt x="305" y="238" on="1"/>
        <pt x="373" y="238" on="0"/>
        <pt x="442" y="139" on="0"/>
        <pt x="442" y="50" on="1"/>
        <pt x="442" y="-49" on="0"/>
        <pt x="330" y="-186" on="0"/>
        <pt x="218" y="-218" on="1"/>
      </contour>
    </TTGlyph>
    <TTGlyph name="comma.dnom" xMin="220" yMin="-136" xMax="380" yMax="134">
      <contour>
        <pt x="220" y="-74" on="1"/>
        <pt x="261" y="-61" on="0"/>
        <pt x="302" y="-27" on="0"/>
        <pt x="302" y="2" on="1"/>
        <pt x="299" y="2" on="1"/>
        <pt x="272" y="2" on="0"/>
        <pt x="230" y="36" on="0"/>
        <pt x="230" y="68" on="1"/>
        <pt x="230" y="97" on="0"/>
        <pt x="272" y="134" on="0"/>
        <pt x="302" y="134" on="1"/>
        <pt x="340" y="134" on="0"/>
        <pt x="380" y="79" on="0"/>
        <pt x="380" y="28" on="1"/>
        <pt x="380" y="-34" on="0"/>
        <pt x="310" y="-118" on="0"/>
        <pt x="244" y="-136" on="1"/>
      </contour>
    </TTGlyph>
    <TTGlyph name="comma.numr" xMin="220" yMin="124" xMax="380" yMax="394">
      <component glyphName="comma.dnom" x="0" y="260" flags="0x204"/>
    </TTGlyph>
    <TTGlyph name="comma.subs" xMin="220" yMin="-305" xMax="380" yMax="-35">
      <component glyphName="comma.dnom" x="0" y="-169" flags="0x204"/>
    </TTGlyph>
    <TTGlyph name="comma.sups" xMin="220" yMin="304" xMax="380" yMax="574">
      <component glyphName="comma.dnom" x="0" y="440" flags="0x204"/>
    </TTGlyph>
    <TTGlyph name="copyright" xMin="14" yMin="-8" xMax="586" yMax="656">
      <contour>
        <pt x="14" y="326" on="1"/>
        <pt x="14" y="404" on="0"/>
        <pt x="61" y="527" on="0"/>
        <pt x="139" y="611" on="0"/>
        <pt x="243" y="656" on="0"/>
        <pt x="300" y="656" on="1"/>
        <pt x="357" y="656" on="0"/>
        <pt x="461" y="611" on="0"/>
        <pt x="539" y="527" on="0"/>
        <pt x="586" y="404" on="0"/>
        <pt x="586" y="326" on="1"/>
        <pt x="586" y="248" on="0"/>
        <pt x="539" y="124" on="0"/>
        <pt x="461" y="38" on="0"/>
        <pt x="357" y="-8" on="0"/>
        <pt x="300" y="-8" on="1"/>
        <pt x="243" y="-8" on="0"/>
        <pt x="139" y="38" on="0"/>
        <pt x="61" y="124" on="0"/>
        <pt x="14" y="248" on="0"/>
      </contour>
      <contour>
        <pt x="86" y="326" on="1"/>
        <pt x="86" y="266" on="0"/>
        <pt x="117" y="168" on="0"/>
        <pt x="173" y="98" on="0"/>
        <pt x="252" y="60" on="0"/>
        <pt x="300" y="60" on="1"/>
        <pt x="348" y="60" on="0"/>
        <pt x="427" y="98" on="0"/>
        <pt x="483" y="168" on="0"/>
        <pt x="514" y="266" on="0"/>
        <pt x="514" y="326" on="1"/>
        <pt x="514" y="386" on="0"/>
        <pt x="483" y="483" on="0"/>
        <pt x="427" y="551" on="0"/>
        <pt x="348" y="588" on="0"/>
        <pt x="300" y="588" on="1"/>
        <pt x="252" y="588" on="0"/>
        <pt x="173" y="551" on="0"/>
        <pt x="117" y="483" on="0"/>
        <pt x="86" y="386" on="0"/>
      </contour>
      <contour>
        <pt x="136" y="324" on="1"/>
        <pt x="136" y="368" on="0"/>
        <pt x="165" y="440" on="0"/>
        <pt x="214" y="491" on="0"/>
        <pt x="277" y="518" on="0"/>
        <pt x="312" y="518" on="1"/>
        <pt x="353" y="518" on="0"/>
        <pt x="407" y="488" on="0"/>
        <pt x="428" y="468" on="1"/>
        <pt x="365" y="398" on="1"/>
        <pt x="355" y="409" on="0"/>
        <pt x="336" y="420" on="0"/>
        <pt x="324" y="420" on="1"/>
        <pt x="290" y="420" on="0"/>
        <pt x="257" y="363" on="0"/>
        <pt x="257" y="324" on="1"/>
        <pt x="257" y="279" on="0"/>
        <pt x="289" y="226" on="0"/>
        <pt x="318" y="226" on="1"/>
        <pt x="335" y="226" on="0"/>
        <pt x="356" y="237" on="0"/>
        <pt x="370" y="246" on="1"/>
        <pt x="424" y="168" on="1"/>
        <pt x="400" y="150" on="0"/>
        <pt x="345" y="128" on="0"/>
        <pt x="314" y="128" on="1"/>
        <pt x="275" y="128" on="0"/>
        <pt x="210" y="155" on="0"/>
        <pt x="162" y="206" on="0"/>
        <pt x="136" y="279" on="0"/>
      </contour>
    </TTGlyph>
    <TTGlyph name="currency" xMin="27" yMin="56" xMax="573" yMax="602">
      <contour>
        <pt x="27" y="141" on="1"/>
        <pt x="107" y="221" on="1"/>
        <pt x="74" y="268" on="0"/>
        <pt x="74" y="330" on="1"/>
        <pt x="74" y="362" on="0"/>
        <pt x="91" y="415" on="0"/>
        <pt x="106" y="437" on="1"/>
        <pt x="27" y="517" on="1"/>
        <pt x="112" y="602" on="1"/>
        <pt x="202" y="512" on="1"/>
        <pt x="250" y="532" on="0"/>
        <pt x="300" y="532" on="1"/>
        <pt x="350" y="532" on="0"/>
        <pt x="398" y="512" on="1"/>
        <pt x="488" y="602" on="1"/>
        <pt x="573" y="517" on="1"/>
        <pt x="493" y="437" on="1"/>
        <pt x="509" y="415" on="0"/>
        <pt x="526" y="362" on="0"/>
        <pt x="526" y="330" on="1"/>
        <pt x="526" y="298" on="0"/>
        <pt x="508" y="244" on="0"/>
        <pt x="492" y="221" on="1"/>
        <pt x="573" y="141" on="1"/>
        <pt x="488" y="56" on="1"/>
        <pt x="397" y="147" on="1"/>
        <pt x="374" y="137" on="0"/>
        <pt x="324" y="128" on="0"/>
        <pt x="300" y="128" on="1"/>
        <pt x="248" y="128" on="0"/>
        <pt x="203" y="147" on="1"/>
        <pt x="112" y="56" on="1"/>
      </contour>
      <contour>
        <pt x="226" y="330" on="1"/>
        <pt x="226" y="291" on="0"/>
        <pt x="268" y="246" on="0"/>
        <pt x="300" y="246" on="1"/>
        <pt x="332" y="246" on="0"/>
        <pt x="374" y="291" on="0"/>
        <pt x="374" y="330" on="1"/>
        <pt x="374" y="369" on="0"/>
        <pt x="332" y="414" on="0"/>
        <pt x="300" y="414" on="1"/>
        <pt x="268" y="414" on="0"/>
        <pt x="226" y="369" on="0"/>
      </contour>
    </TTGlyph>
    <TTGlyph name="d" xMin="42" yMin="-12" xMax="536" yMax="696">
      <contour>
        <pt x="42" y="250" on="1"/>
        <pt x="42" y="311" on="0"/>
        <pt x="78" y="409" on="0"/>
        <pt x="136" y="476" on="0"/>
        <pt x="212" y="512" on="0"/>
        <pt x="251" y="512" on="1"/>
        <pt x="293" y="512" on="0"/>
        <pt x="347" y="485" on="0"/>
        <pt x="370" y="462" on="1"/>
        <pt x="364" y="534" on="1"/>
        <pt x="364" y="696" on="1"/>
        <pt x="536" y="696" on="1"/>
        <pt x="536" y="0" on="1"/>
        <pt x="396" y="0" on="1"/>
        <pt x="384" y="46" on="1"/>
        <pt x="380" y="46" on="1"/>
        <pt x="354" y="20" on="0"/>
        <pt x="285" y="-12" on="0"/>
        <pt x="251" y="-12" on="1"/>
        <pt x="203" y="-12" on="0"/>
        <pt x="126" y="24" on="0"/>
        <pt x="72" y="92" on="0"/>
        <pt x="42" y="189" on="0"/>
      </contour>
      <contour>
        <pt x="218" y="252" on="1"/>
        <pt x="218" y="184" on="0"/>
        <pt x="259" y="128" on="0"/>
        <pt x="296" y="128" on="1"/>
        <pt x="317" y="128" on="0"/>
        <pt x="350" y="143" on="0"/>
        <pt x="364" y="164" on="1"/>
        <pt x="364" y="348" on="1"/>
        <pt x="349" y="362" on="0"/>
        <pt x="316" y="372" on="0"/>
        <pt x="298" y="372" on="1"/>
        <pt x="266" y="372" on="0"/>
        <pt x="218" y="318" on="0"/>
      </contour>
    </TTGlyph>
    <TTGlyph name="d.sups" xMin="125" yMin="252" xMax="458" yMax="719">
      <contour>
        <pt x="125" y="425" on="1"/>
        <pt x="125" y="466" on="0"/>
        <pt x="149" y="530" on="0"/>
        <pt x="188" y="575" on="0"/>
        <pt x="239" y="599" on="0"/>
        <pt x="265" y="599" on="1"/>
        <pt x="292" y="599" on="0"/>
        <pt x="328" y="580" on="0"/>
        <pt x="343" y="566" on="1"/>
        <pt x="339" y="613" on="1"/>
        <pt x="339" y="719" on="1"/>
        <pt x="458" y="719" on="1"/>
        <pt x="458" y="260" on="1"/>
        <pt x="361" y="260" on="1"/>
        <pt x="353" y="290" on="1"/>
        <pt x="350" y="290" on="1"/>
        <pt x="333" y="273" on="0"/>
        <pt x="287" y="252" on="0"/>
        <pt x="265" y="252" on="1"/>
        <pt x="201" y="252" on="0"/>
        <pt x="125" y="344" on="0"/>
      </contour>
      <contour>
        <pt x="247" y="427" on="1"/>
        <pt x="247" y="383" on="0"/>
        <pt x="273" y="348" on="0"/>
        <pt x="296" y="348" on="1"/>
        <pt x="310" y="348" on="0"/>
        <pt x="330" y="356" on="0"/>
        <pt x="339" y="370" on="1"/>
        <pt x="339" y="488" on="1"/>
        <pt x="329" y="496" on="0"/>
        <pt x="305" y="503" on="0"/>
        <pt x="294" y="503" on="1"/>
        <pt x="276" y="503" on="0"/>
        <pt x="247" y="470" on="0"/>
      </contour>
    </TTGlyph>
    <TTGlyph name="dagger" xMin="74" yMin="-80" xMax="526" yMax="712">
      <contour>
        <pt x="242" y="418" on="1"/>
        <pt x="74" y="408" on="1"/>
        <pt x="74" y="544" on="1"/>
        <pt x="242" y="534" on="1"/>
        <pt x="232" y="712" on="1"/>
        <pt x="368" y="712" on="1"/>
        <pt x="358" y="534" on="1"/>
        <pt x="526" y="544" on="1"/>
        <pt x="526" y="408" on="1"/>
        <pt x="358" y="418" on="1"/>
        <pt x="368" y="-80" on="1"/>
        <pt x="232" y="-80" on="1"/>
      </contour>
    </TTGlyph>
    <TTGlyph name="daggerdbl" xMin="74" yMin="-80" xMax="526" yMax="712">
      <contour>
        <pt x="74" y="224" on="1"/>
        <pt x="242" y="210" on="1"/>
        <pt x="232" y="316" on="1"/>
        <pt x="242" y="422" on="1"/>
        <pt x="74" y="408" on="1"/>
        <pt x="74" y="544" on="1"/>
        <pt x="242" y="534" on="1"/>
        <pt x="232" y="712" on="1"/>
        <pt x="368" y="712" on="1"/>
        <pt x="358" y="534" on="1"/>
        <pt x="526" y="544" on="1"/>
        <pt x="526" y="408" on="1"/>
        <pt x="358" y="422" on="1"/>
        <pt x="368" y="316" on="1"/>
        <pt x="358" y="210" on="1"/>
        <pt x="526" y="224" on="1"/>
        <pt x="526" y="88" on="1"/>
        <pt x="358" y="98" on="1"/>
        <pt x="368" y="-80" on="1"/>
        <pt x="232" y="-80" on="1"/>
        <pt x="242" y="98" on="1"/>
        <pt x="74" y="88" on="1"/>
      </contour>
    </TTGlyph>
    <TTGlyph name="dcaron" xMin="16" yMin="-12" xMax="646" yMax="774">
      <component glyphName="d" x="-26" y="0" flags="0x204"/>
      <component glyphName="uni030C.a" x="289" y="0" flags="0x4"/>
    </TTGlyph>
    <TTGlyph name="dcroat" xMin="42" yMin="-12" xMax="600" yMax="696">
      <contour>
        <pt x="364" y="328" on="1"/>
        <pt x="349" y="341" on="0"/>
        <pt x="317" y="352" on="0"/>
        <pt x="301" y="352" on="1"/>
        <pt x="267" y="352" on="0"/>
        <pt x="218" y="303" on="0"/>
        <pt x="218" y="242" on="1"/>
        <pt x="218" y="179" on="0"/>
        <pt x="259" y="128" on="0"/>
        <pt x="296" y="128" on="1"/>
        <pt x="317" y="128" on="0"/>
        <pt x="350" y="143" on="0"/>
        <pt x="364" y="164" on="1"/>
      </contour>
      <contour>
        <pt x="600" y="556" on="1"/>
        <pt x="536" y="551" on="1"/>
        <pt x="536" y="0" on="1"/>
        <pt x="396" y="0" on="1"/>
        <pt x="384" y="46" on="1"/>
        <pt x="380" y="46" on="1"/>
        <pt x="354" y="20" on="0"/>
        <pt x="285" y="-12" on="0"/>
        <pt x="251" y="-12" on="1"/>
        <pt x="203" y="-12" on="0"/>
        <pt x="126" y="23" on="0"/>
        <pt x="72" y="88" on="0"/>
        <pt x="42" y="181" on="0"/>
        <pt x="42" y="240" on="1"/>
        <pt x="42" y="299" on="0"/>
        <pt x="78" y="393" on="0"/>
        <pt x="136" y="458" on="0"/>
        <pt x="212" y="492" on="0"/>
        <pt x="251" y="492" on="1"/>
        <pt x="293" y="492" on="0"/>
        <pt x="347" y="465" on="0"/>
        <pt x="370" y="442" on="1"/>
        <pt x="364" y="514" on="1"/>
        <pt x="364" y="550" on="1"/>
        <pt x="216" y="550" on="1"/>
        <pt x="216" y="630" on="1"/>
        <pt x="364" y="630" on="1"/>
        <pt x="364" y="696" on="1"/>
        <pt x="536" y="696" on="1"/>
        <pt x="536" y="630" on="1"/>
        <pt x="600" y="630" on="1"/>
      </contour>
    </TTGlyph>
    <TTGlyph name="degree" xMin="149" yMin="386" xMax="453" yMax="686">
      <contour>
        <pt x="301" y="386" on="1"/>
        <pt x="269" y="386" on="0"/>
        <pt x="213" y="409" on="0"/>
        <pt x="172" y="449" on="0"/>
        <pt x="149" y="504" on="0"/>
        <pt x="149" y="536" on="1"/>
        <pt x="149" y="568" on="0"/>
        <pt x="172" y="623" on="0"/>
        <pt x="213" y="663" on="0"/>
        <pt x="269" y="686" on="0"/>
        <pt x="301" y="686" on="1"/>
        <pt x="333" y="686" on="0"/>
        <pt x="389" y="663" on="0"/>
        <pt x="430" y="623" on="0"/>
        <pt x="453" y="568" on="0"/>
        <pt x="453" y="536" on="1"/>
        <pt x="453" y="504" on="0"/>
        <pt x="430" y="449" on="0"/>
        <pt x="389" y="409" on="0"/>
        <pt x="333" y="386" on="0"/>
      </contour>
      <contour>
        <pt x="301" y="466" on="1"/>
        <pt x="330" y="466" on="0"/>
        <pt x="365" y="504" on="0"/>
        <pt x="365" y="536" on="1"/>
        <pt x="365" y="568" on="0"/>
        <pt x="330" y="606" on="0"/>
        <pt x="301" y="606" on="1"/>
        <pt x="272" y="606" on="0"/>
        <pt x="237" y="568" on="0"/>
        <pt x="237" y="536" on="1"/>
        <pt x="237" y="504" on="0"/>
        <pt x="272" y="466" on="0"/>
      </contour>
    </TTGlyph>
    <TTGlyph name="dieresis" xMin="98" yMin="564" xMax="502" yMax="740">
      <component glyphName="uni0308" x="0" y="0" flags="0x204"/>
    </TTGlyph>
    <TTGlyph name="divide" xMin="64" yMin="64" xMax="536" yMax="596">
      <contour>
        <pt x="300" y="424" on="1"/>
        <pt x="261" y="424" on="0"/>
        <pt x="208" y="472" on="0"/>
        <pt x="208" y="510" on="1"/>
        <pt x="208" y="548" on="0"/>
        <pt x="261" y="596" on="0"/>
        <pt x="300" y="596" on="1"/>
        <pt x="339" y="596" on="0"/>
        <pt x="392" y="548" on="0"/>
        <pt x="392" y="510" on="1"/>
        <pt x="392" y="472" on="0"/>
        <pt x="339" y="424" on="0"/>
      </contour>
      <contour>
        <pt x="208" y="150" on="1"/>
        <pt x="208" y="188" on="0"/>
        <pt x="261" y="236" on="0"/>
        <pt x="300" y="236" on="1"/>
        <pt x="339" y="236" on="0"/>
        <pt x="392" y="188" on="0"/>
        <pt x="392" y="150" on="1"/>
        <pt x="392" y="112" on="0"/>
        <pt x="339" y="64" on="0"/>
        <pt x="300" y="64" on="1"/>
        <pt x="261" y="64" on="0"/>
        <pt x="208" y="112" on="0"/>
      </contour>
      <contour>
        <pt x="64" y="390" on="1"/>
        <pt x="536" y="390" on="1"/>
        <pt x="536" y="270" on="1"/>
        <pt x="64" y="270" on="1"/>
      </contour>
    </TTGlyph>
    <TTGlyph name="dollar" xMin="56" yMin="-110" xMax="528" yMax="744">
      <contour>
        <pt x="436" y="432" on="1"/>
        <pt x="400" y="456" on="0"/>
        <pt x="338" y="480" on="0"/>
        <pt x="300" y="480" on="1"/>
        <pt x="246" y="480" on="0"/>
        <pt x="246" y="448" on="1"/>
        <pt x="246" y="434" on="0"/>
        <pt x="288" y="414" on="0"/>
        <pt x="350" y="392" on="0"/>
        <pt x="424" y="364" on="0"/>
        <pt x="486" y="322" on="0"/>
        <pt x="528" y="259" on="0"/>
        <pt x="528" y="214" on="1"/>
        <pt x="528" y="151" on="0"/>
        <pt x="444" y="57" on="0"/>
        <pt x="359" y="41" on="1"/>
        <pt x="359" y="-110" on="1"/>
        <pt x="247" y="-110" on="1"/>
        <pt x="247" y="36" on="1"/>
        <pt x="199" y="42" on="0"/>
        <pt x="95" y="82" on="0"/>
        <pt x="56" y="116" on="1"/>
        <pt x="130" y="232" on="1"/>
        <pt x="181" y="202" on="0"/>
        <pt x="264" y="172" on="0"/>
        <pt x="308" y="172" on="1"/>
        <pt x="364" y="172" on="0"/>
        <pt x="364" y="202" on="1"/>
        <pt x="364" y="219" on="0"/>
        <pt x="322" y="242" on="0"/>
        <pt x="260" y="265" on="0"/>
        <pt x="186" y="293" on="0"/>
        <pt x="124" y="336" on="0"/>
        <pt x="82" y="399" on="0"/>
        <pt x="82" y="446" on="1"/>
        <pt x="82" y="512" on="0"/>
        <pt x="169" y="599" on="0"/>
        <pt x="247" y="613" on="1"/>
        <pt x="247" y="744" on="1"/>
        <pt x="359" y="744" on="1"/>
        <pt x="359" y="615" on="1"/>
        <pt x="410" y="607" on="0"/>
        <pt x="488" y="562" on="0"/>
        <pt x="520" y="530" on="1"/>
      </contour>
    </TTGlyph>
    <TTGlyph name="dollar.a" xMin="56" yMin="-116" xMax="538" yMax="750">
      <contour>
        <pt x="327" y="172" on="1"/>
        <pt x="374" y="175" on="0"/>
        <pt x="374" y="202" on="1"/>
        <pt x="374" y="213" on="0"/>
        <pt x="355" y="229" on="0"/>
        <pt x="339" y="237" on="1"/>
      </contour>
      <contour>
        <pt x="282" y="480" on="1"/>
        <pt x="236" y="477" on="0"/>
        <pt x="236" y="448" on="1"/>
        <pt x="236" y="439" on="0"/>
        <pt x="255" y="425" on="0"/>
        <pt x="271" y="418" on="1"/>
      </contour>
      <contour>
        <pt x="367" y="386" on="1"/>
        <pt x="398" y="375" on="0"/>
        <pt x="459" y="346" on="0"/>
        <pt x="508" y="306" on="0"/>
        <pt x="538" y="251" on="0"/>
        <pt x="538" y="214" on="1"/>
        <pt x="538" y="177" on="0"/>
        <pt x="508" y="113" on="0"/>
        <pt x="449" y="64" on="0"/>
        <pt x="360" y="35" on="0"/>
        <pt x="301" y="34" on="1"/>
        <pt x="273" y="-116" on="1"/>
        <pt x="173" y="-104" on="1"/>
        <pt x="201" y="46" on="1"/>
        <pt x="163" y="56" on="0"/>
        <pt x="86" y="91" on="0"/>
        <pt x="56" y="116" on="1"/>
        <pt x="130" y="232" on="1"/>
        <pt x="157" y="217" on="0"/>
        <pt x="205" y="195" on="0"/>
        <pt x="228" y="187" on="1"/>
        <pt x="243" y="272" on="1"/>
        <pt x="213" y="282" on="0"/>
        <pt x="152" y="311" on="0"/>
        <pt x="103" y="352" on="0"/>
        <pt x="72" y="408" on="0"/>
        <pt x="72" y="446" on="1"/>
        <pt x="72" y="485" on="0"/>
        <pt x="104" y="548" on="0"/>
        <pt x="163" y="593" on="0"/>
        <pt x="248" y="618" on="0"/>
        <pt x="301" y="618" on="1"/>
        <pt x="308" y="618" on="1"/>
        <pt x="333" y="750" on="1"/>
        <pt x="433" y="738" on="1"/>
        <pt x="407" y="601" on="1"/>
        <pt x="441" y="590" on="0"/>
        <pt x="497" y="553" on="0"/>
        <pt x="520" y="530" on="1"/>
        <pt x="436" y="432" on="1"/>
        <pt x="421" y="441" on="0"/>
        <pt x="395" y="456" on="0"/>
        <pt x="381" y="461" on="1"/>
      </contour>
    </TTGlyph>
    <TTGlyph name="dong" xMin="84" yMin="0" xMax="569" yMax="646">
      <contour>
        <pt x="98" y="84" on="1"/>
        <pt x="532" y="84" on="1"/>
        <pt x="532" y="0" on="1"/>
        <pt x="98" y="0" on="1"/>
      </contour>
      <contour>
        <pt x="358" y="354" on="1"/>
        <pt x="331" y="374" on="0"/>
        <pt x="296" y="374" on="1"/>
        <pt x="271" y="374" on="0"/>
        <pt x="228" y="341" on="0"/>
        <pt x="228" y="307" on="1"/>
        <pt x="228" y="265" on="0"/>
        <pt x="263" y="230" on="0"/>
        <pt x="292" y="230" on="1"/>
        <pt x="313" y="230" on="0"/>
        <pt x="342" y="243" on="0"/>
        <pt x="358" y="260" on="1"/>
      </contour>
      <contour>
        <pt x="569" y="604" on="1"/>
        <pt x="569" y="526" on="1"/>
        <pt x="498" y="520" on="1"/>
        <pt x="498" y="128" on="1"/>
        <pt x="382" y="128" on="1"/>
        <pt x="372" y="162" on="1"/>
        <pt x="370" y="162" on="1"/>
        <pt x="348" y="141" on="0"/>
        <pt x="289" y="118" on="0"/>
        <pt x="256" y="118" on="1"/>
        <pt x="178" y="118" on="0"/>
        <pt x="84" y="216" on="0"/>
        <pt x="84" y="308" on="1"/>
        <pt x="84" y="351" on="0"/>
        <pt x="115" y="418" on="0"/>
        <pt x="165" y="464" on="0"/>
        <pt x="228" y="488" on="0"/>
        <pt x="260" y="488" on="1"/>
        <pt x="295" y="488" on="0"/>
        <pt x="340" y="470" on="0"/>
        <pt x="362" y="452" on="1"/>
        <pt x="358" y="512" on="1"/>
        <pt x="358" y="520" on="1"/>
        <pt x="204" y="520" on="1"/>
        <pt x="204" y="604" on="1"/>
        <pt x="358" y="604" on="1"/>
        <pt x="358" y="646" on="1"/>
        <pt x="498" y="646" on="1"/>
        <pt x="498" y="604" on="1"/>
      </contour>
    </TTGlyph>
    <TTGlyph name="dotaccent" xMin="190" yMin="562" xMax="410" yMax="764">
      <component glyphName="uni0307" x="0" y="0" flags="0x204"/>
    </TTGlyph>
    <TTGlyph name="dotlessi" xMin="74" yMin="0" xMax="436" yMax="500">
      <contour>
        <pt x="74" y="500" on="1"/>
        <pt x="436" y="500" on="1"/>
        <pt x="436" y="0" on="1"/>
        <pt x="264" y="0" on="1"/>
        <pt x="264" y="366" on="1"/>
        <pt x="74" y="366" on="1"/>
      </contour>
    </TTGlyph>
    <TTGlyph name="e" xMin="50" yMin="-12" xMax="550" yMax="512">
      <contour>
        <pt x="50" y="250" on="1"/>
        <pt x="50" y="311" on="0"/>
        <pt x="94" y="409" on="0"/>
        <pt x="167" y="476" on="0"/>
        <pt x="262" y="512" on="0"/>
        <pt x="312" y="512" on="1"/>
        <pt x="371" y="512" on="0"/>
        <pt x="460" y="474" on="0"/>
        <pt x="520" y="408" on="0"/>
        <pt x="550" y="320" on="0"/>
        <pt x="550" y="270" on="1"/>
        <pt x="550" y="247" on="0"/>
        <pt x="545" y="207" on="0"/>
        <pt x="543" y="198" on="1"/>
        <pt x="226" y="198" on="1"/>
        <pt x="230" y="175" on="0"/>
        <pt x="254" y="144" on="0"/>
        <pt x="289" y="126" on="0"/>
        <pt x="331" y="118" on="0"/>
        <pt x="354" y="118" on="1"/>
        <pt x="384" y="118" on="0"/>
        <pt x="441" y="133" on="0"/>
        <pt x="474" y="148" on="1"/>
        <pt x="530" y="46" on="1"/>
        <pt x="485" y="17" on="0"/>
        <pt x="377" y="-12" on="0"/>
        <pt x="330" y="-12" on="1"/>
        <pt x="271" y="-12" on="0"/>
        <pt x="168" y="23" on="0"/>
        <pt x="93" y="90" on="0"/>
        <pt x="50" y="188" on="0"/>
      </contour>
      <contour>
        <pt x="394" y="310" on="1"/>
        <pt x="394" y="340" on="0"/>
        <pt x="360" y="382" on="0"/>
        <pt x="316" y="382" on="1"/>
        <pt x="284" y="382" on="0"/>
        <pt x="233" y="349" on="0"/>
        <pt x="224" y="310" on="1"/>
      </contour>
    </TTGlyph>
    <TTGlyph name="e.sups" xMin="143" yMin="252" xMax="468" yMax="599">
      <contour>
        <pt x="143" y="425" on="1"/>
        <pt x="143" y="465" on="0"/>
        <pt x="172" y="530" on="0"/>
        <pt x="220" y="575" on="0"/>
        <pt x="281" y="599" on="0"/>
        <pt x="313" y="599" on="1"/>
        <pt x="352" y="599" on="0"/>
        <pt x="411" y="573" on="0"/>
        <pt x="449" y="530" on="0"/>
        <pt x="468" y="471" on="0"/>
        <pt x="468" y="438" on="1"/>
        <pt x="468" y="423" on="0"/>
        <pt x="465" y="398" on="0"/>
        <pt x="463" y="392" on="1"/>
        <pt x="258" y="392" on="1"/>
        <pt x="267" y="362" on="0"/>
        <pt x="313" y="341" on="0"/>
        <pt x="342" y="341" on="1"/>
        <pt x="377" y="341" on="0"/>
        <pt x="416" y="360" on="1"/>
        <pt x="455" y="291" on="1"/>
        <pt x="426" y="271" on="0"/>
        <pt x="354" y="252" on="0"/>
        <pt x="325" y="252" on="1"/>
        <pt x="286" y="252" on="0"/>
        <pt x="220" y="275" on="0"/>
        <pt x="171" y="319" on="0"/>
        <pt x="143" y="384" on="0"/>
      </contour>
      <contour>
        <pt x="367" y="463" on="1"/>
        <pt x="367" y="482" on="0"/>
        <pt x="345" y="510" on="0"/>
        <pt x="316" y="510" on="1"/>
        <pt x="295" y="510" on="0"/>
        <pt x="262" y="489" on="0"/>
        <pt x="257" y="463" on="1"/>
      </contour>
    </TTGlyph>
    <TTGlyph name="eacute" xMin="50" yMin="-12" xMax="550" yMax="748">
      <component glyphName="e" x="0" y="0" flags="0x204"/>
      <component glyphName="uni0301" x="12" y="0" flags="0x4"/>
    </TTGlyph>
    <TTGlyph name="eacute.sups" xMin="143" yMin="252" xMax="468" yMax="755">
      <contour>
        <pt x="143" y="425" on="1"/>
        <pt x="143" y="465" on="0"/>
        <pt x="172" y="530" on="0"/>
        <pt x="220" y="575" on="0"/>
        <pt x="281" y="599" on="0"/>
        <pt x="313" y="599" on="1"/>
        <pt x="352" y="599" on="0"/>
        <pt x="411" y="573" on="0"/>
        <pt x="449" y="530" on="0"/>
        <pt x="468" y="471" on="0"/>
        <pt x="468" y="438" on="1"/>
        <pt x="468" y="423" on="0"/>
        <pt x="465" y="398" on="0"/>
        <pt x="463" y="392" on="1"/>
        <pt x="258" y="392" on="1"/>
        <pt x="267" y="362" on="0"/>
        <pt x="313" y="341" on="0"/>
        <pt x="342" y="341" on="1"/>
        <pt x="377" y="341" on="0"/>
        <pt x="416" y="360" on="1"/>
        <pt x="455" y="291" on="1"/>
        <pt x="426" y="271" on="0"/>
        <pt x="354" y="252" on="0"/>
        <pt x="325" y="252" on="1"/>
        <pt x="286" y="252" on="0"/>
        <pt x="220" y="275" on="0"/>
        <pt x="171" y="319" on="0"/>
        <pt x="143" y="384" on="0"/>
      </contour>
      <contour>
        <pt x="367" y="463" on="1"/>
        <pt x="367" y="482" on="0"/>
        <pt x="345" y="510" on="0"/>
        <pt x="316" y="510" on="1"/>
        <pt x="295" y="510" on="0"/>
        <pt x="262" y="489" on="0"/>
        <pt x="257" y="463" on="1"/>
      </contour>
      <contour>
        <pt x="338" y="639" on="1"/>
        <pt x="252" y="639" on="1"/>
        <pt x="311" y="755" on="1"/>
        <pt x="432" y="755" on="1"/>
      </contour>
    </TTGlyph>
    <TTGlyph name="ebreve" xMin="50" yMin="-12" xMax="550" yMax="738">
      <component glyphName="e" x="0" y="0" flags="0x204"/>
      <component glyphName="uni0306" x="12" y="0" flags="0x4"/>
    </TTGlyph>
    <TTGlyph name="ecaron" xMin="50" yMin="-12" xMax="550" yMax="748">
      <component glyphName="e" x="0" y="0" flags="0x204"/>
      <component glyphName="uni030C" x="12" y="0" flags="0x4"/>
    </TTGlyph>
    <TTGlyph name="ecircumflex" xMin="50" yMin="-12" xMax="550" yMax="748">
      <component glyphName="e" x="0" y="0" flags="0x204"/>
      <component glyphName="uni0302" x="12" y="0" flags="0x4"/>
    </TTGlyph>
    <TTGlyph name="edieresis" xMin="50" yMin="-12" xMax="550" yMax="740">
      <component glyphName="e" x="0" y="0" flags="0x204"/>
      <component glyphName="uni0308" x="11" y="0" flags="0x4"/>
    </TTGlyph>
    <TTGlyph name="edotaccent" xMin="50" yMin="-12" xMax="550" yMax="764">
      <component glyphName="e" x="0" y="0" flags="0x204"/>
      <component glyphName="uni0307" x="12" y="0" flags="0x4"/>
    </TTGlyph>
    <TTGlyph name="egrave" xMin="50" yMin="-12" xMax="550" yMax="748">
      <component glyphName="e" x="0" y="0" flags="0x204"/>
      <component glyphName="uni0300" x="12" y="0" flags="0x4"/>
    </TTGlyph>
    <TTGlyph name="egrave.sups" xMin="143" yMin="252" xMax="468" yMax="755">
      <contour>
        <pt x="143" y="425" on="1"/>
        <pt x="143" y="465" on="0"/>
        <pt x="172" y="530" on="0"/>
        <pt x="220" y="575" on="0"/>
        <pt x="281" y="599" on="0"/>
        <pt x="313" y="599" on="1"/>
        <pt x="352" y="599" on="0"/>
        <pt x="411" y="573" on="0"/>
        <pt x="449" y="530" on="0"/>
        <pt x="468" y="471" on="0"/>
        <pt x="468" y="438" on="1"/>
        <pt x="468" y="423" on="0"/>
        <pt x="465" y="398" on="0"/>
        <pt x="463" y="392" on="1"/>
        <pt x="258" y="392" on="1"/>
        <pt x="267" y="362" on="0"/>
        <pt x="313" y="341" on="0"/>
        <pt x="342" y="341" on="1"/>
        <pt x="377" y="341" on="0"/>
        <pt x="416" y="360" on="1"/>
        <pt x="455" y="291" on="1"/>
        <pt x="426" y="271" on="0"/>
        <pt x="354" y="252" on="0"/>
        <pt x="325" y="252" on="1"/>
        <pt x="286" y="252" on="0"/>
        <pt x="220" y="275" on="0"/>
        <pt x="171" y="319" on="0"/>
        <pt x="143" y="384" on="0"/>
      </contour>
      <contour>
        <pt x="367" y="463" on="1"/>
        <pt x="367" y="482" on="0"/>
        <pt x="345" y="510" on="0"/>
        <pt x="316" y="510" on="1"/>
        <pt x="295" y="510" on="0"/>
        <pt x="262" y="489" on="0"/>
        <pt x="257" y="463" on="1"/>
      </contour>
      <contour>
        <pt x="193" y="755" on="1"/>
        <pt x="313" y="755" on="1"/>
        <pt x="372" y="639" on="1"/>
        <pt x="286" y="639" on="1"/>
      </contour>
    </TTGlyph>
    <TTGlyph name="eight" xMin="58" yMin="-12" xMax="544" yMax="646">
      <contour>
        <pt x="206" y="182" on="1"/>
        <pt x="206" y="144" on="0"/>
        <pt x="263" y="106" on="0"/>
        <pt x="302" y="106" on="1"/>
        <pt x="337" y="106" on="0"/>
        <pt x="384" y="136" on="0"/>
        <pt x="384" y="172" on="1"/>
        <pt x="384" y="189" on="0"/>
        <pt x="365" y="215" on="0"/>
        <pt x="330" y="236" on="0"/>
        <pt x="280" y="256" on="0"/>
        <pt x="249" y="268" on="1"/>
        <pt x="229" y="251" on="0"/>
        <pt x="206" y="206" on="0"/>
      </contour>
      <contour>
        <pt x="340" y="378" on="1"/>
        <pt x="376" y="417" on="0"/>
        <pt x="376" y="458" on="1"/>
        <pt x="376" y="491" on="0"/>
        <pt x="336" y="528" on="0"/>
        <pt x="300" y="528" on="1"/>
        <pt x="271" y="528" on="0"/>
        <pt x="230" y="499" on="0"/>
        <pt x="230" y="466" on="1"/>
        <pt x="230" y="434" on="0"/>
        <pt x="289" y="396" on="0"/>
      </contour>
      <contour>
        <pt x="58" y="162" on="1"/>
        <pt x="58" y="217" on="0"/>
        <pt x="123" y="288" on="0"/>
        <pt x="171" y="312" on="1"/>
        <pt x="171" y="316" on="1"/>
        <pt x="131" y="345" on="0"/>
        <pt x="80" y="416" on="0"/>
        <pt x="80" y="466" on="1"/>
        <pt x="80" y="508" on="0"/>
        <pt x="113" y="575" on="0"/>
        <pt x="173" y="621" on="0"/>
        <pt x="255" y="646" on="0"/>
        <pt x="304" y="646" on="1"/>
        <pt x="352" y="646" on="0"/>
        <pt x="430" y="621" on="0"/>
        <pt x="485" y="576" on="0"/>
        <pt x="516" y="510" on="0"/>
        <pt x="516" y="470" on="1"/>
        <pt x="516" y="426" on="0"/>
        <pt x="463" y="359" on="0"/>
        <pt x="427" y="337" on="1"/>
        <pt x="427" y="333" on="1"/>
        <pt x="477" y="308" on="0"/>
        <pt x="544" y="229" on="0"/>
        <pt x="544" y="166" on="1"/>
        <pt x="544" y="128" on="0"/>
        <pt x="512" y="63" on="0"/>
        <pt x="449" y="15" on="0"/>
        <pt x="357" y="-12" on="0"/>
        <pt x="298" y="-12" on="1"/>
        <pt x="242" y="-12" on="0"/>
        <pt x="154" y="13" on="0"/>
        <pt x="91" y="59" on="0"/>
        <pt x="58" y="123" on="0"/>
      </contour>
    </TTGlyph>
    <TTGlyph name="eight.dnom" xMin="162" yMin="-12" xMax="438" yMax="326">
      <contour>
        <pt x="270" y="90" on="1"/>
        <pt x="270" y="78" on="0"/>
        <pt x="287" y="65" on="0"/>
        <pt x="300" y="65" on="1"/>
        <pt x="314" y="65" on="0"/>
        <pt x="330" y="78" on="0"/>
        <pt x="330" y="87" on="1"/>
        <pt x="330" y="98" on="0"/>
        <pt x="308" y="116" on="0"/>
        <pt x="288" y="121" on="1"/>
        <pt x="280" y="116" on="0"/>
        <pt x="270" y="99" on="0"/>
      </contour>
      <contour>
        <pt x="310" y="200" on="1"/>
        <pt x="316" y="205" on="0"/>
        <pt x="322" y="218" on="0"/>
        <pt x="322" y="224" on="1"/>
        <pt x="322" y="235" on="0"/>
        <pt x="309" y="247" on="0"/>
        <pt x="299" y="247" on="1"/>
        <pt x="291" y="247" on="0"/>
        <pt x="278" y="237" on="0"/>
        <pt x="278" y="229" on="1"/>
        <pt x="278" y="218" on="0"/>
        <pt x="293" y="206" on="0"/>
      </contour>
      <contour>
        <pt x="162" y="80" on="1"/>
        <pt x="162" y="111" on="0"/>
        <pt x="200" y="144" on="0"/>
        <pt x="222" y="156" on="1"/>
        <pt x="222" y="160" on="1"/>
        <pt x="211" y="167" on="0"/>
        <pt x="192" y="181" on="0"/>
        <pt x="178" y="197" on="0"/>
        <pt x="170" y="218" on="0"/>
        <pt x="170" y="233" on="1"/>
        <pt x="170" y="254" on="0"/>
        <pt x="191" y="289" on="0"/>
        <pt x="226" y="313" on="0"/>
        <pt x="273" y="326" on="0"/>
        <pt x="300" y="326" on="1"/>
        <pt x="355" y="326" on="0"/>
        <pt x="430" y="276" on="0"/>
        <pt x="430" y="233" on="1"/>
        <pt x="430" y="208" on="0"/>
        <pt x="401" y="181" on="0"/>
        <pt x="377" y="170" on="1"/>
        <pt x="377" y="166" on="1"/>
        <pt x="390" y="159" on="0"/>
        <pt x="412" y="144" on="0"/>
        <pt x="429" y="125" on="0"/>
        <pt x="438" y="98" on="0"/>
        <pt x="438" y="80" on="1"/>
        <pt x="438" y="62" on="0"/>
        <pt x="418" y="28" on="0"/>
        <pt x="382" y="3" on="0"/>
        <pt x="331" y="-12" on="0"/>
        <pt x="300" y="-12" on="1"/>
        <pt x="270" y="-12" on="0"/>
        <pt x="219" y="2" on="0"/>
        <pt x="182" y="27" on="0"/>
        <pt x="162" y="61" on="0"/>
      </contour>
    </TTGlyph>
    <TTGlyph name="eight.numr" xMin="162" yMin="308" xMax="438" yMax="646">
      <component glyphName="eight.dnom" x="0" y="320" flags="0x204"/>
    </TTGlyph>
    <TTGlyph name="eight.onum" xMin="58" yMin="-12" xMax="544" yMax="646">
      <component glyphName="eight" x="0" y="0" flags="0x204"/>
    </TTGlyph>
    <TTGlyph name="eight.subs" xMin="162" yMin="-181" xMax="438" yMax="157">
      <component glyphName="eight.dnom" x="0" y="-169" flags="0x204"/>
    </TTGlyph>
    <TTGlyph name="eight.sups" xMin="162" yMin="428" xMax="438" yMax="766">
      <component glyphName="eight.dnom" x="0" y="440" flags="0x204"/>
    </TTGlyph>
    <TTGlyph name="ellipsis" xMin="-13" yMin="-12" xMax="613" yMax="196">
      <contour>
        <pt x="-13" y="92" on="1"/>
        <pt x="-13" y="135" on="0"/>
        <pt x="40" y="196" on="0"/>
        <pt x="87" y="196" on="1"/>
        <pt x="134" y="196" on="0"/>
        <pt x="187" y="135" on="0"/>
        <pt x="187" y="92" on="1"/>
        <pt x="187" y="48" on="0"/>
        <pt x="134" y="-12" on="0"/>
        <pt x="87" y="-12" on="1"/>
        <pt x="40" y="-12" on="0"/>
        <pt x="-13" y="48" on="0"/>
      </contour>
      <contour>
        <pt x="200" y="92" on="1"/>
        <pt x="200" y="135" on="0"/>
        <pt x="253" y="196" on="0"/>
        <pt x="300" y="196" on="1"/>
        <pt x="347" y="196" on="0"/>
        <pt x="400" y="135" on="0"/>
        <pt x="400" y="92" on="1"/>
        <pt x="400" y="48" on="0"/>
        <pt x="347" y="-12" on="0"/>
        <pt x="300" y="-12" on="1"/>
        <pt x="253" y="-12" on="0"/>
        <pt x="200" y="48" on="0"/>
      </contour>
      <contour>
        <pt x="413" y="92" on="1"/>
        <pt x="413" y="135" on="0"/>
        <pt x="466" y="196" on="0"/>
        <pt x="513" y="196" on="1"/>
        <pt x="560" y="196" on="0"/>
        <pt x="613" y="135" on="0"/>
        <pt x="613" y="92" on="1"/>
        <pt x="613" y="48" on="0"/>
        <pt x="560" y="-12" on="0"/>
        <pt x="513" y="-12" on="1"/>
        <pt x="466" y="-12" on="0"/>
        <pt x="413" y="48" on="0"/>
      </contour>
    </TTGlyph>
    <TTGlyph name="emacron" xMin="50" yMin="-12" xMax="550" yMax="696">
      <component glyphName="e" x="0" y="0" flags="0x204"/>
      <component glyphName="uni0304" x="12" y="0" flags="0x4"/>
    </TTGlyph>
    <TTGlyph name="emdash" xMin="20" yMin="192" xMax="580" yMax="318">
      <contour>
        <pt x="20" y="318" on="1"/>
        <pt x="580" y="318" on="1"/>
        <pt x="580" y="192" on="1"/>
        <pt x="20" y="192" on="1"/>
      </contour>
    </TTGlyph>
    <TTGlyph name="endash" xMin="80" yMin="192" xMax="520" yMax="318">
      <contour>
        <pt x="80" y="318" on="1"/>
        <pt x="520" y="318" on="1"/>
        <pt x="520" y="192" on="1"/>
        <pt x="80" y="192" on="1"/>
      </contour>
    </TTGlyph>
    <TTGlyph name="eogonek" xMin="50" yMin="-212" xMax="550" yMax="512">
      <contour>
        <pt x="530" y="46" on="1"/>
        <pt x="497" y="23" on="0"/>
        <pt x="456" y="-10" on="0"/>
        <pt x="432" y="-38" on="0"/>
        <pt x="424" y="-64" on="0"/>
        <pt x="424" y="-78" on="1"/>
        <pt x="424" y="-95" on="0"/>
        <pt x="448" y="-112" on="0"/>
        <pt x="465" y="-112" on="1"/>
        <pt x="474" y="-112" on="0"/>
        <pt x="491" y="-105" on="0"/>
        <pt x="498" y="-100" on="1"/>
        <pt x="532" y="-176" on="1"/>
        <pt x="511" y="-193" on="0"/>
        <pt x="448" y="-212" on="0"/>
        <pt x="422" y="-212" on="1"/>
        <pt x="375" y="-212" on="0"/>
        <pt x="312" y="-165" on="0"/>
        <pt x="312" y="-118" on="1"/>
        <pt x="312" y="-82" on="0"/>
        <pt x="347" y="-27" on="0"/>
        <pt x="366" y="-10" on="1"/>
        <pt x="352" y="-12" on="0"/>
        <pt x="338" y="-12" on="0"/>
        <pt x="330" y="-12" on="1"/>
        <pt x="271" y="-12" on="0"/>
        <pt x="168" y="23" on="0"/>
        <pt x="93" y="90" on="0"/>
        <pt x="50" y="188" on="0"/>
        <pt x="50" y="250" on="1"/>
        <pt x="50" y="311" on="0"/>
        <pt x="94" y="409" on="0"/>
        <pt x="167" y="476" on="0"/>
        <pt x="262" y="512" on="0"/>
        <pt x="312" y="512" on="1"/>
        <pt x="371" y="512" on="0"/>
        <pt x="460" y="474" on="0"/>
        <pt x="520" y="408" on="0"/>
        <pt x="550" y="320" on="0"/>
        <pt x="550" y="270" on="1"/>
        <pt x="550" y="247" on="0"/>
        <pt x="545" y="207" on="0"/>
        <pt x="543" y="198" on="1"/>
        <pt x="226" y="198" on="1"/>
        <pt x="230" y="175" on="0"/>
        <pt x="254" y="144" on="0"/>
        <pt x="289" y="126" on="0"/>
        <pt x="331" y="118" on="0"/>
        <pt x="354" y="118" on="1"/>
        <pt x="384" y="118" on="0"/>
        <pt x="441" y="133" on="0"/>
        <pt x="474" y="148" on="1"/>
      </contour>
      <contour>
        <pt x="394" y="310" on="1"/>
        <pt x="394" y="340" on="0"/>
        <pt x="360" y="382" on="0"/>
        <pt x="316" y="382" on="1"/>
        <pt x="284" y="382" on="0"/>
        <pt x="233" y="349" on="0"/>
        <pt x="224" y="310" on="1"/>
      </contour>
    </TTGlyph>
    <TTGlyph name="equal" xMin="64" yMin="151" xMax="536" yMax="510">
      <component glyphName="minus" x="0" y="120" flags="0x204"/>
      <component glyphName="minus" x="0" y="-119" flags="0x4"/>
    </TTGlyph>
    <TTGlyph name="estimated" xMin="26" yMin="-12" xMax="574" yMax="660">
      <contour>
        <pt x="164" y="68" on="1"/>
        <pt x="190" y="39" on="0"/>
        <pt x="261" y="8" on="0"/>
        <pt x="302" y="8" on="1"/>
        <pt x="355" y="8" on="0"/>
        <pt x="449" y="69" on="0"/>
        <pt x="484" y="120" on="1"/>
        <pt x="522" y="120" on="1"/>
        <pt x="481" y="60" on="0"/>
        <pt x="368" y="-12" on="0"/>
        <pt x="300" y="-12" on="1"/>
        <pt x="243" y="-12" on="0"/>
        <pt x="144" y="41" on="0"/>
        <pt x="69" y="132" on="0"/>
        <pt x="26" y="254" on="0"/>
        <pt x="26" y="324" on="1"/>
        <pt x="26" y="394" on="0"/>
        <pt x="69" y="516" on="0"/>
        <pt x="144" y="607" on="0"/>
        <pt x="243" y="660" on="0"/>
        <pt x="300" y="660" on="1"/>
        <pt x="357" y="660" on="0"/>
        <pt x="456" y="607" on="0"/>
        <pt x="531" y="516" on="0"/>
        <pt x="574" y="394" on="0"/>
        <pt x="574" y="324" on="1"/>
        <pt x="574" y="316" on="1"/>
        <pt x="160" y="316" on="1"/>
        <pt x="156" y="316" on="0"/>
        <pt x="156" y="312" on="1"/>
        <pt x="156" y="88" on="1"/>
        <pt x="156" y="82" on="0"/>
        <pt x="161" y="73" on="0"/>
      </contour>
      <contour>
        <pt x="440" y="334" on="1"/>
        <pt x="446" y="334" on="0"/>
        <pt x="446" y="340" on="1"/>
        <pt x="446" y="564" on="1"/>
        <pt x="446" y="576" on="0"/>
        <pt x="436" y="586" on="1"/>
        <pt x="410" y="612" on="0"/>
        <pt x="340" y="640" on="0"/>
        <pt x="302" y="640" on="1"/>
        <pt x="261" y="640" on="0"/>
        <pt x="190" y="609" on="0"/>
        <pt x="164" y="582" on="1"/>
        <pt x="161" y="577" on="0"/>
        <pt x="156" y="565" on="0"/>
        <pt x="156" y="560" on="1"/>
        <pt x="156" y="340" on="1"/>
        <pt x="156" y="334" on="0"/>
        <pt x="160" y="334" on="1"/>
      </contour>
    </TTGlyph>
    <TTGlyph name="eth" xMin="42" yMin="-12" xMax="556" yMax="744">
      <contour>
        <pt x="300" y="126" on="1"/>
        <pt x="341" y="126" on="0"/>
        <pt x="396" y="189" on="0"/>
        <pt x="396" y="260" on="1"/>
        <pt x="396" y="268" on="0"/>
        <pt x="396" y="282" on="0"/>
        <pt x="395" y="289" on="1"/>
        <pt x="373" y="312" on="0"/>
        <pt x="326" y="332" on="0"/>
        <pt x="297" y="332" on="1"/>
        <pt x="253" y="332" on="0"/>
        <pt x="198" y="286" on="0"/>
        <pt x="198" y="230" on="1"/>
        <pt x="198" y="177" on="0"/>
        <pt x="258" y="126" on="0"/>
      </contour>
      <contour>
        <pt x="415" y="604" on="1"/>
        <pt x="478" y="544" on="0"/>
        <pt x="556" y="381" on="0"/>
        <pt x="556" y="270" on="1"/>
        <pt x="556" y="209" on="0"/>
        <pt x="521" y="106" on="0"/>
        <pt x="454" y="31" on="0"/>
        <pt x="356" y="-12" on="0"/>
        <pt x="294" y="-12" on="1"/>
        <pt x="242" y="-12" on="0"/>
        <pt x="151" y="22" on="0"/>
        <pt x="82" y="85" on="0"/>
        <pt x="42" y="174" on="0"/>
        <pt x="42" y="230" on="1"/>
        <pt x="42" y="285" on="0"/>
        <pt x="79" y="370" on="0"/>
        <pt x="140" y="428" on="0"/>
        <pt x="219" y="458" on="0"/>
        <pt x="260" y="458" on="1"/>
        <pt x="291" y="458" on="0"/>
        <pt x="350" y="438" on="0"/>
        <pt x="372" y="415" on="1"/>
        <pt x="358" y="452" on="0"/>
        <pt x="315" y="513" on="0"/>
        <pt x="285" y="540" on="1"/>
        <pt x="136" y="465" on="1"/>
        <pt x="92" y="539" on="1"/>
        <pt x="206" y="596" on="1"/>
        <pt x="187" y="607" on="0"/>
        <pt x="146" y="629" on="0"/>
        <pt x="123" y="640" on="1"/>
        <pt x="197" y="744" on="1"/>
        <pt x="235" y="727" on="0"/>
        <pt x="307" y="687" on="0"/>
        <pt x="341" y="664" on="1"/>
        <pt x="478" y="733" on="1"/>
        <pt x="522" y="658" on="1"/>
      </contour>
    </TTGlyph>
    <TTGlyph name="exclam" xMin="190" yMin="-12" xMax="410" yMax="670">
      <contour>
        <pt x="220" y="522" on="1"/>
        <pt x="214" y="670" on="1"/>
        <pt x="386" y="670" on="1"/>
        <pt x="380" y="522" on="1"/>
        <pt x="356" y="264" on="1"/>
        <pt x="244" y="264" on="1"/>
      </contour>
      <contour>
        <pt x="190" y="99" on="1"/>
        <pt x="190" y="147" on="0"/>
        <pt x="252" y="208" on="0"/>
        <pt x="300" y="208" on="1"/>
        <pt x="348" y="208" on="0"/>
        <pt x="410" y="147" on="0"/>
        <pt x="410" y="99" on="1"/>
        <pt x="410" y="51" on="0"/>
        <pt x="348" y="-12" on="0"/>
        <pt x="300" y="-12" on="1"/>
        <pt x="252" y="-12" on="0"/>
        <pt x="190" y="51" on="0"/>
      </contour>
    </TTGlyph>
    <TTGlyph name="exclamdown" xMin="190" yMin="-170" xMax="410" yMax="512">
      <contour>
        <pt x="380" y="-22" on="1"/>
        <pt x="386" y="-170" on="1"/>
        <pt x="214" y="-170" on="1"/>
        <pt x="220" y="-22" on="1"/>
        <pt x="244" y="236" on="1"/>
        <pt x="356" y="236" on="1"/>
      </contour>
      <contour>
        <pt x="410" y="401" on="1"/>
        <pt x="410" y="353" on="0"/>
        <pt x="348" y="292" on="0"/>
        <pt x="300" y="292" on="1"/>
        <pt x="252" y="292" on="0"/>
        <pt x="190" y="353" on="0"/>
        <pt x="190" y="401" on="1"/>
        <pt x="190" y="449" on="0"/>
        <pt x="252" y="512" on="0"/>
        <pt x="300" y="512" on="1"/>
        <pt x="348" y="512" on="0"/>
        <pt x="410" y="449" on="0"/>
      </contour>
    </TTGlyph>
    <TTGlyph name="f" xMin="74" yMin="0" xMax="588" yMax="708">
      <contour>
        <pt x="556" y="556" on="1"/>
        <pt x="535" y="564" on="0"/>
        <pt x="483" y="574" on="0"/>
        <pt x="456" y="574" on="1"/>
        <pt x="415" y="574" on="0"/>
        <pt x="374" y="542" on="0"/>
        <pt x="374" y="502" on="1"/>
        <pt x="374" y="500" on="1"/>
        <pt x="532" y="500" on="1"/>
        <pt x="532" y="366" on="1"/>
        <pt x="374" y="366" on="1"/>
        <pt x="374" y="0" on="1"/>
        <pt x="202" y="0" on="1"/>
        <pt x="202" y="366" on="1"/>
        <pt x="74" y="366" on="1"/>
        <pt x="74" y="494" on="1"/>
        <pt x="202" y="500" on="1"/>
        <pt x="202" y="502" on="1"/>
        <pt x="202" y="544" on="0"/>
        <pt x="228" y="619" on="0"/>
        <pt x="285" y="675" on="0"/>
        <pt x="372" y="708" on="0"/>
        <pt x="434" y="708" on="1"/>
        <pt x="479" y="708" on="0"/>
        <pt x="558" y="691" on="0"/>
        <pt x="588" y="682" on="1"/>
      </contour>
    </TTGlyph>
    <TTGlyph name="f.sups" xMin="177" yMin="260" xMax="510" yMax="727">
      <contour>
        <pt x="488" y="623" on="1"/>
        <pt x="474" y="628" on="0"/>
        <pt x="439" y="635" on="0"/>
        <pt x="421" y="635" on="1"/>
        <pt x="368" y="635" on="0"/>
        <pt x="368" y="594" on="1"/>
        <pt x="368" y="591" on="1"/>
        <pt x="472" y="591" on="1"/>
        <pt x="472" y="499" on="1"/>
        <pt x="368" y="499" on="1"/>
        <pt x="368" y="260" on="1"/>
        <pt x="249" y="260" on="1"/>
        <pt x="249" y="499" on="1"/>
        <pt x="177" y="499" on="1"/>
        <pt x="177" y="587" on="1"/>
        <pt x="249" y="591" on="1"/>
        <pt x="249" y="594" on="1"/>
        <pt x="249" y="622" on="0"/>
        <pt x="267" y="670" on="0"/>
        <pt x="305" y="706" on="0"/>
        <pt x="364" y="727" on="0"/>
        <pt x="406" y="727" on="1"/>
        <pt x="437" y="727" on="0"/>
        <pt x="490" y="715" on="0"/>
        <pt x="510" y="709" on="1"/>
      </contour>
    </TTGlyph>
    <TTGlyph name="fi" xMin="-10" yMin="0" xMax="604" yMax="768">
      <contour>
        <pt x="56" y="506" on="1"/>
        <pt x="56" y="546" on="0"/>
        <pt x="76" y="619" on="0"/>
        <pt x="123" y="675" on="0"/>
        <pt x="198" y="708" on="0"/>
        <pt x="254" y="708" on="1"/>
        <pt x="289" y="708" on="0"/>
        <pt x="343" y="696" on="0"/>
        <pt x="360" y="690" on="1"/>
        <pt x="330" y="564" on="1"/>
        <pt x="318" y="569" on="0"/>
        <pt x="292" y="574" on="0"/>
        <pt x="280" y="574" on="1"/>
        <pt x="256" y="574" on="0"/>
        <pt x="228" y="547" on="0"/>
        <pt x="228" y="512" on="1"/>
        <pt x="228" y="500" on="1"/>
        <pt x="312" y="500" on="1"/>
        <pt x="312" y="366" on="1"/>
        <pt x="228" y="366" on="1"/>
        <pt x="228" y="0" on="1"/>
        <pt x="56" y="0" on="1"/>
        <pt x="56" y="366" on="1"/>
        <pt x="-10" y="366" on="1"/>
        <pt x="-10" y="494" on="1"/>
        <pt x="56" y="499" on="1"/>
      </contour>
      <contour>
        <pt x="604" y="665" on="1"/>
        <pt x="604" y="620" on="0"/>
        <pt x="540" y="562" on="0"/>
        <pt x="489" y="562" on="1"/>
        <pt x="438" y="562" on="0"/>
        <pt x="374" y="620" on="0"/>
        <pt x="374" y="665" on="1"/>
        <pt x="374" y="710" on="0"/>
        <pt x="438" y="768" on="0"/>
        <pt x="489" y="768" on="1"/>
        <pt x="540" y="768" on="0"/>
        <pt x="604" y="710" on="0"/>
      </contour>
      <contour>
        <pt x="404" y="500" on="1"/>
        <pt x="576" y="500" on="1"/>
        <pt x="576" y="0" on="1"/>
        <pt x="404" y="0" on="1"/>
      </contour>
    </TTGlyph>
    <TTGlyph name="figuredash" xMin="80" yMin="192" xMax="520" yMax="318">
      <contour>
        <pt x="80" y="318" on="1"/>
        <pt x="520" y="318" on="1"/>
        <pt x="520" y="192" on="1"/>
        <pt x="80" y="192" on="1"/>
      </contour>
    </TTGlyph>
    <TTGlyph name="five" xMin="42" yMin="-12" xMax="536" yMax="634">
      <contour>
        <pt x="118" y="186" on="1"/>
        <pt x="149" y="160" on="0"/>
        <pt x="218" y="126" on="0"/>
        <pt x="256" y="126" on="1"/>
        <pt x="306" y="126" on="0"/>
        <pt x="364" y="166" on="0"/>
        <pt x="364" y="208" on="1"/>
        <pt x="364" y="249" on="0"/>
        <pt x="306" y="290" on="0"/>
        <pt x="264" y="290" on="1"/>
        <pt x="250" y="290" on="0"/>
        <pt x="227" y="287" on="0"/>
        <pt x="206" y="281" on="0"/>
        <pt x="182" y="269" on="0"/>
        <pt x="166" y="260" on="1"/>
        <pt x="92" y="308" on="1"/>
        <pt x="108" y="634" on="1"/>
        <pt x="508" y="634" on="1"/>
        <pt x="508" y="490" on="1"/>
        <pt x="256" y="490" on="1"/>
        <pt x="248" y="398" on="1"/>
        <pt x="268" y="404" on="0"/>
        <pt x="299" y="408" on="0"/>
        <pt x="318" y="408" on="1"/>
        <pt x="361" y="408" on="0"/>
        <pt x="440" y="384" on="0"/>
        <pt x="500" y="336" on="0"/>
        <pt x="536" y="262" on="0"/>
        <pt x="536" y="212" on="1"/>
        <pt x="536" y="159" on="0"/>
        <pt x="494" y="75" on="0"/>
        <pt x="424" y="18" on="0"/>
        <pt x="332" y="-12" on="0"/>
        <pt x="282" y="-12" on="1"/>
        <pt x="200" y="-12" on="0"/>
        <pt x="83" y="39" on="0"/>
        <pt x="42" y="78" on="1"/>
      </contour>
    </TTGlyph>
    <TTGlyph name="five.dnom" xMin="162" yMin="-12" xMax="440" yMax="314">
      <contour>
        <pt x="207" y="101" on="1"/>
        <pt x="223" y="93" on="0"/>
        <pt x="266" y="78" on="0"/>
        <pt x="285" y="78" on="1"/>
        <pt x="299" y="78" on="0"/>
        <pt x="320" y="90" on="0"/>
        <pt x="320" y="104" on="1"/>
        <pt x="320" y="119" on="0"/>
        <pt x="300" y="132" on="0"/>
        <pt x="286" y="132" on="1"/>
        <pt x="272" y="132" on="0"/>
        <pt x="252" y="126" on="0"/>
        <pt x="239" y="119" on="1"/>
        <pt x="191" y="151" on="1"/>
        <pt x="204" y="314" on="1"/>
        <pt x="427" y="314" on="1"/>
        <pt x="427" y="214" on="1"/>
        <pt x="296" y="214" on="1"/>
        <pt x="294" y="192" on="1"/>
        <pt x="300" y="194" on="0"/>
        <pt x="323" y="196" on="0"/>
        <pt x="332" y="196" on="1"/>
        <pt x="382" y="196" on="0"/>
        <pt x="440" y="145" on="0"/>
        <pt x="440" y="100" on="1"/>
        <pt x="440" y="77" on="0"/>
        <pt x="419" y="36" on="0"/>
        <pt x="383" y="6" on="0"/>
        <pt x="332" y="-12" on="0"/>
        <pt x="302" y="-12" on="1"/>
        <pt x="271" y="-12" on="0"/>
        <pt x="201" y="-1" on="0"/>
        <pt x="162" y="25" on="1"/>
      </contour>
    </TTGlyph>
    <TTGlyph name="five.numr" xMin="162" yMin="308" xMax="440" yMax="634">
      <component glyphName="five.dnom" x="0" y="320" flags="0x204"/>
    </TTGlyph>
    <TTGlyph name="five.onum" xMin="42" yMin="-92" xMax="536" yMax="580">
      <contour>
        <pt x="118" y="106" on="1"/>
        <pt x="149" y="80" on="0"/>
        <pt x="218" y="46" on="0"/>
        <pt x="256" y="46" on="1"/>
        <pt x="306" y="46" on="0"/>
        <pt x="364" y="90" on="0"/>
        <pt x="364" y="138" on="1"/>
        <pt x="364" y="184" on="0"/>
        <pt x="306" y="226" on="0"/>
        <pt x="264" y="226" on="1"/>
        <pt x="250" y="226" on="0"/>
        <pt x="227" y="223" on="0"/>
        <pt x="206" y="217" on="0"/>
        <pt x="182" y="205" on="0"/>
        <pt x="166" y="196" on="1"/>
        <pt x="92" y="244" on="1"/>
        <pt x="108" y="580" on="1"/>
        <pt x="508" y="580" on="1"/>
        <pt x="508" y="436" on="1"/>
        <pt x="256" y="436" on="1"/>
        <pt x="248" y="334" on="1"/>
        <pt x="268" y="342" on="0"/>
        <pt x="299" y="344" on="0"/>
        <pt x="318" y="344" on="1"/>
        <pt x="361" y="344" on="0"/>
        <pt x="440" y="321" on="0"/>
        <pt x="500" y="271" on="0"/>
        <pt x="536" y="195" on="0"/>
        <pt x="536" y="142" on="1"/>
        <pt x="536" y="86" on="0"/>
        <pt x="494" y="-1" on="0"/>
        <pt x="424" y="-61" on="0"/>
        <pt x="332" y="-92" on="0"/>
        <pt x="282" y="-92" on="1"/>
        <pt x="200" y="-92" on="0"/>
        <pt x="83" y="-41" on="0"/>
        <pt x="42" y="-2" on="1"/>
      </contour>
    </TTGlyph>
    <TTGlyph name="five.subs" xMin="162" yMin="-181" xMax="440" yMax="145">
      <component glyphName="five.dnom" x="0" y="-169" flags="0x204"/>
    </TTGlyph>
    <TTGlyph name="five.sups" xMin="162" yMin="428" xMax="440" yMax="754">
      <component glyphName="five.dnom" x="0" y="440" flags="0x204"/>
    </TTGlyph>
    <TTGlyph name="fiveeighths" xMin="12" yMin="-12" xMax="588" yMax="634">
      <component glyphName="five.dnom" x="-123" y="320" flags="0x204"/>
      <component glyphName="fraction" x="0" y="0" flags="0x4"/>
      <component glyphName="eight.dnom" x="126" y="0" flags="0x4"/>
    </TTGlyph>
    <TTGlyph name="fl" xMin="-6" yMin="-12" xMax="628" yMax="708">
      <contour>
        <pt x="60" y="506" on="1"/>
        <pt x="60" y="546" on="0"/>
        <pt x="80" y="619" on="0"/>
        <pt x="127" y="675" on="0"/>
        <pt x="202" y="708" on="0"/>
        <pt x="258" y="708" on="1"/>
        <pt x="293" y="708" on="0"/>
        <pt x="347" y="696" on="0"/>
        <pt x="364" y="690" on="1"/>
        <pt x="334" y="564" on="1"/>
        <pt x="322" y="569" on="0"/>
        <pt x="296" y="574" on="0"/>
        <pt x="284" y="574" on="1"/>
        <pt x="260" y="574" on="0"/>
        <pt x="232" y="547" on="0"/>
        <pt x="232" y="512" on="1"/>
        <pt x="232" y="500" on="1"/>
        <pt x="316" y="500" on="1"/>
        <pt x="316" y="366" on="1"/>
        <pt x="232" y="366" on="1"/>
        <pt x="232" y="0" on="1"/>
        <pt x="60" y="0" on="1"/>
        <pt x="60" y="366" on="1"/>
        <pt x="-6" y="366" on="1"/>
        <pt x="-6" y="494" on="1"/>
        <pt x="60" y="499" on="1"/>
      </contour>
      <contour>
        <pt x="628" y="2" on="1"/>
        <pt x="614" y="-4" on="0"/>
        <pt x="573" y="-12" on="0"/>
        <pt x="544" y="-12" on="1"/>
        <pt x="500" y="-12" on="0"/>
        <pt x="441" y="15" on="0"/>
        <pt x="405" y="65" on="0"/>
        <pt x="390" y="134" on="0"/>
        <pt x="390" y="176" on="1"/>
        <pt x="390" y="696" on="1"/>
        <pt x="562" y="696" on="1"/>
        <pt x="562" y="170" on="1"/>
        <pt x="562" y="144" on="0"/>
        <pt x="581" y="126" on="0"/>
        <pt x="590" y="126" on="1"/>
        <pt x="595" y="126" on="0"/>
        <pt x="602" y="126" on="0"/>
        <pt x="608" y="128" on="1"/>
      </contour>
    </TTGlyph>
    <TTGlyph name="four" xMin="33" yMin="0" xMax="563" yMax="634">
      <contour>
        <pt x="330" y="272" on="1"/>
        <pt x="330" y="344" on="1"/>
        <pt x="330" y="360" on="0"/>
        <pt x="331" y="399" on="0"/>
        <pt x="333" y="439" on="0"/>
        <pt x="335" y="478" on="0"/>
        <pt x="336" y="494" on="1"/>
        <pt x="332" y="494" on="1"/>
        <pt x="316" y="465" on="0"/>
        <pt x="278" y="409" on="0"/>
        <pt x="261" y="380" on="1"/>
        <pt x="195" y="272" on="1"/>
      </contour>
      <contour>
        <pt x="563" y="142" on="1"/>
        <pt x="490" y="142" on="1"/>
        <pt x="490" y="0" on="1"/>
        <pt x="330" y="0" on="1"/>
        <pt x="330" y="142" on="1"/>
        <pt x="33" y="142" on="1"/>
        <pt x="33" y="262" on="1"/>
        <pt x="278" y="634" on="1"/>
        <pt x="490" y="634" on="1"/>
        <pt x="490" y="272" on="1"/>
        <pt x="563" y="272" on="1"/>
      </contour>
    </TTGlyph>
    <TTGlyph name="four.dnom" xMin="157" yMin="0" xMax="476" yMax="314">
      <contour>
        <pt x="316" y="131" on="1"/>
        <pt x="316" y="140" on="1"/>
        <pt x="322" y="246" on="1"/>
        <pt x="319" y="246" on="1"/>
        <pt x="289" y="185" on="1"/>
        <pt x="264" y="131" on="1"/>
      </contour>
      <contour>
        <pt x="476" y="56" on="1"/>
        <pt x="424" y="56" on="1"/>
        <pt x="424" y="0" on="1"/>
        <pt x="316" y="0" on="1"/>
        <pt x="316" y="56" on="1"/>
        <pt x="157" y="56" on="1"/>
        <pt x="157" y="115" on="1"/>
        <pt x="266" y="314" on="1"/>
        <pt x="424" y="314" on="1"/>
        <pt x="424" y="131" on="1"/>
        <pt x="476" y="131" on="1"/>
      </contour>
    </TTGlyph>
    <TTGlyph name="four.numr" xMin="157" yMin="320" xMax="476" yMax="634">
      <component glyphName="four.dnom" x="0" y="320" flags="0x204"/>
    </TTGlyph>
    <TTGlyph name="four.onum" xMin="33" yMin="-80" xMax="563" yMax="580">
      <contour>
        <pt x="330" y="208" on="1"/>
        <pt x="330" y="290" on="1"/>
        <pt x="330" y="306" on="0"/>
        <pt x="331" y="345" on="0"/>
        <pt x="333" y="385" on="0"/>
        <pt x="335" y="424" on="0"/>
        <pt x="336" y="440" on="1"/>
        <pt x="332" y="440" on="1"/>
        <pt x="316" y="411" on="0"/>
        <pt x="280" y="355" on="0"/>
        <pt x="263" y="326" on="1"/>
        <pt x="195" y="208" on="1"/>
      </contour>
      <contour>
        <pt x="563" y="78" on="1"/>
        <pt x="490" y="78" on="1"/>
        <pt x="490" y="-80" on="1"/>
        <pt x="330" y="-80" on="1"/>
        <pt x="330" y="78" on="1"/>
        <pt x="33" y="78" on="1"/>
        <pt x="33" y="198" on="1"/>
        <pt x="278" y="580" on="1"/>
        <pt x="490" y="580" on="1"/>
        <pt x="490" y="208" on="1"/>
        <pt x="563" y="208" on="1"/>
      </contour>
    </TTGlyph>
    <TTGlyph name="four.subs" xMin="157" yMin="-169" xMax="476" yMax="145">
      <component glyphName="four.dnom" x="0" y="-169" flags="0x204"/>
    </TTGlyph>
    <TTGlyph name="four.sups" xMin="157" yMin="440" xMax="476" yMax="754">
      <component glyphName="four.dnom" x="0" y="440" flags="0x204"/>
    </TTGlyph>
    <TTGlyph name="fraction" xMin="12" yMin="26" xMax="588" yMax="624">
      <contour>
        <pt x="12" y="110" on="1"/>
        <pt x="200" y="278" on="1"/>
        <pt x="258" y="224" on="1"/>
        <pt x="98" y="26" on="1"/>
      </contour>
      <contour>
        <pt x="588" y="540" on="1"/>
        <pt x="400" y="372" on="1"/>
        <pt x="342" y="426" on="1"/>
        <pt x="502" y="624" on="1"/>
      </contour>
    </TTGlyph>
    <TTGlyph name="g" xMin="44" yMin="-206" xMax="575" yMax="512">
      <contour>
        <pt x="183" y="-54" on="1"/>
        <pt x="183" y="-78" on="0"/>
        <pt x="245" y="-100" on="0"/>
        <pt x="296" y="-100" on="1"/>
        <pt x="347" y="-100" on="0"/>
        <pt x="412" y="-75" on="0"/>
        <pt x="412" y="-54" on="1"/>
        <pt x="412" y="-34" on="0"/>
        <pt x="372" y="-24" on="0"/>
        <pt x="334" y="-24" on="1"/>
        <pt x="284" y="-24" on="1"/>
        <pt x="255" y="-24" on="0"/>
        <pt x="221" y="-21" on="0"/>
        <pt x="208" y="-18" on="1"/>
        <pt x="195" y="-27" on="0"/>
        <pt x="183" y="-43" on="0"/>
      </contour>
      <contour>
        <pt x="44" y="-82" on="1"/>
        <pt x="44" y="-22" on="0"/>
        <pt x="120" y="14" on="1"/>
        <pt x="120" y="18" on="1"/>
        <pt x="99" y="32" on="0"/>
        <pt x="70" y="72" on="0"/>
        <pt x="70" y="104" on="1"/>
        <pt x="70" y="130" on="0"/>
        <pt x="104" y="180" on="0"/>
        <pt x="130" y="198" on="1"/>
        <pt x="130" y="202" on="1"/>
        <pt x="101" y="220" on="0"/>
        <pt x="62" y="286" on="0"/>
        <pt x="62" y="330" on="1"/>
        <pt x="62" y="376" on="0"/>
        <pt x="98" y="445" on="0"/>
        <pt x="160" y="490" on="0"/>
        <pt x="239" y="512" on="0"/>
        <pt x="283" y="512" on="1"/>
        <pt x="330" y="512" on="0"/>
        <pt x="368" y="500" on="1"/>
        <pt x="570" y="500" on="1"/>
        <pt x="570" y="376" on="1"/>
        <pt x="480" y="376" on="1"/>
        <pt x="485" y="367" on="0"/>
        <pt x="494" y="339" on="0"/>
        <pt x="494" y="324" on="1"/>
        <pt x="494" y="280" on="0"/>
        <pt x="462" y="217" on="0"/>
        <pt x="405" y="177" on="0"/>
        <pt x="328" y="158" on="0"/>
        <pt x="283" y="158" on="1"/>
        <pt x="254" y="158" on="0"/>
        <pt x="220" y="165" on="1"/>
        <pt x="211" y="158" on="0"/>
        <pt x="204" y="147" on="0"/>
        <pt x="204" y="136" on="1"/>
        <pt x="204" y="119" on="0"/>
        <pt x="240" y="106" on="0"/>
        <pt x="282" y="106" on="1"/>
        <pt x="367" y="106" on="1"/>
        <pt x="467" y="106" on="0"/>
        <pt x="575" y="45" on="0"/>
        <pt x="575" y="-24" on="1"/>
        <pt x="575" y="-65" on="0"/>
        <pt x="532" y="-132" on="0"/>
        <pt x="452" y="-180" on="0"/>
        <pt x="339" y="-206" on="0"/>
        <pt x="269" y="-206" on="1"/>
        <pt x="222" y="-206" on="0"/>
        <pt x="141" y="-193" on="0"/>
        <pt x="79" y="-163" on="0"/>
        <pt x="44" y="-116" on="0"/>
      </contour>
      <contour>
        <pt x="283" y="260" on="1"/>
        <pt x="308" y="260" on="0"/>
        <pt x="344" y="294" on="0"/>
        <pt x="344" y="330" on="1"/>
        <pt x="344" y="365" on="0"/>
        <pt x="308" y="398" on="0"/>
        <pt x="283" y="398" on="1"/>
        <pt x="258" y="398" on="0"/>
        <pt x="223" y="365" on="0"/>
        <pt x="223" y="330" on="1"/>
        <pt x="223" y="294" on="0"/>
        <pt x="258" y="260" on="0"/>
      </contour>
    </TTGlyph>
    <TTGlyph name="g.a" xMin="42" yMin="-188" xMax="536" yMax="512">
      <component glyphName="uni0261" x="0" y="0" flags="0x204"/>
    </TTGlyph>
    <TTGlyph name="g.supa" xMin="125" yMin="139" xMax="458" yMax="599">
      <contour>
        <pt x="184" y="252" on="1"/>
        <pt x="207" y="241" on="0"/>
        <pt x="256" y="230" on="0"/>
        <pt x="275" y="230" on="1"/>
        <pt x="307" y="230" on="0"/>
        <pt x="337" y="252" on="0"/>
        <pt x="339" y="268" on="1"/>
        <pt x="342" y="299" on="1"/>
        <pt x="326" y="285" on="0"/>
        <pt x="285" y="271" on="0"/>
        <pt x="264" y="271" on="1"/>
        <pt x="233" y="271" on="0"/>
        <pt x="182" y="295" on="0"/>
        <pt x="145" y="339" on="0"/>
        <pt x="125" y="397" on="0"/>
        <pt x="125" y="432" on="1"/>
        <pt x="125" y="469" on="0"/>
        <pt x="150" y="531" on="0"/>
        <pt x="191" y="575" on="0"/>
        <pt x="241" y="599" on="0"/>
        <pt x="267" y="599" on="1"/>
        <pt x="290" y="599" on="0"/>
        <pt x="334" y="581" on="0"/>
        <pt x="352" y="560" on="1"/>
        <pt x="354" y="560" on="1"/>
        <pt x="363" y="591" on="1"/>
        <pt x="458" y="591" on="1"/>
        <pt x="458" y="272" on="1"/>
        <pt x="458" y="206" on="0"/>
        <pt x="363" y="139" on="0"/>
        <pt x="275" y="139" on="1"/>
        <pt x="249" y="139" on="0"/>
        <pt x="175" y="156" on="0"/>
        <pt x="145" y="176" on="1"/>
      </contour>
      <contour>
        <pt x="296" y="365" on="1"/>
        <pt x="309" y="365" on="0"/>
        <pt x="330" y="375" on="0"/>
        <pt x="339" y="389" on="1"/>
        <pt x="339" y="488" on="1"/>
        <pt x="330" y="496" on="0"/>
        <pt x="304" y="503" on="0"/>
        <pt x="293" y="503" on="1"/>
        <pt x="276" y="503" on="0"/>
        <pt x="246" y="470" on="0"/>
        <pt x="246" y="433" on="1"/>
        <pt x="246" y="399" on="0"/>
        <pt x="275" y="365" on="0"/>
      </contour>
    </TTGlyph>
    <TTGlyph name="g.sups" xMin="127" yMin="125" xMax="485" yMax="599">
      <contour>
        <pt x="223" y="226" on="1"/>
        <pt x="223" y="210" on="0"/>
        <pt x="265" y="197" on="0"/>
        <pt x="297" y="197" on="1"/>
        <pt x="329" y="197" on="0"/>
        <pt x="372" y="212" on="0"/>
        <pt x="372" y="225" on="1"/>
        <pt x="372" y="237" on="0"/>
        <pt x="345" y="243" on="0"/>
        <pt x="321" y="243" on="1"/>
        <pt x="289" y="243" on="1"/>
        <pt x="269" y="243" on="0"/>
        <pt x="247" y="245" on="0"/>
        <pt x="238" y="247" on="1"/>
        <pt x="223" y="236" on="0"/>
      </contour>
      <contour>
        <pt x="127" y="206" on="1"/>
        <pt x="127" y="245" on="0"/>
        <pt x="178" y="269" on="1"/>
        <pt x="178" y="272" on="1"/>
        <pt x="164" y="281" on="0"/>
        <pt x="144" y="308" on="0"/>
        <pt x="144" y="329" on="1"/>
        <pt x="144" y="346" on="0"/>
        <pt x="167" y="379" on="0"/>
        <pt x="185" y="391" on="1"/>
        <pt x="185" y="393" on="1"/>
        <pt x="165" y="405" on="0"/>
        <pt x="139" y="449" on="0"/>
        <pt x="139" y="478" on="1"/>
        <pt x="139" y="509" on="0"/>
        <pt x="164" y="555" on="0"/>
        <pt x="205" y="585" on="0"/>
        <pt x="259" y="599" on="0"/>
        <pt x="288" y="599" on="1"/>
        <pt x="319" y="599" on="0"/>
        <pt x="346" y="591" on="1"/>
        <pt x="481" y="591" on="1"/>
        <pt x="481" y="506" on="1"/>
        <pt x="423" y="506" on="1"/>
        <pt x="426" y="501" on="0"/>
        <pt x="431" y="483" on="0"/>
        <pt x="431" y="474" on="1"/>
        <pt x="431" y="444" on="0"/>
        <pt x="409" y="403" on="0"/>
        <pt x="371" y="376" on="0"/>
        <pt x="318" y="364" on="0"/>
        <pt x="288" y="364" on="1"/>
        <pt x="279" y="364" on="0"/>
        <pt x="259" y="367" on="0"/>
        <pt x="247" y="369" on="1"/>
        <pt x="241" y="364" on="0"/>
        <pt x="237" y="358" on="0"/>
        <pt x="237" y="351" on="1"/>
        <pt x="237" y="340" on="0"/>
        <pt x="260" y="332" on="0"/>
        <pt x="288" y="332" on="1"/>
        <pt x="344" y="332" on="1"/>
        <pt x="411" y="332" on="0"/>
        <pt x="485" y="292" on="0"/>
        <pt x="485" y="246" on="1"/>
        <pt x="485" y="191" on="0"/>
        <pt x="373" y="125" on="0"/>
        <pt x="278" y="125" on="1"/>
        <pt x="247" y="125" on="0"/>
        <pt x="192" y="134" on="0"/>
        <pt x="151" y="153" on="0"/>
        <pt x="127" y="184" on="0"/>
      </contour>
      <contour>
        <pt x="288" y="434" on="1"/>
        <pt x="304" y="434" on="0"/>
        <pt x="327" y="455" on="0"/>
        <pt x="327" y="478" on="1"/>
        <pt x="327" y="500" on="0"/>
        <pt x="304" y="521" on="0"/>
        <pt x="288" y="521" on="1"/>
        <pt x="272" y="521" on="0"/>
        <pt x="250" y="500" on="0"/>
        <pt x="250" y="478" on="1"/>
        <pt x="250" y="455" on="0"/>
        <pt x="272" y="434" on="0"/>
      </contour>
    </TTGlyph>
    <TTGlyph name="gbreve" xMin="44" yMin="-206" xMax="575" yMax="738">
      <component glyphName="g" x="0" y="0" flags="0x204"/>
      <component glyphName="uni0306" x="3" y="0" flags="0x4"/>
    </TTGlyph>
    <TTGlyph name="gbreve.a" xMin="42" yMin="-188" xMax="536" yMax="738">
      <component glyphName="uni0261" x="0" y="0" flags="0x204"/>
      <component glyphName="uni0306" x="10" y="0" flags="0x4"/>
    </TTGlyph>
    <TTGlyph name="gcaron" xMin="44" yMin="-206" xMax="575" yMax="748">
      <component glyphName="g" x="0" y="0" flags="0x204"/>
      <component glyphName="uni030C" x="3" y="0" flags="0x4"/>
    </TTGlyph>
    <TTGlyph name="gcaron.a" xMin="42" yMin="-188" xMax="536" yMax="748">
      <component glyphName="uni0261" x="0" y="0" flags="0x204"/>
      <component glyphName="uni030C" x="10" y="0" flags="0x4"/>
    </TTGlyph>
    <TTGlyph name="gcircumflex" xMin="44" yMin="-206" xMax="575" yMax="748">
      <component glyphName="g" x="0" y="0" flags="0x204"/>
      <component glyphName="uni0302" x="3" y="0" flags="0x4"/>
    </TTGlyph>
    <TTGlyph name="gcircumflex.a" xMin="42" yMin="-188" xMax="536" yMax="748">
      <component glyphName="uni0261" x="0" y="0" flags="0x204"/>
      <component glyphName="uni0302" x="10" y="0" flags="0x4"/>
    </TTGlyph>
    <TTGlyph name="gdotaccent" xMin="44" yMin="-206" xMax="575" yMax="764">
      <component glyphName="g" x="0" y="0" flags="0x204"/>
      <component glyphName="uni0307" x="3" y="0" flags="0x4"/>
    </TTGlyph>
    <TTGlyph name="gdotaccent.a" xMin="42" yMin="-188" xMax="536" yMax="764">
      <component glyphName="uni0261" x="0" y="0" flags="0x204"/>
      <component glyphName="uni0307" x="10" y="0" flags="0x4"/>
    </TTGlyph>
    <TTGlyph name="germandbls" xMin="50" yMin="-12" xMax="574" yMax="708">
      <contour>
        <pt x="50" y="486" on="1"/>
        <pt x="50" y="532" on="0"/>
        <pt x="78" y="613" on="0"/>
        <pt x="137" y="673" on="0"/>
        <pt x="226" y="708" on="0"/>
        <pt x="287" y="708" on="1"/>
        <pt x="339" y="708" on="0"/>
        <pt x="414" y="678" on="0"/>
        <pt x="463" y="628" on="0"/>
        <pt x="486" y="565" on="0"/>
        <pt x="486" y="532" on="1"/>
        <pt x="486" y="497" on="0"/>
        <pt x="470" y="448" on="0"/>
        <pt x="452" y="412" on="0"/>
        <pt x="436" y="382" on="0"/>
        <pt x="436" y="366" on="1"/>
        <pt x="436" y="352" on="0"/>
        <pt x="456" y="331" on="0"/>
        <pt x="487" y="308" on="0"/>
        <pt x="523" y="281" on="0"/>
        <pt x="554" y="244" on="0"/>
        <pt x="574" y="193" on="0"/>
        <pt x="574" y="158" on="1"/>
        <pt x="574" y="123" on="0"/>
        <pt x="552" y="61" on="0"/>
        <pt x="507" y="15" on="0"/>
        <pt x="440" y="-12" on="0"/>
        <pt x="395" y="-12" on="1"/>
        <pt x="354" y="-12" on="0"/>
        <pt x="293" y="5" on="0"/>
        <pt x="258" y="22" on="1"/>
        <pt x="314" y="138" on="1"/>
        <pt x="354" y="114" on="0"/>
        <pt x="389" y="114" on="1"/>
        <pt x="400" y="114" on="0"/>
        <pt x="416" y="129" on="0"/>
        <pt x="416" y="144" on="1"/>
        <pt x="416" y="166" on="0"/>
        <pt x="373" y="199" on="0"/>
        <pt x="321" y="238" on="0"/>
        <pt x="278" y="296" on="0"/>
        <pt x="278" y="344" on="1"/>
        <pt x="278" y="372" on="0"/>
        <pt x="293" y="414" on="0"/>
        <pt x="312" y="453" on="0"/>
        <pt x="327" y="494" on="0"/>
        <pt x="327" y="522" on="1"/>
        <pt x="327" y="544" on="0"/>
        <pt x="305" y="574" on="0"/>
        <pt x="287" y="574" on="1"/>
        <pt x="252" y="574" on="0"/>
        <pt x="222" y="520" on="0"/>
        <pt x="222" y="478" on="1"/>
        <pt x="222" y="0" on="1"/>
        <pt x="50" y="0" on="1"/>
      </contour>
    </TTGlyph>
    <TTGlyph name="grave" xMin="126" yMin="574" xMax="388" yMax="748">
      <component glyphName="uni0300" x="0" y="0" flags="0x204"/>
    </TTGlyph>
    <TTGlyph name="greater" xMin="94" yMin="24" xMax="486" yMax="640">
      <contour>
        <pt x="486" y="274" on="1"/>
        <pt x="94" y="24" on="1"/>
        <pt x="94" y="178" on="1"/>
        <pt x="346" y="330" on="1"/>
        <pt x="346" y="334" on="1"/>
        <pt x="94" y="486" on="1"/>
        <pt x="94" y="640" on="1"/>
        <pt x="486" y="390" on="1"/>
      </contour>
    </TTGlyph>
    <TTGlyph name="greaterequal" xMin="64" yMin="0" xMax="536" yMax="570">
      <contour>
        <pt x="64" y="120" on="1"/>
        <pt x="536" y="120" on="1"/>
        <pt x="536" y="0" on="1"/>
        <pt x="64" y="0" on="1"/>
      </contour>
      <contour>
        <pt x="536" y="292" on="1"/>
        <pt x="64" y="154" on="1"/>
        <pt x="64" y="294" on="1"/>
        <pt x="222" y="330" on="1"/>
        <pt x="362" y="360" on="1"/>
        <pt x="362" y="364" on="1"/>
        <pt x="222" y="394" on="1"/>
        <pt x="64" y="430" on="1"/>
        <pt x="64" y="570" on="1"/>
        <pt x="536" y="432" on="1"/>
      </contour>
    </TTGlyph>
    <TTGlyph name="guillemotleft" xMin="27" yMin="14" xMax="556" yMax="490">
      <component glyphName="guilsinglleft" x="-139" y="0" flags="0x204"/>
      <component glyphName="guilsinglleft" x="140" y="0" flags="0x4"/>
    </TTGlyph>
    <TTGlyph name="guillemotright" xMin="45" yMin="14" xMax="574" yMax="490">
      <component glyphName="guilsinglright" x="-139" y="0" flags="0x204"/>
      <component glyphName="guilsinglright" x="140" y="0" flags="0x4"/>
    </TTGlyph>
    <TTGlyph name="guilsinglleft" xMin="166" yMin="14" xMax="416" yMax="490">
      <contour>
        <pt x="166" y="166" on="1"/>
        <pt x="166" y="338" on="1"/>
        <pt x="344" y="490" on="1"/>
        <pt x="416" y="426" on="1"/>
        <pt x="288" y="252" on="1"/>
        <pt x="416" y="78" on="1"/>
        <pt x="344" y="14" on="1"/>
      </contour>
    </TTGlyph>
    <TTGlyph name="guilsinglright" xMin="184" yMin="14" xMax="434" yMax="490">
      <contour>
        <pt x="312" y="252" on="1"/>
        <pt x="184" y="426" on="1"/>
        <pt x="256" y="490" on="1"/>
        <pt x="434" y="338" on="1"/>
        <pt x="434" y="166" on="1"/>
        <pt x="256" y="14" on="1"/>
        <pt x="184" y="78" on="1"/>
      </contour>
    </TTGlyph>
    <TTGlyph name="h" xMin="64" yMin="0" xMax="546" yMax="696">
      <contour>
        <pt x="64" y="696" on="1"/>
        <pt x="236" y="696" on="1"/>
        <pt x="236" y="534" on="1"/>
        <pt x="227" y="446" on="1"/>
        <pt x="252" y="470" on="0"/>
        <pt x="332" y="512" on="0"/>
        <pt x="388" y="512" on="1"/>
        <pt x="470" y="512" on="0"/>
        <pt x="546" y="401" on="0"/>
        <pt x="546" y="308" on="1"/>
        <pt x="546" y="0" on="1"/>
        <pt x="374" y="0" on="1"/>
        <pt x="374" y="286" on="1"/>
        <pt x="374" y="328" on="0"/>
        <pt x="349" y="366" on="0"/>
        <pt x="316" y="366" on="1"/>
        <pt x="292" y="366" on="0"/>
        <pt x="256" y="346" on="0"/>
        <pt x="236" y="328" on="1"/>
        <pt x="236" y="0" on="1"/>
        <pt x="64" y="0" on="1"/>
      </contour>
    </TTGlyph>
    <TTGlyph name="h.sups" xMin="149" yMin="260" xMax="472" yMax="719">
      <contour>
        <pt x="149" y="719" on="1"/>
        <pt x="268" y="719" on="1"/>
        <pt x="268" y="613" on="1"/>
        <pt x="262" y="556" on="1"/>
        <pt x="278" y="571" on="0"/>
        <pt x="330" y="599" on="0"/>
        <pt x="366" y="599" on="1"/>
        <pt x="423" y="599" on="0"/>
        <pt x="472" y="525" on="0"/>
        <pt x="472" y="463" on="1"/>
        <pt x="472" y="260" on="1"/>
        <pt x="353" y="260" on="1"/>
        <pt x="353" y="448" on="1"/>
        <pt x="353" y="475" on="0"/>
        <pt x="337" y="499" on="0"/>
        <pt x="316" y="499" on="1"/>
        <pt x="301" y="499" on="0"/>
        <pt x="281" y="487" on="0"/>
        <pt x="268" y="476" on="1"/>
        <pt x="268" y="260" on="1"/>
        <pt x="149" y="260" on="1"/>
      </contour>
    </TTGlyph>
    <TTGlyph name="hbar" xMin="0" yMin="0" xMax="546" yMax="696">
      <contour>
        <pt x="227" y="426" on="1"/>
        <pt x="252" y="450" on="0"/>
        <pt x="332" y="492" on="0"/>
        <pt x="388" y="492" on="1"/>
        <pt x="470" y="492" on="0"/>
        <pt x="546" y="381" on="0"/>
        <pt x="546" y="288" on="1"/>
        <pt x="546" y="0" on="1"/>
        <pt x="374" y="0" on="1"/>
        <pt x="374" y="266" on="1"/>
        <pt x="374" y="308" on="0"/>
        <pt x="349" y="346" on="0"/>
        <pt x="316" y="346" on="1"/>
        <pt x="292" y="346" on="0"/>
        <pt x="256" y="326" on="0"/>
        <pt x="236" y="308" on="1"/>
        <pt x="236" y="0" on="1"/>
        <pt x="64" y="0" on="1"/>
        <pt x="64" y="550" on="1"/>
        <pt x="0" y="550" on="1"/>
        <pt x="0" y="624" on="1"/>
        <pt x="64" y="629" on="1"/>
        <pt x="64" y="696" on="1"/>
        <pt x="236" y="696" on="1"/>
        <pt x="236" y="630" on="1"/>
        <pt x="406" y="630" on="1"/>
        <pt x="406" y="550" on="1"/>
        <pt x="236" y="550" on="1"/>
        <pt x="236" y="514" on="1"/>
      </contour>
    </TTGlyph>
    <TTGlyph name="hcircumflex" xMin="-28" yMin="0" xMax="546" yMax="874">
      <component glyphName="h" x="0" y="0" flags="0x204"/>
      <component glyphName="uni0302.cap" x="-148" y="50" flags="0x4"/>
    </TTGlyph>
    <TTGlyph name="hungarumlaut" xMin="164" yMin="574" xMax="546" yMax="728">
      <component glyphName="uni030B" x="0" y="0" flags="0x204"/>
    </TTGlyph>
    <TTGlyph name="hyphen" xMin="64" yMin="270" xMax="536" yMax="390">
      <component glyphName="minus" x="0" y="0" flags="0x204"/>
    </TTGlyph>
    <TTGlyph name="hyphen.a" xMin="120" yMin="192" xMax="480" yMax="318">
      <contour>
        <pt x="120" y="318" on="1"/>
        <pt x="480" y="318" on="1"/>
        <pt x="480" y="192" on="1"/>
        <pt x="120" y="192" on="1"/>
      </contour>
    </TTGlyph>
    <TTGlyph name="i" xMin="74" yMin="0" xMax="454" yMax="764">
      <contour>
        <pt x="74" y="500" on="1"/>
        <pt x="436" y="500" on="1"/>
        <pt x="436" y="0" on="1"/>
        <pt x="264" y="0" on="1"/>
        <pt x="264" y="366" on="1"/>
        <pt x="74" y="366" on="1"/>
      </contour>
      <contour>
        <pt x="344" y="562" on="1"/>
        <pt x="296" y="562" on="0"/>
        <pt x="234" y="617" on="0"/>
        <pt x="234" y="662" on="1"/>
        <pt x="234" y="707" on="0"/>
        <pt x="296" y="764" on="0"/>
        <pt x="344" y="764" on="1"/>
        <pt x="392" y="764" on="0"/>
        <pt x="454" y="707" on="0"/>
        <pt x="454" y="662" on="1"/>
        <pt x="454" y="617" on="0"/>
        <pt x="392" y="562" on="0"/>
      </contour>
    </TTGlyph>
    <TTGlyph name="i.sups" xMin="167" yMin="260" xMax="420" yMax="767">
      <contour>
        <pt x="167" y="591" on="1"/>
        <pt x="405" y="591" on="1"/>
        <pt x="405" y="260" on="1"/>
        <pt x="286" y="260" on="1"/>
        <pt x="286" y="499" on="1"/>
        <pt x="167" y="499" on="1"/>
      </contour>
      <contour>
        <pt x="344" y="630" on="1"/>
        <pt x="311" y="630" on="0"/>
        <pt x="269" y="667" on="0"/>
        <pt x="269" y="698" on="1"/>
        <pt x="269" y="728" on="0"/>
        <pt x="311" y="767" on="0"/>
        <pt x="344" y="767" on="1"/>
        <pt x="377" y="767" on="0"/>
        <pt x="420" y="728" on="0"/>
        <pt x="420" y="698" on="1"/>
        <pt x="420" y="667" on="0"/>
        <pt x="377" y="630" on="0"/>
      </contour>
    </TTGlyph>
    <TTGlyph name="iacute" xMin="74" yMin="0" xMax="518" yMax="748">
      <component glyphName="dotlessi" x="0" y="0" flags="0x204"/>
      <component glyphName="uni0301" x="44" y="0" flags="0x4"/>
    </TTGlyph>
    <TTGlyph name="icircumflex" xMin="74" yMin="0" xMax="518" yMax="748">
      <component glyphName="dotlessi" x="0" y="0" flags="0x204"/>
      <component glyphName="uni0302" x="44" y="0" flags="0x4"/>
    </TTGlyph>
    <TTGlyph name="idieresis" xMin="74" yMin="0" xMax="546" yMax="740">
      <component glyphName="dotlessi" x="0" y="0" flags="0x204"/>
      <component glyphName="uni0308" x="44" y="0" flags="0x4"/>
    </TTGlyph>
    <TTGlyph name="igrave" xMin="74" yMin="0" xMax="436" yMax="748">
      <component glyphName="dotlessi" x="0" y="0" flags="0x204"/>
      <component glyphName="uni0300" x="44" y="0" flags="0x4"/>
    </TTGlyph>
    <TTGlyph name="imacron" xMin="74" yMin="0" xMax="488" yMax="696">
      <component glyphName="dotlessi" x="0" y="0" flags="0x204"/>
      <component glyphName="uni0304" x="44" y="0" flags="0x4"/>
    </TTGlyph>
    <TTGlyph name="infinity" xMin="-17" yMin="110" xMax="617" yMax="540">
      <contour>
        <pt x="130" y="138" on="1"/>
        <pt x="99" y="138" on="0"/>
        <pt x="45" y="167" on="0"/>
        <pt x="6" y="216" on="0"/>
        <pt x="-17" y="279" on="0"/>
        <pt x="-17" y="314" on="1"/>
        <pt x="-17" y="415" on="0"/>
        <pt x="76" y="524" on="0"/>
        <pt x="153" y="524" on="1"/>
        <pt x="241" y="524" on="0"/>
        <pt x="285" y="446" on="1"/>
        <pt x="289" y="446" on="1"/>
        <pt x="324" y="499" on="0"/>
        <pt x="400" y="540" on="0"/>
        <pt x="450" y="540" on="1"/>
        <pt x="484" y="540" on="0"/>
        <pt x="545" y="510" on="0"/>
        <pt x="590" y="457" on="0"/>
        <pt x="617" y="385" on="0"/>
        <pt x="617" y="342" on="1"/>
        <pt x="617" y="285" on="0"/>
        <pt x="589" y="199" on="0"/>
        <pt x="541" y="140" on="0"/>
        <pt x="477" y="110" on="0"/>
        <pt x="440" y="110" on="1"/>
        <pt x="413" y="110" on="0"/>
        <pt x="367" y="119" on="0"/>
        <pt x="325" y="143" on="0"/>
        <pt x="285" y="184" on="0"/>
        <pt x="265" y="216" on="1"/>
        <pt x="261" y="216" on="1"/>
        <pt x="238" y="178" on="0"/>
        <pt x="174" y="138" on="0"/>
      </contour>
      <contour>
        <pt x="335" y="354" on="1"/>
        <pt x="354" y="313" on="0"/>
        <pt x="397" y="268" on="0"/>
        <pt x="429" y="268" on="1"/>
        <pt x="459" y="268" on="0"/>
        <pt x="493" y="310" on="0"/>
        <pt x="493" y="338" on="1"/>
        <pt x="493" y="376" on="0"/>
        <pt x="455" y="416" on="0"/>
        <pt x="423" y="416" on="1"/>
        <pt x="400" y="416" on="0"/>
        <pt x="355" y="386" on="0"/>
      </contour>
      <contour>
        <pt x="155" y="262" on="1"/>
        <pt x="173" y="262" on="0"/>
        <pt x="204" y="282" on="0"/>
        <pt x="215" y="308" on="1"/>
        <pt x="202" y="340" on="0"/>
        <pt x="167" y="366" on="0"/>
        <pt x="149" y="366" on="1"/>
        <pt x="126" y="366" on="0"/>
        <pt x="107" y="338" on="0"/>
        <pt x="107" y="318" on="1"/>
        <pt x="107" y="298" on="0"/>
        <pt x="132" y="262" on="0"/>
      </contour>
    </TTGlyph>
    <TTGlyph name="integral" xMin="132" yMin="-158" xMax="478" yMax="792">
      <contour>
        <pt x="148" y="-26" on="1"/>
        <pt x="161" y="-30" on="0"/>
        <pt x="184" y="-30" on="1"/>
        <pt x="221" y="-30" on="0"/>
        <pt x="246" y="23" on="0"/>
        <pt x="246" y="92" on="1"/>
        <pt x="246" y="150" on="0"/>
        <pt x="235" y="256" on="0"/>
        <pt x="221" y="362" on="0"/>
        <pt x="210" y="473" on="0"/>
        <pt x="210" y="538" on="1"/>
        <pt x="210" y="592" on="0"/>
        <pt x="226" y="685" on="0"/>
        <pt x="271" y="753" on="0"/>
        <pt x="352" y="792" on="0"/>
        <pt x="417" y="792" on="1"/>
        <pt x="436" y="792" on="0"/>
        <pt x="469" y="786" on="0"/>
        <pt x="478" y="784" on="1"/>
        <pt x="462" y="660" on="1"/>
        <pt x="449" y="664" on="0"/>
        <pt x="426" y="664" on="1"/>
        <pt x="388" y="664" on="0"/>
        <pt x="364" y="610" on="0"/>
        <pt x="364" y="542" on="1"/>
        <pt x="364" y="483" on="0"/>
        <pt x="375" y="378" on="0"/>
        <pt x="389" y="272" on="0"/>
        <pt x="400" y="160" on="0"/>
        <pt x="400" y="96" on="1"/>
        <pt x="400" y="42" on="0"/>
        <pt x="384" y="-51" on="0"/>
        <pt x="339" y="-119" on="0"/>
        <pt x="258" y="-158" on="0"/>
        <pt x="193" y="-158" on="1"/>
        <pt x="174" y="-158" on="0"/>
        <pt x="141" y="-152" on="0"/>
        <pt x="132" y="-150" on="1"/>
        <pt x="148" y="-26" on="1"/>
      </contour>
    </TTGlyph>
    <TTGlyph name="iogonek" xMin="74" yMin="-212" xMax="470" yMax="764">
      <contour>
        <pt x="264" y="366" on="1"/>
        <pt x="74" y="366" on="1"/>
        <pt x="74" y="500" on="1"/>
        <pt x="436" y="500" on="1"/>
        <pt x="436" y="0" on="1"/>
        <pt x="392" y="-12" on="0"/>
        <pt x="362" y="-57" on="0"/>
        <pt x="362" y="-78" on="1"/>
        <pt x="362" y="-95" on="0"/>
        <pt x="386" y="-112" on="0"/>
        <pt x="403" y="-112" on="1"/>
        <pt x="411" y="-112" on="0"/>
        <pt x="428" y="-105" on="0"/>
        <pt x="436" y="-100" on="1"/>
        <pt x="470" y="-176" on="1"/>
        <pt x="449" y="-193" on="0"/>
        <pt x="386" y="-212" on="0"/>
        <pt x="360" y="-212" on="1"/>
        <pt x="313" y="-212" on="0"/>
        <pt x="248" y="-165" on="0"/>
        <pt x="248" y="-118" on="1"/>
        <pt x="248" y="-96" on="0"/>
        <pt x="262" y="-58" on="0"/>
        <pt x="282" y="-28" on="0"/>
        <pt x="305" y="-6" on="0"/>
        <pt x="314" y="0" on="1"/>
        <pt x="264" y="0" on="1"/>
      </contour>
      <contour>
        <pt x="344" y="562" on="1"/>
        <pt x="296" y="562" on="0"/>
        <pt x="234" y="617" on="0"/>
        <pt x="234" y="662" on="1"/>
        <pt x="234" y="707" on="0"/>
        <pt x="296" y="764" on="0"/>
        <pt x="344" y="764" on="1"/>
        <pt x="392" y="764" on="0"/>
        <pt x="454" y="707" on="0"/>
        <pt x="454" y="662" on="1"/>
        <pt x="454" y="617" on="0"/>
        <pt x="392" y="562" on="0"/>
      </contour>
    </TTGlyph>
    <TTGlyph name="iogonek.d" xMin="74" yMin="-212" xMax="470" yMax="500">
      <contour>
        <pt x="264" y="366" on="1"/>
        <pt x="74" y="366" on="1"/>
        <pt x="74" y="500" on="1"/>
        <pt x="436" y="500" on="1"/>
        <pt x="436" y="0" on="1"/>
        <pt x="392" y="-12" on="0"/>
        <pt x="362" y="-57" on="0"/>
        <pt x="362" y="-78" on="1"/>
        <pt x="362" y="-95" on="0"/>
        <pt x="386" y="-112" on="0"/>
        <pt x="403" y="-112" on="1"/>
        <pt x="411" y="-112" on="0"/>
        <pt x="428" y="-105" on="0"/>
        <pt x="436" y="-100" on="1"/>
        <pt x="470" y="-176" on="1"/>
        <pt x="449" y="-193" on="0"/>
        <pt x="386" y="-212" on="0"/>
        <pt x="360" y="-212" on="1"/>
        <pt x="313" y="-212" on="0"/>
        <pt x="248" y="-165" on="0"/>
        <pt x="248" y="-118" on="1"/>
        <pt x="248" y="-96" on="0"/>
        <pt x="262" y="-58" on="0"/>
        <pt x="282" y="-28" on="0"/>
        <pt x="305" y="-6" on="0"/>
        <pt x="314" y="0" on="1"/>
        <pt x="264" y="0" on="1"/>
      </contour>
    </TTGlyph>
    <TTGlyph name="itilde" xMin="74" yMin="0" xMax="526" yMax="730">
      <component glyphName="dotlessi" x="0" y="0" flags="0x204"/>
      <component glyphName="uni0303" x="44" y="0" flags="0x4"/>
    </TTGlyph>
    <TTGlyph name="j" xMin="37" yMin="-188" xMax="454" yMax="764">
      <contour>
        <pt x="74" y="500" on="1"/>
        <pt x="436" y="500" on="1"/>
        <pt x="436" y="46" on="1"/>
        <pt x="436" y="0" on="0"/>
        <pt x="414" y="-84" on="0"/>
        <pt x="359" y="-149" on="0"/>
        <pt x="266" y="-188" on="0"/>
        <pt x="195" y="-188" on="1"/>
        <pt x="146" y="-188" on="0"/>
        <pt x="70" y="-169" on="0"/>
        <pt x="37" y="-154" on="1"/>
        <pt x="86" y="-32" on="1"/>
        <pt x="118" y="-46" on="0"/>
        <pt x="163" y="-54" on="0"/>
        <pt x="183" y="-54" on="1"/>
        <pt x="229" y="-54" on="0"/>
        <pt x="264" y="-11" on="0"/>
        <pt x="264" y="40" on="1"/>
        <pt x="264" y="366" on="1"/>
        <pt x="74" y="366" on="1"/>
      </contour>
      <contour>
        <pt x="344" y="562" on="1"/>
        <pt x="296" y="562" on="0"/>
        <pt x="234" y="617" on="0"/>
        <pt x="234" y="662" on="1"/>
        <pt x="234" y="707" on="0"/>
        <pt x="296" y="764" on="0"/>
        <pt x="344" y="764" on="1"/>
        <pt x="392" y="764" on="0"/>
        <pt x="454" y="707" on="0"/>
        <pt x="454" y="662" on="1"/>
        <pt x="454" y="617" on="0"/>
        <pt x="392" y="562" on="0"/>
      </contour>
    </TTGlyph>
    <TTGlyph name="j.sups" xMin="130" yMin="137" xMax="408" yMax="767">
      <contour>
        <pt x="155" y="591" on="1"/>
        <pt x="393" y="591" on="1"/>
        <pt x="393" y="293" on="1"/>
        <pt x="393" y="263" on="0"/>
        <pt x="378" y="206" on="0"/>
        <pt x="341" y="163" on="0"/>
        <pt x="278" y="137" on="0"/>
        <pt x="230" y="137" on="1"/>
        <pt x="199" y="137" on="0"/>
        <pt x="151" y="150" on="0"/>
        <pt x="130" y="160" on="1"/>
        <pt x="164" y="243" on="1"/>
        <pt x="184" y="234" on="0"/>
        <pt x="211" y="229" on="0"/>
        <pt x="222" y="229" on="1"/>
        <pt x="251" y="229" on="0"/>
        <pt x="274" y="256" on="0"/>
        <pt x="274" y="289" on="1"/>
        <pt x="274" y="499" on="1"/>
        <pt x="155" y="499" on="1"/>
      </contour>
      <contour>
        <pt x="332" y="630" on="1"/>
        <pt x="299" y="630" on="0"/>
        <pt x="256" y="667" on="0"/>
        <pt x="256" y="698" on="1"/>
        <pt x="256" y="728" on="0"/>
        <pt x="299" y="767" on="0"/>
        <pt x="332" y="767" on="1"/>
        <pt x="365" y="767" on="0"/>
        <pt x="408" y="728" on="0"/>
        <pt x="408" y="698" on="1"/>
        <pt x="408" y="667" on="0"/>
        <pt x="365" y="630" on="0"/>
      </contour>
    </TTGlyph>
    <TTGlyph name="jcircumflex" xMin="37" yMin="-188" xMax="518" yMax="748">
      <component glyphName="uni0237" x="0" y="0" flags="0x204"/>
      <component glyphName="uni0302" x="44" y="0" flags="0x4"/>
    </TTGlyph>
    <TTGlyph name="k" xMin="64" yMin="0" xMax="590" yMax="696">
      <contour>
        <pt x="64" y="696" on="1"/>
        <pt x="236" y="696" on="1"/>
        <pt x="236" y="322" on="1"/>
        <pt x="240" y="322" on="1"/>
        <pt x="392" y="500" on="1"/>
        <pt x="578" y="500" on="1"/>
        <pt x="393" y="292" on="1"/>
        <pt x="590" y="0" on="1"/>
        <pt x="404" y="0" on="1"/>
        <pt x="294" y="186" on="1"/>
        <pt x="236" y="122" on="1"/>
        <pt x="236" y="0" on="1"/>
        <pt x="64" y="0" on="1"/>
      </contour>
    </TTGlyph>
    <TTGlyph name="k.sups" xMin="149" yMin="260" xMax="503" yMax="719">
      <contour>
        <pt x="149" y="719" on="1"/>
        <pt x="268" y="719" on="1"/>
        <pt x="268" y="480" on="1"/>
        <pt x="271" y="480" on="1"/>
        <pt x="367" y="591" on="1"/>
        <pt x="496" y="591" on="1"/>
        <pt x="372" y="453" on="1"/>
        <pt x="503" y="260" on="1"/>
        <pt x="374" y="260" on="1"/>
        <pt x="304" y="375" on="1"/>
        <pt x="268" y="339" on="1"/>
        <pt x="268" y="260" on="1"/>
        <pt x="149" y="260" on="1"/>
      </contour>
    </TTGlyph>
    <TTGlyph name="kgreenlandic" xMin="64" yMin="0" xMax="590" yMax="500">
      <contour>
        <pt x="64" y="500" on="1"/>
        <pt x="236" y="500" on="1"/>
        <pt x="236" y="326" on="1"/>
        <pt x="240" y="326" on="1"/>
        <pt x="392" y="500" on="1"/>
        <pt x="578" y="500" on="1"/>
        <pt x="393" y="292" on="1"/>
        <pt x="590" y="0" on="1"/>
        <pt x="404" y="0" on="1"/>
        <pt x="295" y="178" on="1"/>
        <pt x="236" y="120" on="1"/>
        <pt x="236" y="0" on="1"/>
        <pt x="64" y="0" on="1"/>
      </contour>
    </TTGlyph>
</ttFont>
